%TF.GenerationSoftware,KiCad,Pcbnew,6.0.2+dfsg-1*%
%TF.CreationDate,2023-03-28T11:02:59-04:00*%
%TF.ProjectId,Registers,52656769-7374-4657-9273-2e6b69636164,rev?*%
%TF.SameCoordinates,Original*%
%TF.FileFunction,Legend,Top*%
%TF.FilePolarity,Positive*%
%FSLAX46Y46*%
G04 Gerber Fmt 4.6, Leading zero omitted, Abs format (unit mm)*
G04 Created by KiCad (PCBNEW 6.0.2+dfsg-1) date 2023-03-28 11:02:59*
%MOMM*%
%LPD*%
G01*
G04 APERTURE LIST*
%ADD10C,0.150000*%
%ADD11C,0.120000*%
G04 APERTURE END LIST*
D10*
X19050571Y-74577380D02*
X19050571Y-73577380D01*
X19288666Y-73577380D01*
X19431523Y-73625000D01*
X19526761Y-73720238D01*
X19574380Y-73815476D01*
X19622000Y-74005952D01*
X19622000Y-74148809D01*
X19574380Y-74339285D01*
X19526761Y-74434523D01*
X19431523Y-74529761D01*
X19288666Y-74577380D01*
X19050571Y-74577380D01*
X20431523Y-74529761D02*
X20336285Y-74577380D01*
X20145809Y-74577380D01*
X20050571Y-74529761D01*
X20002952Y-74434523D01*
X20002952Y-74053571D01*
X20050571Y-73958333D01*
X20145809Y-73910714D01*
X20336285Y-73910714D01*
X20431523Y-73958333D01*
X20479142Y-74053571D01*
X20479142Y-74148809D01*
X20002952Y-74244047D01*
X20860095Y-74529761D02*
X20955333Y-74577380D01*
X21145809Y-74577380D01*
X21241047Y-74529761D01*
X21288666Y-74434523D01*
X21288666Y-74386904D01*
X21241047Y-74291666D01*
X21145809Y-74244047D01*
X21002952Y-74244047D01*
X20907714Y-74196428D01*
X20860095Y-74101190D01*
X20860095Y-74053571D01*
X20907714Y-73958333D01*
X21002952Y-73910714D01*
X21145809Y-73910714D01*
X21241047Y-73958333D01*
X21717238Y-74577380D02*
X21717238Y-73910714D01*
X21717238Y-73577380D02*
X21669619Y-73625000D01*
X21717238Y-73672619D01*
X21764857Y-73625000D01*
X21717238Y-73577380D01*
X21717238Y-73672619D01*
X22622000Y-73910714D02*
X22622000Y-74720238D01*
X22574380Y-74815476D01*
X22526761Y-74863095D01*
X22431523Y-74910714D01*
X22288666Y-74910714D01*
X22193428Y-74863095D01*
X22622000Y-74529761D02*
X22526761Y-74577380D01*
X22336285Y-74577380D01*
X22241047Y-74529761D01*
X22193428Y-74482142D01*
X22145809Y-74386904D01*
X22145809Y-74101190D01*
X22193428Y-74005952D01*
X22241047Y-73958333D01*
X22336285Y-73910714D01*
X22526761Y-73910714D01*
X22622000Y-73958333D01*
X23098190Y-73910714D02*
X23098190Y-74577380D01*
X23098190Y-74005952D02*
X23145809Y-73958333D01*
X23241047Y-73910714D01*
X23383904Y-73910714D01*
X23479142Y-73958333D01*
X23526761Y-74053571D01*
X23526761Y-74577380D01*
X24383904Y-74529761D02*
X24288666Y-74577380D01*
X24098190Y-74577380D01*
X24002952Y-74529761D01*
X23955333Y-74434523D01*
X23955333Y-74053571D01*
X24002952Y-73958333D01*
X24098190Y-73910714D01*
X24288666Y-73910714D01*
X24383904Y-73958333D01*
X24431523Y-74053571D01*
X24431523Y-74148809D01*
X23955333Y-74244047D01*
X25288666Y-74577380D02*
X25288666Y-73577380D01*
X25288666Y-74529761D02*
X25193428Y-74577380D01*
X25002952Y-74577380D01*
X24907714Y-74529761D01*
X24860095Y-74482142D01*
X24812476Y-74386904D01*
X24812476Y-74101190D01*
X24860095Y-74005952D01*
X24907714Y-73958333D01*
X25002952Y-73910714D01*
X25193428Y-73910714D01*
X25288666Y-73958333D01*
X26526761Y-74577380D02*
X26526761Y-73577380D01*
X26526761Y-73958333D02*
X26622000Y-73910714D01*
X26812476Y-73910714D01*
X26907714Y-73958333D01*
X26955333Y-74005952D01*
X27002952Y-74101190D01*
X27002952Y-74386904D01*
X26955333Y-74482142D01*
X26907714Y-74529761D01*
X26812476Y-74577380D01*
X26622000Y-74577380D01*
X26526761Y-74529761D01*
X27336285Y-73910714D02*
X27574380Y-74577380D01*
X27812476Y-73910714D02*
X27574380Y-74577380D01*
X27479142Y-74815476D01*
X27431523Y-74863095D01*
X27336285Y-74910714D01*
X28193428Y-74482142D02*
X28241047Y-74529761D01*
X28193428Y-74577380D01*
X28145809Y-74529761D01*
X28193428Y-74482142D01*
X28193428Y-74577380D01*
X28193428Y-73958333D02*
X28241047Y-74005952D01*
X28193428Y-74053571D01*
X28145809Y-74005952D01*
X28193428Y-73958333D01*
X28193428Y-74053571D01*
X18455333Y-75901666D02*
X18931523Y-75901666D01*
X18360095Y-76187380D02*
X18693428Y-75187380D01*
X19026761Y-76187380D01*
X19502952Y-76187380D02*
X19407714Y-76139761D01*
X19360095Y-76044523D01*
X19360095Y-75187380D01*
X20264857Y-76139761D02*
X20169619Y-76187380D01*
X19979142Y-76187380D01*
X19883904Y-76139761D01*
X19836285Y-76044523D01*
X19836285Y-75663571D01*
X19883904Y-75568333D01*
X19979142Y-75520714D01*
X20169619Y-75520714D01*
X20264857Y-75568333D01*
X20312476Y-75663571D01*
X20312476Y-75758809D01*
X19836285Y-75854047D01*
X20645809Y-76187380D02*
X21169619Y-75520714D01*
X20645809Y-75520714D02*
X21169619Y-76187380D01*
X22312476Y-76187380D02*
X22312476Y-75187380D01*
X22550571Y-75187380D01*
X22693428Y-75235000D01*
X22788666Y-75330238D01*
X22836285Y-75425476D01*
X22883904Y-75615952D01*
X22883904Y-75758809D01*
X22836285Y-75949285D01*
X22788666Y-76044523D01*
X22693428Y-76139761D01*
X22550571Y-76187380D01*
X22312476Y-76187380D01*
X23741047Y-76187380D02*
X23741047Y-75663571D01*
X23693428Y-75568333D01*
X23598190Y-75520714D01*
X23407714Y-75520714D01*
X23312476Y-75568333D01*
X23741047Y-76139761D02*
X23645809Y-76187380D01*
X23407714Y-76187380D01*
X23312476Y-76139761D01*
X23264857Y-76044523D01*
X23264857Y-75949285D01*
X23312476Y-75854047D01*
X23407714Y-75806428D01*
X23645809Y-75806428D01*
X23741047Y-75758809D01*
X24169619Y-76139761D02*
X24264857Y-76187380D01*
X24455333Y-76187380D01*
X24550571Y-76139761D01*
X24598190Y-76044523D01*
X24598190Y-75996904D01*
X24550571Y-75901666D01*
X24455333Y-75854047D01*
X24312476Y-75854047D01*
X24217238Y-75806428D01*
X24169619Y-75711190D01*
X24169619Y-75663571D01*
X24217238Y-75568333D01*
X24312476Y-75520714D01*
X24455333Y-75520714D01*
X24550571Y-75568333D01*
X25026761Y-75520714D02*
X25026761Y-76187380D01*
X25026761Y-75615952D02*
X25074380Y-75568333D01*
X25169619Y-75520714D01*
X25312476Y-75520714D01*
X25407714Y-75568333D01*
X25455333Y-75663571D01*
X25455333Y-76187380D01*
X26312476Y-76139761D02*
X26217238Y-76187380D01*
X26026761Y-76187380D01*
X25931523Y-76139761D01*
X25883904Y-76044523D01*
X25883904Y-75663571D01*
X25931523Y-75568333D01*
X26026761Y-75520714D01*
X26217238Y-75520714D01*
X26312476Y-75568333D01*
X26360095Y-75663571D01*
X26360095Y-75758809D01*
X25883904Y-75854047D01*
X26693428Y-75520714D02*
X26931523Y-76187380D01*
X27169619Y-75520714D01*
X27931523Y-76139761D02*
X27836285Y-76187380D01*
X27645809Y-76187380D01*
X27550571Y-76139761D01*
X27502952Y-76044523D01*
X27502952Y-75663571D01*
X27550571Y-75568333D01*
X27645809Y-75520714D01*
X27836285Y-75520714D01*
X27931523Y-75568333D01*
X27979142Y-75663571D01*
X27979142Y-75758809D01*
X27502952Y-75854047D01*
X28360095Y-76139761D02*
X28455333Y-76187380D01*
X28645809Y-76187380D01*
X28741047Y-76139761D01*
X28788666Y-76044523D01*
X28788666Y-75996904D01*
X28741047Y-75901666D01*
X28645809Y-75854047D01*
X28502952Y-75854047D01*
X28407714Y-75806428D01*
X28360095Y-75711190D01*
X28360095Y-75663571D01*
X28407714Y-75568333D01*
X28502952Y-75520714D01*
X28645809Y-75520714D01*
X28741047Y-75568333D01*
%TO.C,J8*%
X110846666Y-48257380D02*
X110846666Y-48971666D01*
X110799047Y-49114523D01*
X110703809Y-49209761D01*
X110560952Y-49257380D01*
X110465714Y-49257380D01*
X111465714Y-48685952D02*
X111370476Y-48638333D01*
X111322857Y-48590714D01*
X111275238Y-48495476D01*
X111275238Y-48447857D01*
X111322857Y-48352619D01*
X111370476Y-48305000D01*
X111465714Y-48257380D01*
X111656190Y-48257380D01*
X111751428Y-48305000D01*
X111799047Y-48352619D01*
X111846666Y-48447857D01*
X111846666Y-48495476D01*
X111799047Y-48590714D01*
X111751428Y-48638333D01*
X111656190Y-48685952D01*
X111465714Y-48685952D01*
X111370476Y-48733571D01*
X111322857Y-48781190D01*
X111275238Y-48876428D01*
X111275238Y-49066904D01*
X111322857Y-49162142D01*
X111370476Y-49209761D01*
X111465714Y-49257380D01*
X111656190Y-49257380D01*
X111751428Y-49209761D01*
X111799047Y-49162142D01*
X111846666Y-49066904D01*
X111846666Y-48876428D01*
X111799047Y-48781190D01*
X111751428Y-48733571D01*
X111656190Y-48685952D01*
%TO.C,J4*%
X73586666Y-18737380D02*
X73586666Y-19451666D01*
X73539047Y-19594523D01*
X73443809Y-19689761D01*
X73300952Y-19737380D01*
X73205714Y-19737380D01*
X74491428Y-19070714D02*
X74491428Y-19737380D01*
X74253333Y-18689761D02*
X74015238Y-19404047D01*
X74634285Y-19404047D01*
%TO.C,U1*%
X36832380Y-69951904D02*
X37641904Y-69951904D01*
X37737142Y-69904285D01*
X37784761Y-69856666D01*
X37832380Y-69761428D01*
X37832380Y-69570952D01*
X37784761Y-69475714D01*
X37737142Y-69428095D01*
X37641904Y-69380476D01*
X36832380Y-69380476D01*
X37832380Y-68380476D02*
X37832380Y-68951904D01*
X37832380Y-68666190D02*
X36832380Y-68666190D01*
X36975238Y-68761428D01*
X37070476Y-68856666D01*
X37118095Y-68951904D01*
%TO.C,J5*%
X59836666Y-18737380D02*
X59836666Y-19451666D01*
X59789047Y-19594523D01*
X59693809Y-19689761D01*
X59550952Y-19737380D01*
X59455714Y-19737380D01*
X60789047Y-18737380D02*
X60312857Y-18737380D01*
X60265238Y-19213571D01*
X60312857Y-19165952D01*
X60408095Y-19118333D01*
X60646190Y-19118333D01*
X60741428Y-19165952D01*
X60789047Y-19213571D01*
X60836666Y-19308809D01*
X60836666Y-19546904D01*
X60789047Y-19642142D01*
X60741428Y-19689761D01*
X60646190Y-19737380D01*
X60408095Y-19737380D01*
X60312857Y-19689761D01*
X60265238Y-19642142D01*
%TO.C,J6*%
X87336666Y-18772380D02*
X87336666Y-19486666D01*
X87289047Y-19629523D01*
X87193809Y-19724761D01*
X87050952Y-19772380D01*
X86955714Y-19772380D01*
X88241428Y-18772380D02*
X88050952Y-18772380D01*
X87955714Y-18820000D01*
X87908095Y-18867619D01*
X87812857Y-19010476D01*
X87765238Y-19200952D01*
X87765238Y-19581904D01*
X87812857Y-19677142D01*
X87860476Y-19724761D01*
X87955714Y-19772380D01*
X88146190Y-19772380D01*
X88241428Y-19724761D01*
X88289047Y-19677142D01*
X88336666Y-19581904D01*
X88336666Y-19343809D01*
X88289047Y-19248571D01*
X88241428Y-19200952D01*
X88146190Y-19153333D01*
X87955714Y-19153333D01*
X87860476Y-19200952D01*
X87812857Y-19248571D01*
X87765238Y-19343809D01*
%TO.C,J1*%
X21516666Y-53242380D02*
X21516666Y-53956666D01*
X21469047Y-54099523D01*
X21373809Y-54194761D01*
X21230952Y-54242380D01*
X21135714Y-54242380D01*
X22516666Y-54242380D02*
X21945238Y-54242380D01*
X22230952Y-54242380D02*
X22230952Y-53242380D01*
X22135714Y-53385238D01*
X22040476Y-53480476D01*
X21945238Y-53528095D01*
%TO.C,U4*%
X97648095Y-48452380D02*
X97648095Y-49261904D01*
X97695714Y-49357142D01*
X97743333Y-49404761D01*
X97838571Y-49452380D01*
X98029047Y-49452380D01*
X98124285Y-49404761D01*
X98171904Y-49357142D01*
X98219523Y-49261904D01*
X98219523Y-48452380D01*
X99124285Y-48785714D02*
X99124285Y-49452380D01*
X98886190Y-48404761D02*
X98648095Y-49119047D01*
X99267142Y-49119047D01*
%TO.C,U2*%
X68252380Y-70531904D02*
X69061904Y-70531904D01*
X69157142Y-70484285D01*
X69204761Y-70436666D01*
X69252380Y-70341428D01*
X69252380Y-70150952D01*
X69204761Y-70055714D01*
X69157142Y-70008095D01*
X69061904Y-69960476D01*
X68252380Y-69960476D01*
X68347619Y-69531904D02*
X68300000Y-69484285D01*
X68252380Y-69389047D01*
X68252380Y-69150952D01*
X68300000Y-69055714D01*
X68347619Y-69008095D01*
X68442857Y-68960476D01*
X68538095Y-68960476D01*
X68680952Y-69008095D01*
X69252380Y-69579523D01*
X69252380Y-68960476D01*
%TO.C,J7*%
X111376666Y-18507380D02*
X111376666Y-19221666D01*
X111329047Y-19364523D01*
X111233809Y-19459761D01*
X111090952Y-19507380D01*
X110995714Y-19507380D01*
X111757619Y-18507380D02*
X112424285Y-18507380D01*
X111995714Y-19507380D01*
%TO.C,J2*%
X19466666Y-46402380D02*
X19466666Y-47116666D01*
X19419047Y-47259523D01*
X19323809Y-47354761D01*
X19180952Y-47402380D01*
X19085714Y-47402380D01*
X19895238Y-46497619D02*
X19942857Y-46450000D01*
X20038095Y-46402380D01*
X20276190Y-46402380D01*
X20371428Y-46450000D01*
X20419047Y-46497619D01*
X20466666Y-46592857D01*
X20466666Y-46688095D01*
X20419047Y-46830952D01*
X19847619Y-47402380D01*
X20466666Y-47402380D01*
%TO.C,J3*%
X46086666Y-18867380D02*
X46086666Y-19581666D01*
X46039047Y-19724523D01*
X45943809Y-19819761D01*
X45800952Y-19867380D01*
X45705714Y-19867380D01*
X46467619Y-18867380D02*
X47086666Y-18867380D01*
X46753333Y-19248333D01*
X46896190Y-19248333D01*
X46991428Y-19295952D01*
X47039047Y-19343571D01*
X47086666Y-19438809D01*
X47086666Y-19676904D01*
X47039047Y-19772142D01*
X46991428Y-19819761D01*
X46896190Y-19867380D01*
X46610476Y-19867380D01*
X46515238Y-19819761D01*
X46467619Y-19772142D01*
%TO.C,U3*%
X98058095Y-18777380D02*
X98058095Y-19586904D01*
X98105714Y-19682142D01*
X98153333Y-19729761D01*
X98248571Y-19777380D01*
X98439047Y-19777380D01*
X98534285Y-19729761D01*
X98581904Y-19682142D01*
X98629523Y-19586904D01*
X98629523Y-18777380D01*
X99010476Y-18777380D02*
X99629523Y-18777380D01*
X99296190Y-19158333D01*
X99439047Y-19158333D01*
X99534285Y-19205952D01*
X99581904Y-19253571D01*
X99629523Y-19348809D01*
X99629523Y-19586904D01*
X99581904Y-19682142D01*
X99534285Y-19729761D01*
X99439047Y-19777380D01*
X99153333Y-19777380D01*
X99058095Y-19729761D01*
X99010476Y-19682142D01*
D11*
%TO.C,J8*%
X109850000Y-75325000D02*
X112510000Y-75325000D01*
X109850000Y-51135000D02*
X109850000Y-49805000D01*
X109850000Y-49805000D02*
X111180000Y-49805000D01*
X112510000Y-52405000D02*
X112510000Y-75325000D01*
X109850000Y-52405000D02*
X112510000Y-52405000D01*
X109850000Y-52405000D02*
X109850000Y-75325000D01*
%TO.C,J4*%
X71320000Y-21615000D02*
X71320000Y-20285000D01*
X71320000Y-58505000D02*
X76520000Y-58505000D01*
X73920000Y-20285000D02*
X76520000Y-20285000D01*
X71320000Y-22885000D02*
X73920000Y-22885000D01*
X73920000Y-22885000D02*
X73920000Y-20285000D01*
X71320000Y-22885000D02*
X71320000Y-58505000D01*
X71320000Y-20285000D02*
X72650000Y-20285000D01*
X76520000Y-20285000D02*
X76520000Y-58505000D01*
%TO.C,U1*%
X58820000Y-66940000D02*
X38380000Y-66940000D01*
X38380000Y-66940000D02*
X38380000Y-68190000D01*
X38380000Y-70190000D02*
X38380000Y-71440000D01*
X58880000Y-63940000D02*
X38320000Y-63940000D01*
X58880000Y-74440000D02*
X58880000Y-63940000D01*
X58820000Y-71440000D02*
X58820000Y-66940000D01*
X38320000Y-63940000D02*
X38320000Y-74440000D01*
X38320000Y-74440000D02*
X58880000Y-74440000D01*
X38380000Y-71440000D02*
X58820000Y-71440000D01*
X38380000Y-70190000D02*
G75*
G03*
X38380000Y-68190000I0J1000000D01*
G01*
%TO.C,J5*%
X57570000Y-20285000D02*
X58900000Y-20285000D01*
X57570000Y-22885000D02*
X57570000Y-58505000D01*
X57570000Y-21615000D02*
X57570000Y-20285000D01*
X60170000Y-22885000D02*
X60170000Y-20285000D01*
X57570000Y-58505000D02*
X62770000Y-58505000D01*
X60170000Y-20285000D02*
X62770000Y-20285000D01*
X57570000Y-22885000D02*
X60170000Y-22885000D01*
X62770000Y-20285000D02*
X62770000Y-58505000D01*
%TO.C,J6*%
X87670000Y-22920000D02*
X87670000Y-20320000D01*
X85070000Y-22920000D02*
X85070000Y-58540000D01*
X87670000Y-20320000D02*
X90270000Y-20320000D01*
X90270000Y-20320000D02*
X90270000Y-58540000D01*
X85070000Y-22920000D02*
X87670000Y-22920000D01*
X85070000Y-20320000D02*
X86400000Y-20320000D01*
X85070000Y-21650000D02*
X85070000Y-20320000D01*
X85070000Y-58540000D02*
X90270000Y-58540000D01*
%TO.C,J1*%
X19250000Y-57390000D02*
X21850000Y-57390000D01*
X19250000Y-54790000D02*
X20580000Y-54790000D01*
X19250000Y-67610000D02*
X24450000Y-67610000D01*
X21850000Y-54790000D02*
X24450000Y-54790000D01*
X19250000Y-56120000D02*
X19250000Y-54790000D01*
X21850000Y-57390000D02*
X21850000Y-54790000D01*
X24450000Y-54790000D02*
X24450000Y-67610000D01*
X19250000Y-57390000D02*
X19250000Y-67610000D01*
%TO.C,U4*%
X103660000Y-49940000D02*
X93160000Y-49940000D01*
X93160000Y-49940000D02*
X93160000Y-75580000D01*
X97410000Y-50000000D02*
X96160000Y-50000000D01*
X100660000Y-50000000D02*
X99410000Y-50000000D01*
X93160000Y-75580000D02*
X103660000Y-75580000D01*
X100660000Y-75520000D02*
X100660000Y-50000000D01*
X103660000Y-75580000D02*
X103660000Y-49940000D01*
X96160000Y-75520000D02*
X100660000Y-75520000D01*
X96160000Y-50000000D02*
X96160000Y-75520000D01*
X97410000Y-50000000D02*
G75*
G03*
X99410000Y-50000000I1000000J0D01*
G01*
%TO.C,U2*%
X69800000Y-72020000D02*
X90240000Y-72020000D01*
X90300000Y-64520000D02*
X69740000Y-64520000D01*
X90240000Y-72020000D02*
X90240000Y-67520000D01*
X69740000Y-75020000D02*
X90300000Y-75020000D01*
X90240000Y-67520000D02*
X69800000Y-67520000D01*
X90300000Y-75020000D02*
X90300000Y-64520000D01*
X69800000Y-70770000D02*
X69800000Y-72020000D01*
X69740000Y-64520000D02*
X69740000Y-75020000D01*
X69800000Y-67520000D02*
X69800000Y-68770000D01*
X69800000Y-70770000D02*
G75*
G03*
X69800000Y-68770000I0J1000000D01*
G01*
%TO.C,J7*%
X110380000Y-20055000D02*
X111710000Y-20055000D01*
X110380000Y-22655000D02*
X110380000Y-45575000D01*
X110380000Y-45575000D02*
X113040000Y-45575000D01*
X110380000Y-22655000D02*
X113040000Y-22655000D01*
X110380000Y-21385000D02*
X110380000Y-20055000D01*
X113040000Y-22655000D02*
X113040000Y-45575000D01*
%TO.C,J2*%
X21130000Y-20430000D02*
X18470000Y-20430000D01*
X21130000Y-44620000D02*
X21130000Y-45950000D01*
X21130000Y-43350000D02*
X21130000Y-20430000D01*
X21130000Y-45950000D02*
X19800000Y-45950000D01*
X18470000Y-43350000D02*
X18470000Y-20430000D01*
X21130000Y-43350000D02*
X18470000Y-43350000D01*
%TO.C,J3*%
X43820000Y-23015000D02*
X43820000Y-58635000D01*
X43820000Y-21745000D02*
X43820000Y-20415000D01*
X46420000Y-23015000D02*
X46420000Y-20415000D01*
X43820000Y-20415000D02*
X45150000Y-20415000D01*
X43820000Y-58635000D02*
X49020000Y-58635000D01*
X46420000Y-20415000D02*
X49020000Y-20415000D01*
X49020000Y-20415000D02*
X49020000Y-58635000D01*
X43820000Y-23015000D02*
X46420000Y-23015000D01*
%TO.C,U3*%
X104070000Y-20265000D02*
X93570000Y-20265000D01*
X97820000Y-20325000D02*
X96570000Y-20325000D01*
X96570000Y-20325000D02*
X96570000Y-45845000D01*
X101070000Y-45845000D02*
X101070000Y-20325000D01*
X93570000Y-45905000D02*
X104070000Y-45905000D01*
X104070000Y-45905000D02*
X104070000Y-20265000D01*
X93570000Y-20265000D02*
X93570000Y-45905000D01*
X101070000Y-20325000D02*
X99820000Y-20325000D01*
X96570000Y-45845000D02*
X101070000Y-45845000D01*
X97820000Y-20325000D02*
G75*
G03*
X99820000Y-20325000I1000000J0D01*
G01*
%TD*%
M02*
