M48
; DRILL file {KiCad 6.0.2+dfsg-1} date Tue 28 Mar 2023 11:02:58 AM EDT
; FORMAT={-:-/ absolute / inch / decimal}
; #@! TF.CreationDate,2023-03-28T11:02:58-04:00
; #@! TF.GenerationSoftware,Kicad,Pcbnew,6.0.2+dfsg-1
; #@! TF.FileFunction,Plated,1,2,PTH
FMAT,2
INCH
; #@! TA.AperFunction,Plated,PTH,ViaDrill
T1C0.0157
; #@! TA.AperFunction,Plated,PTH,ComponentDrill
T2C0.0315
; #@! TA.AperFunction,Plated,PTH,ComponentDrill
T3C0.0394
%
G90
G05
T1
X2.0339Y-2.2885
X2.2667Y-2.1799
X2.3049Y-2.328
X2.4268Y-2.4409
X3.2788Y-2.3743
X3.5566Y-2.3959
T2
X1.5634Y-2.574
X1.5634Y-2.874
X1.6634Y-2.574
X1.6634Y-2.874
X1.7634Y-2.574
X1.7634Y-2.874
X1.8634Y-2.574
X1.8634Y-2.874
X1.9634Y-2.574
X1.9634Y-2.874
X2.0634Y-2.574
X2.0634Y-2.874
X2.1634Y-2.574
X2.1634Y-2.874
X2.2634Y-2.574
X2.2634Y-2.874
X2.8004Y-2.5969
X2.8004Y-2.8969
X2.9004Y-2.5969
X2.9004Y-2.8969
X3.0004Y-2.5969
X3.0004Y-2.8969
X3.1004Y-2.5969
X3.1004Y-2.8969
X3.2004Y-2.5969
X3.2004Y-2.8969
X3.3004Y-2.5969
X3.3004Y-2.8969
X3.4004Y-2.5969
X3.4004Y-2.8969
X3.5004Y-2.5969
X3.5004Y-2.8969
X3.7244Y-2.0209
X3.7244Y-2.1209
X3.7244Y-2.2209
X3.7244Y-2.3209
X3.7244Y-2.4209
X3.7244Y-2.5209
X3.7244Y-2.6209
X3.7244Y-2.7209
X3.7244Y-2.8209
X3.7244Y-2.9209
X3.7406Y-0.8526
X3.7406Y-0.9526
X3.7406Y-1.0526
X3.7406Y-1.1526
X3.7406Y-1.2526
X3.7406Y-1.3526
X3.7406Y-1.4526
X3.7406Y-1.5526
X3.7406Y-1.6526
X3.7406Y-1.7526
X4.0244Y-2.0209
X4.0244Y-2.1209
X4.0244Y-2.2209
X4.0244Y-2.3209
X4.0244Y-2.4209
X4.0244Y-2.5209
X4.0244Y-2.6209
X4.0244Y-2.7209
X4.0244Y-2.8209
X4.0244Y-2.9209
X4.0406Y-0.8526
X4.0406Y-0.9526
X4.0406Y-1.0526
X4.0406Y-1.1526
X4.0406Y-1.2526
X4.0406Y-1.3526
X4.0406Y-1.4526
X4.0406Y-1.5526
X4.0406Y-1.6526
X4.0406Y-1.7526
T3
X0.7795Y-0.8567
X0.7795Y-0.9567
X0.7795Y-1.0567
X0.7795Y-1.1567
X0.7795Y-1.2567
X0.7795Y-1.3567
X0.7795Y-1.4567
X0.7795Y-1.5567
X0.7795Y-1.6567
X0.7795Y-1.7567
X0.8102Y-2.2094
X0.8102Y-2.3094
X0.8102Y-2.4094
X0.8102Y-2.5094
X0.8102Y-2.6094
X0.9102Y-2.2094
X0.9102Y-2.3094
X0.9102Y-2.4094
X0.9102Y-2.5094
X0.9102Y-2.6094
X1.7776Y-0.8561
X1.7776Y-0.9561
X1.7776Y-1.0561
X1.7776Y-1.1561
X1.7776Y-1.2561
X1.7776Y-1.3561
X1.7776Y-1.4561
X1.7776Y-1.5561
X1.7776Y-1.6561
X1.7776Y-1.7561
X1.7776Y-1.8561
X1.7776Y-1.9561
X1.7776Y-2.0561
X1.7776Y-2.1561
X1.7776Y-2.2561
X1.8776Y-0.8561
X1.8776Y-0.9561
X1.8776Y-1.0561
X1.8776Y-1.1561
X1.8776Y-1.2561
X1.8776Y-1.3561
X1.8776Y-1.4561
X1.8776Y-1.5561
X1.8776Y-1.6561
X1.8776Y-1.7561
X1.8776Y-1.8561
X1.8776Y-1.9561
X1.8776Y-2.0561
X1.8776Y-2.1561
X1.8776Y-2.2561
X2.3189Y-0.851
X2.3189Y-0.951
X2.3189Y-1.051
X2.3189Y-1.151
X2.3189Y-1.251
X2.3189Y-1.351
X2.3189Y-1.451
X2.3189Y-1.551
X2.3189Y-1.651
X2.3189Y-1.751
X2.3189Y-1.851
X2.3189Y-1.951
X2.3189Y-2.051
X2.3189Y-2.151
X2.3189Y-2.251
X2.4189Y-0.851
X2.4189Y-0.951
X2.4189Y-1.051
X2.4189Y-1.151
X2.4189Y-1.251
X2.4189Y-1.351
X2.4189Y-1.451
X2.4189Y-1.551
X2.4189Y-1.651
X2.4189Y-1.751
X2.4189Y-1.851
X2.4189Y-1.951
X2.4189Y-2.051
X2.4189Y-2.151
X2.4189Y-2.251
X2.8602Y-0.851
X2.8602Y-0.951
X2.8602Y-1.051
X2.8602Y-1.151
X2.8602Y-1.251
X2.8602Y-1.351
X2.8602Y-1.451
X2.8602Y-1.551
X2.8602Y-1.651
X2.8602Y-1.751
X2.8602Y-1.851
X2.8602Y-1.951
X2.8602Y-2.051
X2.8602Y-2.151
X2.8602Y-2.251
X2.9602Y-0.851
X2.9602Y-0.951
X2.9602Y-1.051
X2.9602Y-1.151
X2.9602Y-1.251
X2.9602Y-1.351
X2.9602Y-1.451
X2.9602Y-1.551
X2.9602Y-1.651
X2.9602Y-1.751
X2.9602Y-1.851
X2.9602Y-1.951
X2.9602Y-2.051
X2.9602Y-2.151
X2.9602Y-2.251
X3.4016Y-0.8524
X3.4016Y-0.9524
X3.4016Y-1.0524
X3.4016Y-1.1524
X3.4016Y-1.2524
X3.4016Y-1.3524
X3.4016Y-1.4524
X3.4016Y-1.5524
X3.4016Y-1.6524
X3.4016Y-1.7524
X3.4016Y-1.8524
X3.4016Y-1.9524
X3.4016Y-2.0524
X3.4016Y-2.1524
X3.4016Y-2.2524
X3.5016Y-0.8524
X3.5016Y-0.9524
X3.5016Y-1.0524
X3.5016Y-1.1524
X3.5016Y-1.2524
X3.5016Y-1.3524
X3.5016Y-1.4524
X3.5016Y-1.5524
X3.5016Y-1.6524
X3.5016Y-1.7524
X3.5016Y-1.8524
X3.5016Y-1.9524
X3.5016Y-2.0524
X3.5016Y-2.1524
X3.5016Y-2.2524
X4.3772Y-2.0132
X4.3772Y-2.1132
X4.3772Y-2.2132
X4.3772Y-2.3132
X4.3772Y-2.4132
X4.3772Y-2.5132
X4.3772Y-2.6132
X4.3772Y-2.7132
X4.3772Y-2.8132
X4.3772Y-2.9132
X4.398Y-0.8419
X4.398Y-0.9419
X4.398Y-1.0419
X4.398Y-1.1419
X4.398Y-1.2419
X4.398Y-1.3419
X4.398Y-1.4419
X4.398Y-1.5419
X4.398Y-1.6419
X4.398Y-1.7419
T0
M30
