%TF.GenerationSoftware,KiCad,Pcbnew,6.0.2+dfsg-1*%
%TF.CreationDate,2023-03-28T11:02:59-04:00*%
%TF.ProjectId,Registers,52656769-7374-4657-9273-2e6b69636164,rev?*%
%TF.SameCoordinates,Original*%
%TF.FileFunction,Copper,L2,Bot*%
%TF.FilePolarity,Positive*%
%FSLAX46Y46*%
G04 Gerber Fmt 4.6, Leading zero omitted, Abs format (unit mm)*
G04 Created by KiCad (PCBNEW 6.0.2+dfsg-1) date 2023-03-28 11:02:59*
%MOMM*%
%LPD*%
G01*
G04 APERTURE LIST*
%TA.AperFunction,ComponentPad*%
%ADD10R,1.700000X1.700000*%
%TD*%
%TA.AperFunction,ComponentPad*%
%ADD11O,1.700000X1.700000*%
%TD*%
%TA.AperFunction,ComponentPad*%
%ADD12R,1.600000X2.400000*%
%TD*%
%TA.AperFunction,ComponentPad*%
%ADD13O,1.600000X2.400000*%
%TD*%
%TA.AperFunction,ComponentPad*%
%ADD14R,2.400000X1.600000*%
%TD*%
%TA.AperFunction,ComponentPad*%
%ADD15O,2.400000X1.600000*%
%TD*%
%TA.AperFunction,ViaPad*%
%ADD16C,0.800000*%
%TD*%
%TA.AperFunction,Conductor*%
%ADD17C,0.250000*%
%TD*%
G04 APERTURE END LIST*
D10*
%TO.P,J8,1,Pin_1*%
%TO.N,VCC*%
X111180000Y-51135000D03*
D11*
%TO.P,J8,2,Pin_2*%
%TO.N,Net-(J8-Pad2)*%
X111180000Y-53675000D03*
%TO.P,J8,3,Pin_3*%
%TO.N,Net-(J8-Pad3)*%
X111180000Y-56215000D03*
%TO.P,J8,4,Pin_4*%
%TO.N,Net-(J8-Pad4)*%
X111180000Y-58755000D03*
%TO.P,J8,5,Pin_5*%
%TO.N,Net-(J8-Pad5)*%
X111180000Y-61295000D03*
%TO.P,J8,6,Pin_6*%
%TO.N,Net-(J8-Pad6)*%
X111180000Y-63835000D03*
%TO.P,J8,7,Pin_7*%
%TO.N,Net-(J8-Pad7)*%
X111180000Y-66375000D03*
%TO.P,J8,8,Pin_8*%
%TO.N,Net-(J8-Pad8)*%
X111180000Y-68915000D03*
%TO.P,J8,9,Pin_9*%
%TO.N,Net-(J8-Pad9)*%
X111180000Y-71455000D03*
%TO.P,J8,10,Pin_10*%
%TO.N,GND*%
X111180000Y-73995000D03*
%TD*%
D10*
%TO.P,J4,1,Pin_1*%
%TO.N,VCC*%
X72650000Y-21615000D03*
D11*
%TO.P,J4,2,Pin_2*%
%TO.N,/RD_{0}*%
X75190000Y-21615000D03*
%TO.P,J4,3,Pin_3*%
%TO.N,/D_{0}*%
X72650000Y-24155000D03*
%TO.P,J4,4,Pin_4*%
%TO.N,/RD_{1}*%
X75190000Y-24155000D03*
%TO.P,J4,5,Pin_5*%
%TO.N,/D_{1}*%
X72650000Y-26695000D03*
%TO.P,J4,6,Pin_6*%
%TO.N,/RD_{2}*%
X75190000Y-26695000D03*
%TO.P,J4,7,Pin_7*%
%TO.N,/D_{2}*%
X72650000Y-29235000D03*
%TO.P,J4,8,Pin_8*%
%TO.N,/RD_{3}*%
X75190000Y-29235000D03*
%TO.P,J4,9,Pin_9*%
%TO.N,/D_{3}*%
X72650000Y-31775000D03*
%TO.P,J4,10,Pin_10*%
%TO.N,/RD_{4}*%
X75190000Y-31775000D03*
%TO.P,J4,11,Pin_11*%
%TO.N,/D_{4}*%
X72650000Y-34315000D03*
%TO.P,J4,12,Pin_12*%
%TO.N,/RD_{5}*%
X75190000Y-34315000D03*
%TO.P,J4,13,Pin_13*%
%TO.N,/D_{5}*%
X72650000Y-36855000D03*
%TO.P,J4,14,Pin_14*%
%TO.N,/RD_{6}*%
X75190000Y-36855000D03*
%TO.P,J4,15,Pin_15*%
%TO.N,/D_{6}*%
X72650000Y-39395000D03*
%TO.P,J4,16,Pin_16*%
%TO.N,/RD_{7}*%
X75190000Y-39395000D03*
%TO.P,J4,17,Pin_17*%
%TO.N,/D_{7}*%
X72650000Y-41935000D03*
%TO.P,J4,18,Pin_18*%
%TO.N,/RS_{0}*%
X75190000Y-41935000D03*
%TO.P,J4,19,Pin_19*%
%TO.N,/CLK*%
X72650000Y-44475000D03*
%TO.P,J4,20,Pin_20*%
%TO.N,/RS_{1}*%
X75190000Y-44475000D03*
%TO.P,J4,21,Pin_21*%
%TO.N,Net-(J4-Pad21)*%
X72650000Y-47015000D03*
%TO.P,J4,22,Pin_22*%
%TO.N,/RS_{2}*%
X75190000Y-47015000D03*
%TO.P,J4,23,Pin_23*%
%TO.N,Net-(J4-Pad23)*%
X72650000Y-49555000D03*
%TO.P,J4,24,Pin_24*%
%TO.N,/RS_{3}*%
X75190000Y-49555000D03*
%TO.P,J4,25,Pin_25*%
%TO.N,Net-(J4-Pad25)*%
X72650000Y-52095000D03*
%TO.P,J4,26,Pin_26*%
%TO.N,/RS_{4}*%
X75190000Y-52095000D03*
%TO.P,J4,27,Pin_27*%
%TO.N,/RS_{7}*%
X72650000Y-54635000D03*
%TO.P,J4,28,Pin_28*%
%TO.N,/RS_{5}*%
X75190000Y-54635000D03*
%TO.P,J4,29,Pin_29*%
%TO.N,/RS_{6}*%
X72650000Y-57175000D03*
%TO.P,J4,30,Pin_30*%
%TO.N,GND*%
X75190000Y-57175000D03*
%TD*%
D12*
%TO.P,U1,1,E*%
%TO.N,Net-(J1-Pad2)*%
X39710000Y-73000000D03*
D13*
%TO.P,U1,2,A0*%
%TO.N,Net-(J1-Pad9)*%
X42250000Y-73000000D03*
%TO.P,U1,3,A1*%
%TO.N,Net-(J1-Pad10)*%
X44790000Y-73000000D03*
%TO.P,U1,4,O0*%
%TO.N,Net-(J3-Pad21)*%
X47330000Y-73000000D03*
%TO.P,U1,5,O1*%
%TO.N,Net-(J4-Pad21)*%
X49870000Y-73000000D03*
%TO.P,U1,6,O2*%
%TO.N,Net-(J5-Pad21)*%
X52410000Y-73000000D03*
%TO.P,U1,7,O3*%
%TO.N,Net-(J6-Pad21)*%
X54950000Y-73000000D03*
%TO.P,U1,8,GND*%
%TO.N,GND*%
X57490000Y-73000000D03*
%TO.P,U1,9,O3*%
%TO.N,Net-(J6-Pad23)*%
X57490000Y-65380000D03*
%TO.P,U1,10,O2*%
%TO.N,Net-(J5-Pad23)*%
X54950000Y-65380000D03*
%TO.P,U1,11,O1*%
%TO.N,Net-(J4-Pad23)*%
X52410000Y-65380000D03*
%TO.P,U1,12,O0*%
%TO.N,Net-(J3-Pad23)*%
X49870000Y-65380000D03*
%TO.P,U1,13,A1*%
%TO.N,Net-(J1-Pad10)*%
X47330000Y-65380000D03*
%TO.P,U1,14,A0*%
%TO.N,Net-(J1-Pad9)*%
X44790000Y-65380000D03*
%TO.P,U1,15,E*%
%TO.N,Net-(J1-Pad3)*%
X42250000Y-65380000D03*
%TO.P,U1,16,VCC*%
%TO.N,VCC*%
X39710000Y-65380000D03*
%TD*%
D10*
%TO.P,J5,1,Pin_1*%
%TO.N,VCC*%
X58900000Y-21615000D03*
D11*
%TO.P,J5,2,Pin_2*%
%TO.N,/RD_{0}*%
X61440000Y-21615000D03*
%TO.P,J5,3,Pin_3*%
%TO.N,/D_{0}*%
X58900000Y-24155000D03*
%TO.P,J5,4,Pin_4*%
%TO.N,/RD_{1}*%
X61440000Y-24155000D03*
%TO.P,J5,5,Pin_5*%
%TO.N,/D_{1}*%
X58900000Y-26695000D03*
%TO.P,J5,6,Pin_6*%
%TO.N,/RD_{2}*%
X61440000Y-26695000D03*
%TO.P,J5,7,Pin_7*%
%TO.N,/D_{2}*%
X58900000Y-29235000D03*
%TO.P,J5,8,Pin_8*%
%TO.N,/RD_{3}*%
X61440000Y-29235000D03*
%TO.P,J5,9,Pin_9*%
%TO.N,/D_{3}*%
X58900000Y-31775000D03*
%TO.P,J5,10,Pin_10*%
%TO.N,/RD_{4}*%
X61440000Y-31775000D03*
%TO.P,J5,11,Pin_11*%
%TO.N,/D_{4}*%
X58900000Y-34315000D03*
%TO.P,J5,12,Pin_12*%
%TO.N,/RD_{5}*%
X61440000Y-34315000D03*
%TO.P,J5,13,Pin_13*%
%TO.N,/D_{5}*%
X58900000Y-36855000D03*
%TO.P,J5,14,Pin_14*%
%TO.N,/RD_{6}*%
X61440000Y-36855000D03*
%TO.P,J5,15,Pin_15*%
%TO.N,/D_{6}*%
X58900000Y-39395000D03*
%TO.P,J5,16,Pin_16*%
%TO.N,/RD_{7}*%
X61440000Y-39395000D03*
%TO.P,J5,17,Pin_17*%
%TO.N,/D_{7}*%
X58900000Y-41935000D03*
%TO.P,J5,18,Pin_18*%
%TO.N,/RS_{0}*%
X61440000Y-41935000D03*
%TO.P,J5,19,Pin_19*%
%TO.N,/CLK*%
X58900000Y-44475000D03*
%TO.P,J5,20,Pin_20*%
%TO.N,/RS_{1}*%
X61440000Y-44475000D03*
%TO.P,J5,21,Pin_21*%
%TO.N,Net-(J5-Pad21)*%
X58900000Y-47015000D03*
%TO.P,J5,22,Pin_22*%
%TO.N,/RS_{2}*%
X61440000Y-47015000D03*
%TO.P,J5,23,Pin_23*%
%TO.N,Net-(J5-Pad23)*%
X58900000Y-49555000D03*
%TO.P,J5,24,Pin_24*%
%TO.N,/RS_{3}*%
X61440000Y-49555000D03*
%TO.P,J5,25,Pin_25*%
%TO.N,Net-(J5-Pad25)*%
X58900000Y-52095000D03*
%TO.P,J5,26,Pin_26*%
%TO.N,/RS_{4}*%
X61440000Y-52095000D03*
%TO.P,J5,27,Pin_27*%
%TO.N,/RS_{7}*%
X58900000Y-54635000D03*
%TO.P,J5,28,Pin_28*%
%TO.N,/RS_{5}*%
X61440000Y-54635000D03*
%TO.P,J5,29,Pin_29*%
%TO.N,/RS_{6}*%
X58900000Y-57175000D03*
%TO.P,J5,30,Pin_30*%
%TO.N,GND*%
X61440000Y-57175000D03*
%TD*%
D10*
%TO.P,J6,1,Pin_1*%
%TO.N,VCC*%
X86400000Y-21650000D03*
D11*
%TO.P,J6,2,Pin_2*%
%TO.N,/RD_{0}*%
X88940000Y-21650000D03*
%TO.P,J6,3,Pin_3*%
%TO.N,/D_{0}*%
X86400000Y-24190000D03*
%TO.P,J6,4,Pin_4*%
%TO.N,/RD_{1}*%
X88940000Y-24190000D03*
%TO.P,J6,5,Pin_5*%
%TO.N,/D_{1}*%
X86400000Y-26730000D03*
%TO.P,J6,6,Pin_6*%
%TO.N,/RD_{2}*%
X88940000Y-26730000D03*
%TO.P,J6,7,Pin_7*%
%TO.N,/D_{2}*%
X86400000Y-29270000D03*
%TO.P,J6,8,Pin_8*%
%TO.N,/RD_{3}*%
X88940000Y-29270000D03*
%TO.P,J6,9,Pin_9*%
%TO.N,/D_{3}*%
X86400000Y-31810000D03*
%TO.P,J6,10,Pin_10*%
%TO.N,/RD_{4}*%
X88940000Y-31810000D03*
%TO.P,J6,11,Pin_11*%
%TO.N,/D_{4}*%
X86400000Y-34350000D03*
%TO.P,J6,12,Pin_12*%
%TO.N,/RD_{5}*%
X88940000Y-34350000D03*
%TO.P,J6,13,Pin_13*%
%TO.N,/D_{5}*%
X86400000Y-36890000D03*
%TO.P,J6,14,Pin_14*%
%TO.N,/RD_{6}*%
X88940000Y-36890000D03*
%TO.P,J6,15,Pin_15*%
%TO.N,/D_{6}*%
X86400000Y-39430000D03*
%TO.P,J6,16,Pin_16*%
%TO.N,/RD_{7}*%
X88940000Y-39430000D03*
%TO.P,J6,17,Pin_17*%
%TO.N,/D_{7}*%
X86400000Y-41970000D03*
%TO.P,J6,18,Pin_18*%
%TO.N,/RS_{0}*%
X88940000Y-41970000D03*
%TO.P,J6,19,Pin_19*%
%TO.N,/CLK*%
X86400000Y-44510000D03*
%TO.P,J6,20,Pin_20*%
%TO.N,/RS_{1}*%
X88940000Y-44510000D03*
%TO.P,J6,21,Pin_21*%
%TO.N,Net-(J6-Pad21)*%
X86400000Y-47050000D03*
%TO.P,J6,22,Pin_22*%
%TO.N,/RS_{2}*%
X88940000Y-47050000D03*
%TO.P,J6,23,Pin_23*%
%TO.N,Net-(J6-Pad23)*%
X86400000Y-49590000D03*
%TO.P,J6,24,Pin_24*%
%TO.N,/RS_{3}*%
X88940000Y-49590000D03*
%TO.P,J6,25,Pin_25*%
%TO.N,Net-(J6-Pad25)*%
X86400000Y-52130000D03*
%TO.P,J6,26,Pin_26*%
%TO.N,/RS_{4}*%
X88940000Y-52130000D03*
%TO.P,J6,27,Pin_27*%
%TO.N,/RS_{7}*%
X86400000Y-54670000D03*
%TO.P,J6,28,Pin_28*%
%TO.N,/RS_{5}*%
X88940000Y-54670000D03*
%TO.P,J6,29,Pin_29*%
%TO.N,/RS_{6}*%
X86400000Y-57210000D03*
%TO.P,J6,30,Pin_30*%
%TO.N,GND*%
X88940000Y-57210000D03*
%TD*%
D10*
%TO.P,J1,1,Pin_1*%
%TO.N,VCC*%
X20580000Y-56120000D03*
D11*
%TO.P,J1,2,Pin_2*%
%TO.N,Net-(J1-Pad2)*%
X23120000Y-56120000D03*
%TO.P,J1,3,Pin_3*%
%TO.N,Net-(J1-Pad3)*%
X20580000Y-58660000D03*
%TO.P,J1,4,Pin_4*%
%TO.N,Net-(J1-Pad4)*%
X23120000Y-58660000D03*
%TO.P,J1,5,Pin_5*%
%TO.N,/CLK*%
X20580000Y-61200000D03*
%TO.P,J1,6,Pin_6*%
%TO.N,GND*%
X23120000Y-61200000D03*
%TO.P,J1,7,Pin_7*%
%TO.N,Net-(J1-Pad7)*%
X20580000Y-63740000D03*
%TO.P,J1,8,Pin_8*%
%TO.N,Net-(J1-Pad8)*%
X23120000Y-63740000D03*
%TO.P,J1,9,Pin_9*%
%TO.N,Net-(J1-Pad9)*%
X20580000Y-66280000D03*
%TO.P,J1,10,Pin_10*%
%TO.N,Net-(J1-Pad10)*%
X23120000Y-66280000D03*
%TD*%
D14*
%TO.P,U4,1,~{E}*%
%TO.N,unconnected-(U4-Pad1)*%
X94600000Y-51330000D03*
D15*
%TO.P,U4,2,Q0*%
%TO.N,Net-(J8-Pad2)*%
X94600000Y-53870000D03*
%TO.P,U4,3,D0*%
%TO.N,/RS_{0}*%
X94600000Y-56410000D03*
%TO.P,U4,4,D1*%
%TO.N,/RS_{1}*%
X94600000Y-58950000D03*
%TO.P,U4,5,Q1*%
%TO.N,Net-(J8-Pad3)*%
X94600000Y-61490000D03*
%TO.P,U4,6,Q2*%
%TO.N,Net-(J8-Pad4)*%
X94600000Y-64030000D03*
%TO.P,U4,7,D2*%
%TO.N,/RS_{2}*%
X94600000Y-66570000D03*
%TO.P,U4,8,D3*%
%TO.N,/RS_{3}*%
X94600000Y-69110000D03*
%TO.P,U4,9,Q3*%
%TO.N,Net-(J8-Pad5)*%
X94600000Y-71650000D03*
%TO.P,U4,10,GND*%
%TO.N,GND*%
X94600000Y-74190000D03*
%TO.P,U4,11,CP*%
%TO.N,/CLK*%
X102220000Y-74190000D03*
%TO.P,U4,12,Q4*%
%TO.N,Net-(J8-Pad6)*%
X102220000Y-71650000D03*
%TO.P,U4,13,D4*%
%TO.N,/RS_{4}*%
X102220000Y-69110000D03*
%TO.P,U4,14,D5*%
%TO.N,/RS_{5}*%
X102220000Y-66570000D03*
%TO.P,U4,15,Q5*%
%TO.N,Net-(J8-Pad7)*%
X102220000Y-64030000D03*
%TO.P,U4,16,Q6*%
%TO.N,Net-(J8-Pad8)*%
X102220000Y-61490000D03*
%TO.P,U4,17,D6*%
%TO.N,/RS_{6}*%
X102220000Y-58950000D03*
%TO.P,U4,18,D7*%
%TO.N,/RS_{7}*%
X102220000Y-56410000D03*
%TO.P,U4,19,Q7*%
%TO.N,Net-(J8-Pad9)*%
X102220000Y-53870000D03*
%TO.P,U4,20,VCC*%
%TO.N,VCC*%
X102220000Y-51330000D03*
%TD*%
D12*
%TO.P,U2,1,E*%
%TO.N,Net-(J1-Pad4)*%
X71130000Y-73580000D03*
D13*
%TO.P,U2,2,A0*%
%TO.N,Net-(J1-Pad7)*%
X73670000Y-73580000D03*
%TO.P,U2,3,A1*%
%TO.N,Net-(J1-Pad8)*%
X76210000Y-73580000D03*
%TO.P,U2,4,O0*%
%TO.N,Net-(J3-Pad25)*%
X78750000Y-73580000D03*
%TO.P,U2,5,O1*%
%TO.N,Net-(J4-Pad25)*%
X81290000Y-73580000D03*
%TO.P,U2,6,O2*%
%TO.N,Net-(J5-Pad25)*%
X83830000Y-73580000D03*
%TO.P,U2,7,O3*%
%TO.N,Net-(J6-Pad25)*%
X86370000Y-73580000D03*
%TO.P,U2,8,GND*%
%TO.N,GND*%
X88910000Y-73580000D03*
%TO.P,U2,9*%
%TO.N,N/C*%
X88910000Y-65960000D03*
%TO.P,U2,10*%
X86370000Y-65960000D03*
%TO.P,U2,11*%
X83830000Y-65960000D03*
%TO.P,U2,12*%
X81290000Y-65960000D03*
%TO.P,U2,13*%
X78750000Y-65960000D03*
%TO.P,U2,14*%
X76210000Y-65960000D03*
%TO.P,U2,15*%
X73670000Y-65960000D03*
%TO.P,U2,16,VCC*%
%TO.N,VCC*%
X71130000Y-65960000D03*
%TD*%
D10*
%TO.P,J7,1,Pin_1*%
%TO.N,VCC*%
X111710000Y-21385000D03*
D11*
%TO.P,J7,2,Pin_2*%
%TO.N,Net-(J7-Pad2)*%
X111710000Y-23925000D03*
%TO.P,J7,3,Pin_3*%
%TO.N,Net-(J7-Pad3)*%
X111710000Y-26465000D03*
%TO.P,J7,4,Pin_4*%
%TO.N,Net-(J7-Pad4)*%
X111710000Y-29005000D03*
%TO.P,J7,5,Pin_5*%
%TO.N,Net-(J7-Pad5)*%
X111710000Y-31545000D03*
%TO.P,J7,6,Pin_6*%
%TO.N,Net-(J7-Pad6)*%
X111710000Y-34085000D03*
%TO.P,J7,7,Pin_7*%
%TO.N,Net-(J7-Pad7)*%
X111710000Y-36625000D03*
%TO.P,J7,8,Pin_8*%
%TO.N,Net-(J7-Pad8)*%
X111710000Y-39165000D03*
%TO.P,J7,9,Pin_9*%
%TO.N,Net-(J7-Pad9)*%
X111710000Y-41705000D03*
%TO.P,J7,10,Pin_10*%
%TO.N,GND*%
X111710000Y-44245000D03*
%TD*%
D10*
%TO.P,J2,1,Pin_1*%
%TO.N,GND*%
X19800000Y-44620000D03*
D11*
%TO.P,J2,2,Pin_2*%
%TO.N,/D_{7}*%
X19800000Y-42080000D03*
%TO.P,J2,3,Pin_3*%
%TO.N,/D_{6}*%
X19800000Y-39540000D03*
%TO.P,J2,4,Pin_4*%
%TO.N,/D_{5}*%
X19800000Y-37000000D03*
%TO.P,J2,5,Pin_5*%
%TO.N,/D_{4}*%
X19800000Y-34460000D03*
%TO.P,J2,6,Pin_6*%
%TO.N,/D_{3}*%
X19800000Y-31920000D03*
%TO.P,J2,7,Pin_7*%
%TO.N,/D_{2}*%
X19800000Y-29380000D03*
%TO.P,J2,8,Pin_8*%
%TO.N,/D_{1}*%
X19800000Y-26840000D03*
%TO.P,J2,9,Pin_9*%
%TO.N,/D_{0}*%
X19800000Y-24300000D03*
%TO.P,J2,10,Pin_10*%
%TO.N,VCC*%
X19800000Y-21760000D03*
%TD*%
D10*
%TO.P,J3,1,Pin_1*%
%TO.N,VCC*%
X45150000Y-21745000D03*
D11*
%TO.P,J3,2,Pin_2*%
%TO.N,/RD_{0}*%
X47690000Y-21745000D03*
%TO.P,J3,3,Pin_3*%
%TO.N,/D_{0}*%
X45150000Y-24285000D03*
%TO.P,J3,4,Pin_4*%
%TO.N,/RD_{1}*%
X47690000Y-24285000D03*
%TO.P,J3,5,Pin_5*%
%TO.N,/D_{1}*%
X45150000Y-26825000D03*
%TO.P,J3,6,Pin_6*%
%TO.N,/RD_{2}*%
X47690000Y-26825000D03*
%TO.P,J3,7,Pin_7*%
%TO.N,/D_{2}*%
X45150000Y-29365000D03*
%TO.P,J3,8,Pin_8*%
%TO.N,/RD_{3}*%
X47690000Y-29365000D03*
%TO.P,J3,9,Pin_9*%
%TO.N,/D_{3}*%
X45150000Y-31905000D03*
%TO.P,J3,10,Pin_10*%
%TO.N,/RD_{4}*%
X47690000Y-31905000D03*
%TO.P,J3,11,Pin_11*%
%TO.N,/D_{4}*%
X45150000Y-34445000D03*
%TO.P,J3,12,Pin_12*%
%TO.N,/RD_{5}*%
X47690000Y-34445000D03*
%TO.P,J3,13,Pin_13*%
%TO.N,/D_{5}*%
X45150000Y-36985000D03*
%TO.P,J3,14,Pin_14*%
%TO.N,/RD_{6}*%
X47690000Y-36985000D03*
%TO.P,J3,15,Pin_15*%
%TO.N,/D_{6}*%
X45150000Y-39525000D03*
%TO.P,J3,16,Pin_16*%
%TO.N,/RD_{7}*%
X47690000Y-39525000D03*
%TO.P,J3,17,Pin_17*%
%TO.N,/D_{7}*%
X45150000Y-42065000D03*
%TO.P,J3,18,Pin_18*%
%TO.N,/RS_{0}*%
X47690000Y-42065000D03*
%TO.P,J3,19,Pin_19*%
%TO.N,/CLK*%
X45150000Y-44605000D03*
%TO.P,J3,20,Pin_20*%
%TO.N,/RS_{1}*%
X47690000Y-44605000D03*
%TO.P,J3,21,Pin_21*%
%TO.N,Net-(J3-Pad21)*%
X45150000Y-47145000D03*
%TO.P,J3,22,Pin_22*%
%TO.N,/RS_{2}*%
X47690000Y-47145000D03*
%TO.P,J3,23,Pin_23*%
%TO.N,Net-(J3-Pad23)*%
X45150000Y-49685000D03*
%TO.P,J3,24,Pin_24*%
%TO.N,/RS_{3}*%
X47690000Y-49685000D03*
%TO.P,J3,25,Pin_25*%
%TO.N,Net-(J3-Pad25)*%
X45150000Y-52225000D03*
%TO.P,J3,26,Pin_26*%
%TO.N,/RS_{4}*%
X47690000Y-52225000D03*
%TO.P,J3,27,Pin_27*%
%TO.N,/RS_{7}*%
X45150000Y-54765000D03*
%TO.P,J3,28,Pin_28*%
%TO.N,/RS_{5}*%
X47690000Y-54765000D03*
%TO.P,J3,29,Pin_29*%
%TO.N,/RS_{6}*%
X45150000Y-57305000D03*
%TO.P,J3,30,Pin_30*%
%TO.N,GND*%
X47690000Y-57305000D03*
%TD*%
D14*
%TO.P,U3,1,~{E}*%
%TO.N,Net-(J1-Pad3)*%
X95010000Y-21655000D03*
D15*
%TO.P,U3,2,Q0*%
%TO.N,Net-(J7-Pad2)*%
X95010000Y-24195000D03*
%TO.P,U3,3,D0*%
%TO.N,/RD_{0}*%
X95010000Y-26735000D03*
%TO.P,U3,4,D1*%
%TO.N,/RD_{1}*%
X95010000Y-29275000D03*
%TO.P,U3,5,Q1*%
%TO.N,Net-(J7-Pad3)*%
X95010000Y-31815000D03*
%TO.P,U3,6,Q2*%
%TO.N,Net-(J7-Pad4)*%
X95010000Y-34355000D03*
%TO.P,U3,7,D2*%
%TO.N,/RD_{2}*%
X95010000Y-36895000D03*
%TO.P,U3,8,D3*%
%TO.N,/RD_{3}*%
X95010000Y-39435000D03*
%TO.P,U3,9,Q3*%
%TO.N,Net-(J7-Pad5)*%
X95010000Y-41975000D03*
%TO.P,U3,10,GND*%
%TO.N,GND*%
X95010000Y-44515000D03*
%TO.P,U3,11,CP*%
%TO.N,/CLK*%
X102630000Y-44515000D03*
%TO.P,U3,12,Q4*%
%TO.N,Net-(J7-Pad6)*%
X102630000Y-41975000D03*
%TO.P,U3,13,D4*%
%TO.N,/RD_{4}*%
X102630000Y-39435000D03*
%TO.P,U3,14,D5*%
%TO.N,/RD_{5}*%
X102630000Y-36895000D03*
%TO.P,U3,15,Q5*%
%TO.N,Net-(J7-Pad7)*%
X102630000Y-34355000D03*
%TO.P,U3,16,Q6*%
%TO.N,Net-(J7-Pad8)*%
X102630000Y-31815000D03*
%TO.P,U3,17,D6*%
%TO.N,/RD_{6}*%
X102630000Y-29275000D03*
%TO.P,U3,18,D7*%
%TO.N,/RD_{7}*%
X102630000Y-26735000D03*
%TO.P,U3,19,Q7*%
%TO.N,Net-(J7-Pad9)*%
X102630000Y-24195000D03*
%TO.P,U3,20,VCC*%
%TO.N,VCC*%
X102630000Y-21655000D03*
%TD*%
D16*
%TO.N,/RS_{6}*%
X58544100Y-59132200D03*
%TO.N,/RS_{5}*%
X57575400Y-55370600D03*
X83280700Y-60306500D03*
X90338500Y-60855400D03*
%TO.N,Net-(J3-Pad25)*%
X51659900Y-58127400D03*
%TO.N,Net-(J4-Pad23)*%
X61641300Y-61999900D03*
%TD*%
D17*
%TO.N,VCC*%
X19800000Y-22935100D02*
X20167200Y-22935100D01*
X60075100Y-21615000D02*
X60075100Y-21982200D01*
X19800000Y-21760000D02*
X19800000Y-22935100D01*
X39710000Y-63854900D02*
X30404800Y-54549700D01*
X111180000Y-51135000D02*
X111180000Y-49959900D01*
X113406700Y-23889600D02*
X113406700Y-47733200D01*
X58900000Y-21615000D02*
X60075100Y-21615000D01*
X111710000Y-22560100D02*
X112077200Y-22560100D01*
X63251800Y-21615000D02*
X72650000Y-21615000D01*
X112077200Y-22560100D02*
X113406700Y-23889600D01*
X30404800Y-54549700D02*
X20975200Y-54549700D01*
X62062600Y-22804200D02*
X63251800Y-21615000D01*
X60897100Y-22804200D02*
X62062600Y-22804200D01*
X20580000Y-56120000D02*
X20580000Y-54944900D01*
X39710000Y-65380000D02*
X39710000Y-63854900D01*
X113406700Y-47733200D02*
X111180000Y-49959900D01*
X20167200Y-22935100D02*
X20975200Y-23743100D01*
X20975200Y-54549700D02*
X20580000Y-54944900D01*
X111710000Y-21385000D02*
X111710000Y-22560100D01*
X60075100Y-21982200D02*
X60897100Y-22804200D01*
X20975200Y-23743100D02*
X20975200Y-54549700D01*
%TO.N,Net-(J1-Pad2)*%
X25530200Y-57295100D02*
X39710000Y-71474900D01*
X23120000Y-56120000D02*
X23120000Y-57295100D01*
X23120000Y-57295100D02*
X25530200Y-57295100D01*
X39710000Y-73000000D02*
X39710000Y-71474900D01*
%TO.N,Net-(J1-Pad3)*%
X42250000Y-45825500D02*
X44740500Y-43335000D01*
X56783200Y-34635600D02*
X56783200Y-21490200D01*
X91811700Y-19981800D02*
X93484900Y-21655000D01*
X42250000Y-65380000D02*
X42250000Y-45825500D01*
X58291600Y-19981800D02*
X91811700Y-19981800D01*
X95010000Y-21655000D02*
X93484900Y-21655000D01*
X48083800Y-43335000D02*
X56783200Y-34635600D01*
X56783200Y-21490200D02*
X58291600Y-19981800D01*
X44740500Y-43335000D02*
X48083800Y-43335000D01*
%TO.N,Net-(J1-Pad4)*%
X71130000Y-73580000D02*
X71130000Y-75105100D01*
X23120000Y-58936200D02*
X40132800Y-75949000D01*
X70286100Y-75949000D02*
X71130000Y-75105100D01*
X40132800Y-75949000D02*
X70286100Y-75949000D01*
X23120000Y-58660000D02*
X23120000Y-58936200D01*
%TO.N,/CLK*%
X100694800Y-64538200D02*
X101311800Y-65155200D01*
X60075100Y-44842200D02*
X60902100Y-45669200D01*
X70280700Y-45669200D02*
X71474900Y-44475000D01*
X56377900Y-45822000D02*
X57724900Y-44475000D01*
X102630000Y-44515000D02*
X101104900Y-44515000D01*
X101104900Y-44515000D02*
X100694800Y-44925100D01*
X101311800Y-65155200D02*
X102803300Y-65155200D01*
X58900000Y-44475000D02*
X60075100Y-44475000D01*
X103745100Y-66097000D02*
X103745100Y-74190000D01*
X102220000Y-74190000D02*
X103745100Y-74190000D01*
X60902100Y-45669200D02*
X70280700Y-45669200D01*
X102803300Y-65155200D02*
X103745100Y-66097000D01*
X58900000Y-44475000D02*
X57724900Y-44475000D01*
X47174900Y-45822000D02*
X56377900Y-45822000D01*
X45150000Y-44605000D02*
X46325100Y-44605000D01*
X100694800Y-44925100D02*
X100694800Y-64538200D01*
X46325100Y-44972200D02*
X47174900Y-45822000D01*
X60075100Y-44475000D02*
X60075100Y-44842200D01*
X72650000Y-44475000D02*
X71474900Y-44475000D01*
X46325100Y-44605000D02*
X46325100Y-44972200D01*
%TO.N,GND*%
X90038300Y-70926600D02*
X88910000Y-72054900D01*
X19589200Y-57295200D02*
X19404800Y-57110800D01*
X88940000Y-60482200D02*
X90038300Y-61580500D01*
X88940000Y-57210000D02*
X88940000Y-58385100D01*
X23120000Y-61200000D02*
X23120000Y-60024900D01*
X19404800Y-46190300D02*
X19800000Y-45795100D01*
X60916200Y-58873900D02*
X60916200Y-68048700D01*
X19800000Y-44620000D02*
X19800000Y-45795100D01*
X61440000Y-57175000D02*
X61440000Y-58350100D01*
X57490000Y-73000000D02*
X57490000Y-71474900D01*
X88940000Y-58385100D02*
X88940000Y-60482200D01*
X21944900Y-58360000D02*
X20880100Y-57295200D01*
X19404800Y-57110800D02*
X19404800Y-46190300D01*
X90038300Y-61580500D02*
X90038300Y-70926600D01*
X60916200Y-68048700D02*
X57490000Y-71474900D01*
X23120000Y-60024900D02*
X22752700Y-60024900D01*
X20880100Y-57295200D02*
X19589200Y-57295200D01*
X88910000Y-73580000D02*
X88910000Y-72054900D01*
X21944900Y-59217100D02*
X21944900Y-58360000D01*
X22752700Y-60024900D02*
X21944900Y-59217100D01*
X61440000Y-58350100D02*
X60916200Y-58873900D01*
%TO.N,Net-(J1-Pad9)*%
X44790000Y-66905100D02*
X42250000Y-69445100D01*
X44790000Y-65380000D02*
X44790000Y-66905100D01*
X42250000Y-69445100D02*
X42250000Y-73000000D01*
%TO.N,Net-(J1-Pad10)*%
X47330000Y-66905100D02*
X44790000Y-69445100D01*
X44790000Y-69445100D02*
X44790000Y-73000000D01*
X47330000Y-65380000D02*
X47330000Y-66905100D01*
%TO.N,/D_{7}*%
X60075100Y-42302200D02*
X60885200Y-43112300D01*
X60885200Y-43112300D02*
X62711000Y-43112300D01*
X58900000Y-41935000D02*
X60075100Y-41935000D01*
X62711000Y-43112300D02*
X63888300Y-41935000D01*
X60075100Y-41935000D02*
X60075100Y-42302200D01*
X63888300Y-41935000D02*
X72650000Y-41935000D01*
%TO.N,/D_{6}*%
X58900000Y-39395000D02*
X60075100Y-39395000D01*
X62711000Y-40572300D02*
X63888300Y-39395000D01*
X60885200Y-40572300D02*
X62711000Y-40572300D01*
X60075100Y-39762200D02*
X60885200Y-40572300D01*
X60075100Y-39395000D02*
X60075100Y-39762200D01*
X63888300Y-39395000D02*
X72650000Y-39395000D01*
%TO.N,/D_{5}*%
X63888300Y-36855000D02*
X72650000Y-36855000D01*
X60075100Y-37222200D02*
X60885200Y-38032300D01*
X58900000Y-36855000D02*
X60075100Y-36855000D01*
X60075100Y-36855000D02*
X60075100Y-37222200D01*
X62711000Y-38032300D02*
X63888300Y-36855000D01*
X60885200Y-38032300D02*
X62711000Y-38032300D01*
%TO.N,/D_{4}*%
X62711000Y-35492300D02*
X63888300Y-34315000D01*
X60075100Y-34682200D02*
X60885200Y-35492300D01*
X60885200Y-35492300D02*
X62711000Y-35492300D01*
X60075100Y-34315000D02*
X60075100Y-34682200D01*
X58900000Y-34315000D02*
X60075100Y-34315000D01*
X63888300Y-34315000D02*
X72650000Y-34315000D01*
%TO.N,/D_{3}*%
X62711000Y-32952300D02*
X63888300Y-31775000D01*
X60885200Y-32952300D02*
X62711000Y-32952300D01*
X63888300Y-31775000D02*
X72650000Y-31775000D01*
X60075100Y-32142200D02*
X60885200Y-32952300D01*
X58900000Y-31775000D02*
X60075100Y-31775000D01*
X60075100Y-31775000D02*
X60075100Y-32142200D01*
%TO.N,/D_{2}*%
X60075100Y-29235000D02*
X60075100Y-29602200D01*
X63888300Y-29235000D02*
X72650000Y-29235000D01*
X60885200Y-30412300D02*
X62711000Y-30412300D01*
X62711000Y-30412300D02*
X63888300Y-29235000D01*
X58900000Y-29235000D02*
X60075100Y-29235000D01*
X60075100Y-29602200D02*
X60885200Y-30412300D01*
%TO.N,/D_{1}*%
X60075100Y-26695000D02*
X60075100Y-27062200D01*
X58900000Y-26695000D02*
X60075100Y-26695000D01*
X60885200Y-27872300D02*
X62711000Y-27872300D01*
X63888300Y-26695000D02*
X72650000Y-26695000D01*
X60075100Y-27062200D02*
X60885200Y-27872300D01*
X62711000Y-27872300D02*
X63888300Y-26695000D01*
%TO.N,/D_{0}*%
X60075100Y-24155000D02*
X60075100Y-24522200D01*
X60885200Y-25332300D02*
X62711000Y-25332300D01*
X60075100Y-24522200D02*
X60885200Y-25332300D01*
X63888300Y-24155000D02*
X72650000Y-24155000D01*
X62711000Y-25332300D02*
X63888300Y-24155000D01*
X58900000Y-24155000D02*
X60075100Y-24155000D01*
%TO.N,/RS_{6}*%
X58544100Y-58706000D02*
X58544100Y-59132200D01*
X58900000Y-57175000D02*
X58900000Y-58350100D01*
X58900000Y-58350100D02*
X58544100Y-58706000D01*
%TO.N,/RS_{5}*%
X75190000Y-54635000D02*
X77609200Y-54635000D01*
X90338500Y-60855400D02*
X90338500Y-56878400D01*
X60264900Y-55000200D02*
X59426900Y-55838200D01*
X60264900Y-54635000D02*
X60264900Y-55000200D01*
X77609200Y-54635000D02*
X83280700Y-60306500D01*
X88940000Y-54670000D02*
X88940000Y-55845100D01*
X61440000Y-54635000D02*
X60264900Y-54635000D01*
X59426900Y-55838200D02*
X58043000Y-55838200D01*
X58043000Y-55838200D02*
X57575400Y-55370600D01*
X90338500Y-56878400D02*
X89305200Y-55845100D01*
X89305200Y-55845100D02*
X88940000Y-55845100D01*
%TO.N,/RS_{4}*%
X89307200Y-53305100D02*
X91553300Y-55551200D01*
X102220000Y-69110000D02*
X100694900Y-69110000D01*
X88940000Y-52130000D02*
X88940000Y-53305100D01*
X93628000Y-70300500D02*
X99504400Y-70300500D01*
X91553300Y-55551200D02*
X91553300Y-68225800D01*
X99504400Y-70300500D02*
X100694900Y-69110000D01*
X88940000Y-53305100D02*
X89307200Y-53305100D01*
X91553300Y-68225800D02*
X93628000Y-70300500D01*
%TO.N,/RS_{3}*%
X88940000Y-49590000D02*
X88940000Y-50765100D01*
X89307200Y-50765100D02*
X92174700Y-53632600D01*
X92174700Y-53632600D02*
X92174700Y-68209800D01*
X92174700Y-68209800D02*
X93074900Y-69110000D01*
X88940000Y-50765100D02*
X89307200Y-50765100D01*
X94600000Y-69110000D02*
X93074900Y-69110000D01*
%TO.N,/RS_{2}*%
X88940000Y-48225100D02*
X89305200Y-48225100D01*
X92624800Y-66119900D02*
X93074900Y-66570000D01*
X89305200Y-48225100D02*
X92624800Y-51544700D01*
X94600000Y-66570000D02*
X93074900Y-66570000D01*
X88940000Y-47050000D02*
X88940000Y-48225100D01*
X92624800Y-51544700D02*
X92624800Y-66119900D01*
%TO.N,/RS_{1}*%
X62615100Y-44475000D02*
X63805700Y-43284400D01*
X93074900Y-49454800D02*
X89305200Y-45685100D01*
X73189500Y-43284400D02*
X74014900Y-44109800D01*
X88940000Y-44510000D02*
X88940000Y-45685100D01*
X94600000Y-58950000D02*
X93074900Y-58950000D01*
X61440000Y-44475000D02*
X62615100Y-44475000D01*
X63805700Y-43284400D02*
X73189500Y-43284400D01*
X74014900Y-44109800D02*
X74014900Y-44475000D01*
X93074900Y-58950000D02*
X93074900Y-49454800D01*
X89305200Y-45685100D02*
X88940000Y-45685100D01*
X75190000Y-44475000D02*
X74014900Y-44475000D01*
%TO.N,/RS_{0}*%
X73189500Y-40744400D02*
X74014900Y-41569800D01*
X89307200Y-43145100D02*
X96125100Y-49963000D01*
X75190000Y-41935000D02*
X74014900Y-41935000D01*
X88940000Y-41970000D02*
X88940000Y-43145100D01*
X74014900Y-41569800D02*
X74014900Y-41935000D01*
X62615100Y-41935000D02*
X63805700Y-40744400D01*
X63805700Y-40744400D02*
X73189500Y-40744400D01*
X88940000Y-43145100D02*
X89307200Y-43145100D01*
X96125100Y-49963000D02*
X96125100Y-56410000D01*
X94600000Y-56410000D02*
X96125100Y-56410000D01*
X61440000Y-41935000D02*
X62615100Y-41935000D01*
%TO.N,/RD_{7}*%
X101104900Y-35370500D02*
X95870400Y-40605000D01*
X62615100Y-39395000D02*
X63805700Y-38204400D01*
X104155100Y-29746700D02*
X103356800Y-30545000D01*
X103356800Y-30545000D02*
X101892000Y-30545000D01*
X75190000Y-39395000D02*
X74014900Y-39395000D01*
X63805700Y-38204400D02*
X73189500Y-38204400D01*
X73189500Y-38204400D02*
X74014900Y-39029800D01*
X88940000Y-39430000D02*
X90115100Y-39430000D01*
X95870400Y-40605000D02*
X91290100Y-40605000D01*
X101892000Y-30545000D02*
X101104900Y-31332100D01*
X104155100Y-26735000D02*
X104155100Y-29746700D01*
X102630000Y-26735000D02*
X104155100Y-26735000D01*
X61440000Y-39395000D02*
X62615100Y-39395000D01*
X74014900Y-39029800D02*
X74014900Y-39395000D01*
X91290100Y-40605000D02*
X90115100Y-39430000D01*
X101104900Y-31332100D02*
X101104900Y-35370500D01*
%TO.N,/RD_{6}*%
X75190000Y-36855000D02*
X74014900Y-36855000D01*
X61440000Y-36855000D02*
X62615100Y-36855000D01*
X74014900Y-36489800D02*
X74014900Y-36855000D01*
X102630000Y-29275000D02*
X101104900Y-29275000D01*
X63805700Y-35664400D02*
X73189500Y-35664400D01*
X99803000Y-30576900D02*
X99803000Y-34101300D01*
X62615100Y-36855000D02*
X63805700Y-35664400D01*
X101104900Y-29275000D02*
X99803000Y-30576900D01*
X95864400Y-38039900D02*
X93304600Y-38039900D01*
X73189500Y-35664400D02*
X74014900Y-36489800D01*
X93304600Y-38039900D02*
X92154700Y-36890000D01*
X99803000Y-34101300D02*
X95864400Y-38039900D01*
X92154700Y-36890000D02*
X88940000Y-36890000D01*
%TO.N,/RD_{5}*%
X73189500Y-33124400D02*
X74014900Y-33949800D01*
X61440000Y-34315000D02*
X62615100Y-34315000D01*
X63805700Y-33124400D02*
X73189500Y-33124400D01*
X74014900Y-33949800D02*
X74014900Y-34315000D01*
X62615100Y-34315000D02*
X63805700Y-33124400D01*
X75190000Y-34315000D02*
X74014900Y-34315000D01*
%TO.N,/RD_{4}*%
X74014900Y-31409800D02*
X74014900Y-31775000D01*
X61440000Y-31775000D02*
X62615100Y-31775000D01*
X62615100Y-31775000D02*
X63805700Y-30584400D01*
X75190000Y-31775000D02*
X74014900Y-31775000D01*
X63805700Y-30584400D02*
X73189500Y-30584400D01*
X73189500Y-30584400D02*
X74014900Y-31409800D01*
%TO.N,/RD_{3}*%
X88940000Y-29270000D02*
X88940000Y-30445100D01*
X61440000Y-29235000D02*
X62615100Y-29235000D01*
X73189500Y-28044400D02*
X74014900Y-28869800D01*
X74014900Y-28869800D02*
X74014900Y-29235000D01*
X95010000Y-39435000D02*
X93484900Y-39435000D01*
X88574700Y-30445100D02*
X88940000Y-30445100D01*
X93484900Y-39435000D02*
X92270100Y-38220200D01*
X75190000Y-29235000D02*
X74014900Y-29235000D01*
X92270100Y-38220200D02*
X88571300Y-38220200D01*
X63805700Y-28044400D02*
X73189500Y-28044400D01*
X87763300Y-31256500D02*
X88574700Y-30445100D01*
X62615100Y-29235000D02*
X63805700Y-28044400D01*
X87763300Y-37412200D02*
X87763300Y-31256500D01*
X88571300Y-38220200D02*
X87763300Y-37412200D01*
%TO.N,/RD_{2}*%
X93484900Y-32084800D02*
X89305200Y-27905100D01*
X88940000Y-26730000D02*
X88940000Y-27905100D01*
X95010000Y-36895000D02*
X93484900Y-36895000D01*
X73189500Y-25504400D02*
X74014900Y-26329800D01*
X62615100Y-26695000D02*
X63805700Y-25504400D01*
X93484900Y-36895000D02*
X93484900Y-32084800D01*
X61440000Y-26695000D02*
X62615100Y-26695000D01*
X89305200Y-27905100D02*
X88940000Y-27905100D01*
X63805700Y-25504400D02*
X73189500Y-25504400D01*
X75190000Y-26695000D02*
X74014900Y-26695000D01*
X74014900Y-26329800D02*
X74014900Y-26695000D01*
%TO.N,/RD_{1}*%
X75190000Y-24155000D02*
X76365100Y-24155000D01*
X74014900Y-23789800D02*
X74014900Y-24155000D01*
X62615100Y-24155000D02*
X63808400Y-22961700D01*
X88940000Y-24190000D02*
X87764900Y-24190000D01*
X87764900Y-23824800D02*
X87764900Y-24190000D01*
X90115100Y-24190000D02*
X90115100Y-25905200D01*
X95010000Y-29275000D02*
X93484900Y-29275000D01*
X75190000Y-24155000D02*
X74014900Y-24155000D01*
X76365100Y-24155000D02*
X77517200Y-23002900D01*
X73186800Y-22961700D02*
X74014900Y-23789800D01*
X86943000Y-23002900D02*
X87764900Y-23824800D01*
X63808400Y-22961700D02*
X73186800Y-22961700D01*
X90115100Y-25905200D02*
X93484900Y-29275000D01*
X88940000Y-24190000D02*
X90115100Y-24190000D01*
X61440000Y-24155000D02*
X62615100Y-24155000D01*
X77517200Y-23002900D02*
X86943000Y-23002900D01*
%TO.N,/RD_{0}*%
X95010000Y-26735000D02*
X93484900Y-26735000D01*
X88940000Y-21650000D02*
X87764900Y-21650000D01*
X62615100Y-21615000D02*
X63790300Y-20439800D01*
X75190000Y-21615000D02*
X74014900Y-21615000D01*
X87420700Y-20474800D02*
X87764900Y-20819000D01*
X87764900Y-20819000D02*
X87764900Y-21650000D01*
X90115100Y-21650000D02*
X90115100Y-23365200D01*
X61440000Y-21615000D02*
X62615100Y-21615000D01*
X77505300Y-20474800D02*
X87420700Y-20474800D01*
X76365100Y-21615000D02*
X77505300Y-20474800D01*
X73670700Y-20439800D02*
X74014900Y-20784000D01*
X74014900Y-20784000D02*
X74014900Y-21615000D01*
X90115100Y-23365200D02*
X93484900Y-26735000D01*
X75190000Y-21615000D02*
X76365100Y-21615000D01*
X63790300Y-20439800D02*
X73670700Y-20439800D01*
X88940000Y-21650000D02*
X90115100Y-21650000D01*
%TO.N,Net-(J3-Pad21)*%
X47330000Y-73000000D02*
X47330000Y-71474900D01*
X45150000Y-48320100D02*
X44784700Y-48320100D01*
X43503100Y-59501400D02*
X48520600Y-64518900D01*
X45150000Y-47145000D02*
X45150000Y-48320100D01*
X48520600Y-70284300D02*
X47330000Y-71474900D01*
X48520600Y-64518900D02*
X48520600Y-70284300D01*
X44784700Y-48320100D02*
X43503100Y-49601700D01*
X43503100Y-49601700D02*
X43503100Y-59501400D01*
%TO.N,Net-(J3-Pad23)*%
X49870000Y-65380000D02*
X49870000Y-63854900D01*
X44782800Y-50860100D02*
X43957000Y-51685900D01*
X45150000Y-50860100D02*
X44782800Y-50860100D01*
X43957000Y-57941900D02*
X49870000Y-63854900D01*
X45150000Y-49685000D02*
X45150000Y-50860100D01*
X43957000Y-51685900D02*
X43957000Y-57941900D01*
%TO.N,Net-(J3-Pad25)*%
X47132900Y-53400100D02*
X48009400Y-53400100D01*
X48009400Y-53400100D02*
X51659900Y-57050600D01*
X46325100Y-52225000D02*
X46325100Y-52592300D01*
X46325100Y-52592300D02*
X47132900Y-53400100D01*
X45150000Y-52225000D02*
X46325100Y-52225000D01*
X51659900Y-57050600D02*
X51659900Y-58127400D01*
%TO.N,Net-(J4-Pad21)*%
X61009100Y-55905000D02*
X62584900Y-55905000D01*
X53680000Y-70422700D02*
X56107500Y-67995200D01*
X49870000Y-74525100D02*
X52877800Y-74525100D01*
X53680000Y-73722900D02*
X53680000Y-70422700D01*
X60264800Y-58437000D02*
X60264800Y-56649300D01*
X72650000Y-47015000D02*
X71474900Y-47015000D01*
X52877800Y-74525100D02*
X53680000Y-73722900D01*
X62584900Y-55905000D02*
X71474900Y-47015000D01*
X56107500Y-67995200D02*
X56107500Y-62594300D01*
X49870000Y-73000000D02*
X49870000Y-74525100D01*
X60264800Y-56649300D02*
X61009100Y-55905000D01*
X56107500Y-62594300D02*
X60264800Y-58437000D01*
%TO.N,Net-(J4-Pad23)*%
X61641300Y-60563700D02*
X72650000Y-49555000D01*
X61641300Y-61999900D02*
X61641300Y-60563700D01*
%TO.N,Net-(J4-Pad25)*%
X81290000Y-73580000D02*
X81290000Y-72054900D01*
X72650000Y-52095000D02*
X72650000Y-53270100D01*
X75084800Y-62208900D02*
X73920000Y-61044100D01*
X75084800Y-66898200D02*
X75084800Y-62208900D01*
X80241500Y-72054900D02*
X75084800Y-66898200D01*
X73920000Y-61044100D02*
X73920000Y-54174900D01*
X73015200Y-53270100D02*
X72650000Y-53270100D01*
X81290000Y-72054900D02*
X80241500Y-72054900D01*
X73920000Y-54174900D02*
X73015200Y-53270100D01*
%TO.N,Net-(J5-Pad21)*%
X58532800Y-48190100D02*
X53680000Y-53042900D01*
X52410000Y-70838300D02*
X52410000Y-71474900D01*
X53680000Y-53042900D02*
X53680000Y-69568300D01*
X53680000Y-69568300D02*
X52410000Y-70838300D01*
X58900000Y-48190100D02*
X58532800Y-48190100D01*
X52410000Y-73000000D02*
X52410000Y-71474900D01*
X58900000Y-47015000D02*
X58900000Y-48190100D01*
%TO.N,Net-(J5-Pad23)*%
X58900000Y-49555000D02*
X58900000Y-50730100D01*
X58532800Y-50730100D02*
X54950000Y-54312900D01*
X58900000Y-50730100D02*
X58532800Y-50730100D01*
X54950000Y-54312900D02*
X54950000Y-65380000D01*
%TO.N,Net-(J5-Pad25)*%
X58395600Y-45828900D02*
X59413000Y-45828900D01*
X72076800Y-72054800D02*
X63281900Y-72054800D01*
X60093300Y-46509200D02*
X60093300Y-50901700D01*
X59837800Y-75498900D02*
X50168900Y-75498900D01*
X51066100Y-68396600D02*
X51066100Y-64115100D01*
X63281900Y-72054800D02*
X59837800Y-75498900D01*
X83830000Y-73580000D02*
X83830000Y-75105100D01*
X48691400Y-74021400D02*
X48691400Y-70771300D01*
X72357500Y-72335500D02*
X72076800Y-72054800D01*
X50168900Y-75498900D02*
X48691400Y-74021400D01*
X73630700Y-75574100D02*
X72357500Y-74300900D01*
X53089600Y-62091600D02*
X53089600Y-51134900D01*
X59413000Y-45828900D02*
X60093300Y-46509200D01*
X53089600Y-51134900D02*
X58395600Y-45828900D01*
X72357500Y-74300900D02*
X72357500Y-72335500D01*
X48691400Y-70771300D02*
X51066100Y-68396600D01*
X83361000Y-75574100D02*
X73630700Y-75574100D01*
X83830000Y-75105100D02*
X83361000Y-75574100D01*
X60093300Y-50901700D02*
X58900000Y-52095000D01*
X51066100Y-64115100D02*
X53089600Y-62091600D01*
%TO.N,Net-(J6-Pad21)*%
X82560000Y-72650000D02*
X82560000Y-74322500D01*
X85971000Y-50860000D02*
X85100000Y-51731000D01*
X86400000Y-47050000D02*
X86400000Y-48225100D01*
X55473700Y-75048800D02*
X54950000Y-74525100D01*
X85100000Y-70110000D02*
X82560000Y-72650000D01*
X86830900Y-50860000D02*
X85971000Y-50860000D01*
X86400000Y-48225100D02*
X86767200Y-48225100D01*
X87575200Y-49033100D02*
X87575200Y-50115700D01*
X86767200Y-48225100D02*
X87575200Y-49033100D01*
X82560000Y-74322500D02*
X81777400Y-75105100D01*
X73688800Y-71604700D02*
X61859700Y-71604700D01*
X74940000Y-74308700D02*
X74940000Y-72855900D01*
X54950000Y-73000000D02*
X54950000Y-74525100D01*
X87575200Y-50115700D02*
X86830900Y-50860000D01*
X61859700Y-71604700D02*
X58415600Y-75048800D01*
X74940000Y-72855900D02*
X73688800Y-71604700D01*
X85100000Y-51731000D02*
X85100000Y-70110000D01*
X58415600Y-75048800D02*
X55473700Y-75048800D01*
X81777400Y-75105100D02*
X75736400Y-75105100D01*
X75736400Y-75105100D02*
X74940000Y-74308700D01*
%TO.N,Net-(J6-Pad23)*%
X56316400Y-73880100D02*
X56316400Y-72011800D01*
X68189000Y-64306200D02*
X57947500Y-74547700D01*
X84049800Y-50765100D02*
X72302600Y-50765100D01*
X68189000Y-54878700D02*
X68189000Y-64306200D01*
X56316400Y-72011800D02*
X57490000Y-70838200D01*
X56984000Y-74547700D02*
X56316400Y-73880100D01*
X72302600Y-50765100D02*
X68189000Y-54878700D01*
X57947500Y-74547700D02*
X56984000Y-74547700D01*
X86400000Y-49590000D02*
X85224900Y-49590000D01*
X85224900Y-49590000D02*
X84049800Y-50765100D01*
X57490000Y-70838200D02*
X57490000Y-65380000D01*
%TO.N,Net-(J6-Pad25)*%
X86370000Y-73580000D02*
X86370000Y-72054900D01*
X87590600Y-54130500D02*
X86765200Y-53305100D01*
X86400000Y-52130000D02*
X86400000Y-53305100D01*
X86370000Y-72054900D02*
X87590600Y-70834300D01*
X87590600Y-70834300D02*
X87590600Y-54130500D01*
X86765200Y-53305100D02*
X86400000Y-53305100D01*
%TO.N,Net-(J7-Pad4)*%
X110534900Y-29005000D02*
X107133700Y-25603800D01*
X101709400Y-25603800D02*
X96535100Y-30778100D01*
X107133700Y-25603800D02*
X101709400Y-25603800D01*
X96535100Y-30778100D02*
X96535100Y-34355000D01*
X111710000Y-29005000D02*
X110534900Y-29005000D01*
X95010000Y-34355000D02*
X96535100Y-34355000D01*
%TO.N,Net-(J7-Pad5)*%
X103914900Y-38165000D02*
X100345100Y-38165000D01*
X95010000Y-41975000D02*
X96535100Y-41975000D01*
X100345100Y-38165000D02*
X96535100Y-41975000D01*
X111710000Y-31545000D02*
X110534900Y-31545000D01*
X110534900Y-31545000D02*
X103914900Y-38165000D01*
%TO.N,Net-(J7-Pad6)*%
X104155100Y-40464800D02*
X104155100Y-41975000D01*
X111710000Y-34085000D02*
X110534900Y-34085000D01*
X110534900Y-34085000D02*
X104155100Y-40464800D01*
X102630000Y-41975000D02*
X104155100Y-41975000D01*
%TO.N,Net-(J7-Pad9)*%
X111080000Y-27735000D02*
X112122300Y-27735000D01*
X107540000Y-24195000D02*
X111080000Y-27735000D01*
X112910200Y-39694900D02*
X112075200Y-40529900D01*
X112122300Y-27735000D02*
X112910200Y-28522900D01*
X112910200Y-28522900D02*
X112910200Y-39694900D01*
X102630000Y-24195000D02*
X107540000Y-24195000D01*
X111710000Y-41705000D02*
X111710000Y-40529900D01*
X112075200Y-40529900D02*
X111710000Y-40529900D01*
%TO.N,Net-(J8-Pad8)*%
X102220000Y-61490000D02*
X103745100Y-61490000D01*
X110004900Y-68915000D02*
X110004900Y-67749800D01*
X110004900Y-67749800D02*
X103745100Y-61490000D01*
X111180000Y-68915000D02*
X110004900Y-68915000D01*
%TO.N,Net-(J8-Pad9)*%
X112393900Y-68462300D02*
X111576600Y-67645000D01*
X111180000Y-71455000D02*
X111180000Y-70279900D01*
X110780500Y-67645000D02*
X103745100Y-60609600D01*
X111180000Y-70279900D02*
X111547200Y-70279900D01*
X111576600Y-67645000D02*
X110780500Y-67645000D01*
X103745100Y-60609600D02*
X103745100Y-53870000D01*
X102220000Y-53870000D02*
X103745100Y-53870000D01*
X112393900Y-69433200D02*
X112393900Y-68462300D01*
X111547200Y-70279900D02*
X112393900Y-69433200D01*
%TD*%
M02*
