%TF.GenerationSoftware,KiCad,Pcbnew,6.0.2+dfsg-1*%
%TF.CreationDate,2023-02-21T13:38:07-05:00*%
%TF.ProjectId,ALU,414c552e-6b69-4636-9164-5f7063625858,rev?*%
%TF.SameCoordinates,Original*%
%TF.FileFunction,Soldermask,Bot*%
%TF.FilePolarity,Negative*%
%FSLAX46Y46*%
G04 Gerber Fmt 4.6, Leading zero omitted, Abs format (unit mm)*
G04 Created by KiCad (PCBNEW 6.0.2+dfsg-1) date 2023-02-21 13:38:07*
%MOMM*%
%LPD*%
G01*
G04 APERTURE LIST*
%ADD10R,2.400000X1.600000*%
%ADD11O,2.400000X1.600000*%
%ADD12C,1.600000*%
%ADD13R,1.700000X1.700000*%
%ADD14O,1.700000X1.700000*%
%ADD15O,1.600000X2.400000*%
%ADD16R,1.600000X2.400000*%
%ADD17O,1.600000X1.600000*%
%ADD18R,1.600000X1.600000*%
G04 APERTURE END LIST*
D10*
%TO.C,U15*%
X57850000Y-35040000D03*
D11*
X57850000Y-37580000D03*
X57850000Y-40120000D03*
X57850000Y-42660000D03*
X57850000Y-45200000D03*
X57850000Y-47740000D03*
X57850000Y-50280000D03*
X57850000Y-52820000D03*
X57850000Y-55360000D03*
X57850000Y-57900000D03*
X65470000Y-57900000D03*
X65470000Y-55360000D03*
X65470000Y-52820000D03*
X65470000Y-50280000D03*
X65470000Y-47740000D03*
X65470000Y-45200000D03*
X65470000Y-42660000D03*
X65470000Y-40120000D03*
X65470000Y-37580000D03*
X65470000Y-35040000D03*
%TD*%
D10*
%TO.C,U2*%
X81540000Y-37635000D03*
D11*
X81540000Y-40175000D03*
X81540000Y-42715000D03*
X81540000Y-45255000D03*
X81540000Y-47795000D03*
X81540000Y-50335000D03*
X81540000Y-52875000D03*
X89160000Y-52875000D03*
X89160000Y-50335000D03*
X89160000Y-47795000D03*
X89160000Y-45255000D03*
X89160000Y-42715000D03*
X89160000Y-40175000D03*
X89160000Y-37635000D03*
%TD*%
D10*
%TO.C,U17*%
X107590000Y-82240000D03*
D11*
X107590000Y-84780000D03*
X107590000Y-87320000D03*
X107590000Y-89860000D03*
X107590000Y-92400000D03*
X107590000Y-94940000D03*
X107590000Y-97480000D03*
X107590000Y-100020000D03*
X107590000Y-102560000D03*
X107590000Y-105100000D03*
X115210000Y-105100000D03*
X115210000Y-102560000D03*
X115210000Y-100020000D03*
X115210000Y-97480000D03*
X115210000Y-94940000D03*
X115210000Y-92400000D03*
X115210000Y-89860000D03*
X115210000Y-87320000D03*
X115210000Y-84780000D03*
X115210000Y-82240000D03*
%TD*%
D10*
%TO.C,U6*%
X70080000Y-92720000D03*
D11*
X70080000Y-95260000D03*
X70080000Y-97800000D03*
X70080000Y-100340000D03*
X70080000Y-102880000D03*
X70080000Y-105420000D03*
X70080000Y-107960000D03*
X77700000Y-107960000D03*
X77700000Y-105420000D03*
X77700000Y-102880000D03*
X77700000Y-100340000D03*
X77700000Y-97800000D03*
X77700000Y-95260000D03*
X77700000Y-92720000D03*
%TD*%
%TO.C,U7*%
X137870000Y-84405000D03*
X137870000Y-86945000D03*
X137870000Y-89485000D03*
X137870000Y-92025000D03*
X137870000Y-94565000D03*
X137870000Y-97105000D03*
X137870000Y-99645000D03*
X130250000Y-99645000D03*
X130250000Y-97105000D03*
X130250000Y-94565000D03*
X130250000Y-92025000D03*
X130250000Y-89485000D03*
X130250000Y-86945000D03*
D10*
X130250000Y-84405000D03*
%TD*%
D12*
%TO.C,C5*%
X130190000Y-60045000D03*
X137690000Y-60045000D03*
%TD*%
D11*
%TO.C,U21*%
X137850000Y-63410000D03*
X137850000Y-65950000D03*
X137850000Y-68490000D03*
X137850000Y-71030000D03*
X137850000Y-73570000D03*
X137850000Y-76110000D03*
X137850000Y-78650000D03*
X130230000Y-78650000D03*
X130230000Y-76110000D03*
X130230000Y-73570000D03*
X130230000Y-71030000D03*
X130230000Y-68490000D03*
X130230000Y-65950000D03*
D10*
X130230000Y-63410000D03*
%TD*%
D12*
%TO.C,C19*%
X58260000Y-63225000D03*
X65760000Y-63225000D03*
%TD*%
%TO.C,C18*%
X76350000Y-57810000D03*
X68850000Y-57810000D03*
%TD*%
%TO.C,C1*%
X82590000Y-69130000D03*
X90090000Y-69130000D03*
%TD*%
%TO.C,C20*%
X77400000Y-33815000D03*
X69900000Y-33815000D03*
%TD*%
%TO.C,C17*%
X136960000Y-111850000D03*
X129460000Y-111850000D03*
%TD*%
%TO.C,C15*%
X90090000Y-34280000D03*
X82590000Y-34280000D03*
%TD*%
D10*
%TO.C,U16*%
X94120000Y-47145000D03*
D11*
X94120000Y-49685000D03*
X94120000Y-52225000D03*
X94120000Y-54765000D03*
X94120000Y-57305000D03*
X94120000Y-59845000D03*
X94120000Y-62385000D03*
X94120000Y-64925000D03*
X94120000Y-67465000D03*
X94120000Y-70005000D03*
X101740000Y-70005000D03*
X101740000Y-67465000D03*
X101740000Y-64925000D03*
X101740000Y-62385000D03*
X101740000Y-59845000D03*
X101740000Y-57305000D03*
X101740000Y-54765000D03*
X101740000Y-52225000D03*
X101740000Y-49685000D03*
X101740000Y-47145000D03*
%TD*%
D10*
%TO.C,U12*%
X94250000Y-91925000D03*
D11*
X94250000Y-94465000D03*
X94250000Y-97005000D03*
X94250000Y-99545000D03*
X94250000Y-102085000D03*
X94250000Y-104625000D03*
X94250000Y-107165000D03*
X94250000Y-109705000D03*
X94250000Y-112245000D03*
X94250000Y-114785000D03*
X101870000Y-114785000D03*
X101870000Y-112245000D03*
X101870000Y-109705000D03*
X101870000Y-107165000D03*
X101870000Y-104625000D03*
X101870000Y-102085000D03*
X101870000Y-99545000D03*
X101870000Y-97005000D03*
X101870000Y-94465000D03*
X101870000Y-91925000D03*
%TD*%
D10*
%TO.C,U9*%
X57080000Y-95850000D03*
D11*
X57080000Y-98390000D03*
X57080000Y-100930000D03*
X57080000Y-103470000D03*
X57080000Y-106010000D03*
X57080000Y-108550000D03*
X57080000Y-111090000D03*
X57080000Y-113630000D03*
X57080000Y-116170000D03*
X57080000Y-118710000D03*
X64700000Y-118710000D03*
X64700000Y-116170000D03*
X64700000Y-113630000D03*
X64700000Y-111090000D03*
X64700000Y-108550000D03*
X64700000Y-106010000D03*
X64700000Y-103470000D03*
X64700000Y-100930000D03*
X64700000Y-98390000D03*
X64700000Y-95850000D03*
%TD*%
D10*
%TO.C,U8*%
X57850000Y-68240000D03*
D11*
X57850000Y-70780000D03*
X57850000Y-73320000D03*
X57850000Y-75860000D03*
X57850000Y-78400000D03*
X57850000Y-80940000D03*
X57850000Y-83480000D03*
X57850000Y-86020000D03*
X57850000Y-88560000D03*
X57850000Y-91100000D03*
X65470000Y-91100000D03*
X65470000Y-88560000D03*
X65470000Y-86020000D03*
X65470000Y-83480000D03*
X65470000Y-80940000D03*
X65470000Y-78400000D03*
X65470000Y-75860000D03*
X65470000Y-73320000D03*
X65470000Y-70780000D03*
X65470000Y-68240000D03*
%TD*%
D12*
%TO.C,C22*%
X101410000Y-118620000D03*
X93910000Y-118620000D03*
%TD*%
D13*
%TO.C,J4*%
X57970000Y-29440000D03*
D14*
X60510000Y-29440000D03*
X63050000Y-29440000D03*
X65590000Y-29440000D03*
X68130000Y-29440000D03*
X70670000Y-29440000D03*
X73210000Y-29440000D03*
X75750000Y-29440000D03*
X78290000Y-29440000D03*
X80830000Y-29440000D03*
%TD*%
D10*
%TO.C,U22*%
X69680000Y-37460000D03*
D11*
X69680000Y-40000000D03*
X69680000Y-42540000D03*
X69680000Y-45080000D03*
X69680000Y-47620000D03*
X69680000Y-50160000D03*
X69680000Y-52700000D03*
X77300000Y-52700000D03*
X77300000Y-50160000D03*
X77300000Y-47620000D03*
X77300000Y-45080000D03*
X77300000Y-42540000D03*
X77300000Y-40000000D03*
X77300000Y-37460000D03*
%TD*%
D12*
%TO.C,C10*%
X125620000Y-119230000D03*
X125620000Y-111730000D03*
%TD*%
%TO.C,C3*%
X77880000Y-70410000D03*
X70380000Y-70410000D03*
%TD*%
D10*
%TO.C,U10*%
X82570000Y-73270000D03*
D11*
X82570000Y-75810000D03*
X82570000Y-78350000D03*
X82570000Y-80890000D03*
X82570000Y-83430000D03*
X82570000Y-85970000D03*
X82570000Y-88510000D03*
X82570000Y-91050000D03*
X90190000Y-91050000D03*
X90190000Y-88510000D03*
X90190000Y-85970000D03*
X90190000Y-83430000D03*
X90190000Y-80890000D03*
X90190000Y-78350000D03*
X90190000Y-75810000D03*
X90190000Y-73270000D03*
%TD*%
D12*
%TO.C,C2*%
X118490000Y-60295000D03*
X125990000Y-60295000D03*
%TD*%
D10*
%TO.C,U11*%
X82670000Y-97890000D03*
D11*
X82670000Y-100430000D03*
X82670000Y-102970000D03*
X82670000Y-105510000D03*
X82670000Y-108050000D03*
X82670000Y-110590000D03*
X82670000Y-113130000D03*
X82670000Y-115670000D03*
X90290000Y-115670000D03*
X90290000Y-113130000D03*
X90290000Y-110590000D03*
X90290000Y-108050000D03*
X90290000Y-105510000D03*
X90290000Y-102970000D03*
X90290000Y-100430000D03*
X90290000Y-97890000D03*
%TD*%
D12*
%TO.C,C21*%
X52880000Y-110800000D03*
X52880000Y-118300000D03*
%TD*%
%TO.C,C16*%
X89010000Y-30460000D03*
X89010000Y-22960000D03*
%TD*%
D15*
%TO.C,U18*%
X129185000Y-56030000D03*
X126645000Y-56030000D03*
X124105000Y-56030000D03*
X121565000Y-56030000D03*
X119025000Y-56030000D03*
X116485000Y-56030000D03*
X113945000Y-56030000D03*
X111405000Y-56030000D03*
X108865000Y-56030000D03*
X106325000Y-56030000D03*
X106325000Y-48410000D03*
X108865000Y-48410000D03*
X111405000Y-48410000D03*
X113945000Y-48410000D03*
X116485000Y-48410000D03*
X119025000Y-48410000D03*
X121565000Y-48410000D03*
X124105000Y-48410000D03*
X126645000Y-48410000D03*
D16*
X129185000Y-48410000D03*
%TD*%
D13*
%TO.C,J5*%
X72220000Y-24990000D03*
D14*
X72220000Y-22450000D03*
X74760000Y-24990000D03*
X74760000Y-22450000D03*
X77300000Y-24990000D03*
X77300000Y-22450000D03*
X79840000Y-24990000D03*
X79840000Y-22450000D03*
X82380000Y-24990000D03*
X82380000Y-22450000D03*
%TD*%
D10*
%TO.C,U3*%
X106080000Y-26655000D03*
D11*
X106080000Y-29195000D03*
X106080000Y-31735000D03*
X106080000Y-34275000D03*
X106080000Y-36815000D03*
X106080000Y-39355000D03*
X106080000Y-41895000D03*
X113700000Y-41895000D03*
X113700000Y-39355000D03*
X113700000Y-36815000D03*
X113700000Y-34275000D03*
X113700000Y-31735000D03*
X113700000Y-29195000D03*
X113700000Y-26655000D03*
%TD*%
D12*
%TO.C,C12*%
X53680000Y-67655000D03*
X46180000Y-67655000D03*
%TD*%
D13*
%TO.C,J2*%
X41675000Y-77580000D03*
D14*
X41675000Y-75040000D03*
X41675000Y-72500000D03*
X41675000Y-69960000D03*
X41675000Y-67420000D03*
X41675000Y-64880000D03*
X41675000Y-62340000D03*
X41675000Y-59800000D03*
X41675000Y-57260000D03*
X41675000Y-54720000D03*
%TD*%
D10*
%TO.C,U1*%
X93595500Y-26639500D03*
D11*
X93595500Y-29179500D03*
X93595500Y-31719500D03*
X93595500Y-34259500D03*
X93595500Y-36799500D03*
X93595500Y-39339500D03*
X93595500Y-41879500D03*
X101215500Y-41879500D03*
X101215500Y-39339500D03*
X101215500Y-36799500D03*
X101215500Y-34259500D03*
X101215500Y-31719500D03*
X101215500Y-29179500D03*
X101215500Y-26639500D03*
%TD*%
D10*
%TO.C,U13*%
X46280000Y-27290000D03*
D11*
X46280000Y-29830000D03*
X46280000Y-32370000D03*
X46280000Y-34910000D03*
X46280000Y-37450000D03*
X46280000Y-39990000D03*
X46280000Y-42530000D03*
X53900000Y-42530000D03*
X53900000Y-39990000D03*
X53900000Y-37450000D03*
X53900000Y-34910000D03*
X53900000Y-32370000D03*
X53900000Y-29830000D03*
X53900000Y-27290000D03*
%TD*%
D15*
%TO.C,U20*%
X106425000Y-111580000D03*
X108965000Y-111580000D03*
X111505000Y-111580000D03*
X114045000Y-111580000D03*
X116585000Y-111580000D03*
X119125000Y-111580000D03*
X121665000Y-111580000D03*
X121665000Y-119200000D03*
X119125000Y-119200000D03*
X116585000Y-119200000D03*
X114045000Y-119200000D03*
X111505000Y-119200000D03*
X108965000Y-119200000D03*
D16*
X106425000Y-119200000D03*
%TD*%
D12*
%TO.C,C11*%
X54090000Y-92670000D03*
X46590000Y-92670000D03*
%TD*%
%TO.C,C9*%
X76200000Y-112585000D03*
X68700000Y-112585000D03*
%TD*%
%TO.C,C13*%
X113520000Y-22730000D03*
X106020000Y-22730000D03*
%TD*%
%TO.C,C8*%
X53740000Y-22595000D03*
X46240000Y-22595000D03*
%TD*%
%TO.C,C14*%
X112110000Y-66020000D03*
X112110000Y-73520000D03*
%TD*%
D10*
%TO.C,U5*%
X46920000Y-72835000D03*
D11*
X46920000Y-75375000D03*
X46920000Y-77915000D03*
X46920000Y-80455000D03*
X46920000Y-82995000D03*
X46920000Y-85535000D03*
X46920000Y-88075000D03*
X54540000Y-88075000D03*
X54540000Y-85535000D03*
X54540000Y-82995000D03*
X54540000Y-80455000D03*
X54540000Y-77915000D03*
X54540000Y-75375000D03*
X54540000Y-72835000D03*
%TD*%
D13*
%TO.C,J1*%
X41485000Y-44780000D03*
D14*
X41485000Y-42240000D03*
X41485000Y-39700000D03*
X41485000Y-37160000D03*
X41485000Y-34620000D03*
X41485000Y-32080000D03*
X41485000Y-29540000D03*
X41485000Y-27000000D03*
X41485000Y-24460000D03*
X41485000Y-21920000D03*
%TD*%
D12*
%TO.C,C4*%
X129930000Y-103210000D03*
X137430000Y-103210000D03*
%TD*%
D10*
%TO.C,U14*%
X46160000Y-48925000D03*
D11*
X46160000Y-51465000D03*
X46160000Y-54005000D03*
X46160000Y-56545000D03*
X46160000Y-59085000D03*
X46160000Y-61625000D03*
X46160000Y-64165000D03*
X53780000Y-64165000D03*
X53780000Y-61625000D03*
X53780000Y-59085000D03*
X53780000Y-56545000D03*
X53780000Y-54005000D03*
X53780000Y-51465000D03*
X53780000Y-48925000D03*
%TD*%
D12*
%TO.C,C7*%
X101165500Y-22244500D03*
X93665500Y-22244500D03*
%TD*%
%TO.C,C6*%
X82210000Y-119380000D03*
X89710000Y-119380000D03*
%TD*%
D10*
%TO.C,U4*%
X70200000Y-74105000D03*
D11*
X70200000Y-76645000D03*
X70200000Y-79185000D03*
X70200000Y-81725000D03*
X70200000Y-84265000D03*
X70200000Y-86805000D03*
X70200000Y-89345000D03*
X77820000Y-89345000D03*
X77820000Y-86805000D03*
X77820000Y-84265000D03*
X77820000Y-81725000D03*
X77820000Y-79185000D03*
X77820000Y-76645000D03*
X77820000Y-74105000D03*
%TD*%
D17*
%TO.C,RN1*%
X119420000Y-87735000D03*
X119420000Y-90275000D03*
X119420000Y-92815000D03*
X119420000Y-95355000D03*
X119420000Y-97895000D03*
X119420000Y-100435000D03*
X119420000Y-102975000D03*
X119420000Y-105515000D03*
D18*
X119420000Y-108055000D03*
%TD*%
D13*
%TO.C,J3*%
X57850000Y-25120000D03*
D14*
X57850000Y-22580000D03*
X60390000Y-25120000D03*
X60390000Y-22580000D03*
X62930000Y-25120000D03*
X62930000Y-22580000D03*
X65470000Y-25120000D03*
X65470000Y-22580000D03*
X68010000Y-25120000D03*
X68010000Y-22580000D03*
%TD*%
D11*
%TO.C,U19*%
X126270000Y-63280000D03*
X126270000Y-65820000D03*
X126270000Y-68360000D03*
X126270000Y-70900000D03*
X126270000Y-73440000D03*
X126270000Y-75980000D03*
X126270000Y-78520000D03*
X118650000Y-78520000D03*
X118650000Y-75980000D03*
X118650000Y-73440000D03*
X118650000Y-70900000D03*
X118650000Y-68360000D03*
X118650000Y-65820000D03*
D10*
X118650000Y-63280000D03*
%TD*%
M02*
