M48
; DRILL file {KiCad 6.0.2+dfsg-1} date Tue 21 Feb 2023 01:38:03 PM EST
; FORMAT={-:-/ absolute / inch / decimal}
; #@! TF.CreationDate,2023-02-21T13:38:03-05:00
; #@! TF.GenerationSoftware,Kicad,Pcbnew,6.0.2+dfsg-1
; #@! TF.FileFunction,Plated,1,2,PTH
FMAT,2
INCH
; #@! TA.AperFunction,Plated,PTH,ViaDrill
T1C0.0157
; #@! TA.AperFunction,Plated,PTH,ComponentDrill
T2C0.0315
; #@! TA.AperFunction,Plated,PTH,ComponentDrill
T3C0.0394
%
G90
G05
T1
X1.5552Y-3.3116
X1.8778Y-2.6646
X1.9064Y-2.514
X1.9347Y-3.0769
X1.9569Y-1.1301
X1.9569Y-1.5744
X1.9889Y-1.8998
X1.9973Y-3.5137
X2.0322Y-1.818
X2.0601Y-2.9412
X2.0758Y-3.3311
X2.1691Y-2.6416
X2.1709Y-1.8041
X2.1817Y-2.3831
X2.316Y-2.611
X2.3163Y-1.2505
X2.3208Y-2.36
X2.3376Y-3.3378
X2.3671Y-2.5184
X2.3818Y-2.8591
X2.4025Y-2.7326
X2.6804Y-3.2627
X2.7624Y-2.1819
X2.8109Y-3.3684
X2.8329Y-2.1561
X2.8363Y-3.4711
X2.8447Y-3.5652
X2.8525Y-3.0538
X2.8769Y-4.0776
X2.9353Y-3.6164
X2.9414Y-3.1854
X2.9414Y-3.458
X2.9446Y-2.6995
X2.9938Y-3.9039
X3.0284Y-1.2316
X3.1139Y-2.6038
X3.1386Y-2.9459
X3.1832Y-3.6398
X3.1906Y-2.499
X3.1945Y-4.2115
X3.2338Y-3.6725
X3.3526Y-2.5418
X3.3698Y-1.3081
X3.4245Y-1.6817
X3.6131Y-1.9009
X3.7543Y-1.6011
X3.7655Y-1.195
X3.7707Y-3.6722
X3.8016Y-3.578
X3.8155Y-1.4427
X3.8371Y-1.5112
X3.8485Y-3.2912
X3.8596Y-1.3712
X3.8669Y-1.8202
X3.8776Y-1.7423
X3.8817Y-1.5613
X3.8833Y-2.0097
X3.913Y-1.6843
X3.9414Y-2.2255
X4.0587Y-1.3459
X4.1021Y-2.558
X4.1451Y-3.4714
X4.2761Y-1.5318
X4.2959Y-4.2391
X4.3556Y-4.1285
X4.39Y-3.0267
X4.4042Y-2.6952
X4.469Y-4.2469
X4.4875Y-2.7386
X4.5385Y-2.0729
X4.686Y-1.6843
X4.7419Y-3.5162
X4.7812Y-3.1065
X4.886Y-1.7911
X4.8886Y-2.845
X4.9222Y-3.1789
T2
X1.8173Y-1.9262
X1.8173Y-2.0262
X1.8173Y-2.1262
X1.8173Y-2.2262
X1.8173Y-2.3262
X1.8173Y-2.4262
X1.8173Y-2.5262
X1.8181Y-2.6636
X1.8205Y-0.8896
X1.822Y-1.0744
X1.822Y-1.1744
X1.822Y-1.2744
X1.822Y-1.3744
X1.822Y-1.4744
X1.822Y-1.5744
X1.822Y-1.6744
X1.8343Y-3.6484
X1.8472Y-2.8675
X1.8472Y-2.9675
X1.8472Y-3.0675
X1.8472Y-3.1675
X1.8472Y-3.2675
X1.8472Y-3.3675
X1.8472Y-3.4675
X2.0819Y-4.3622
X2.0819Y-4.6575
X2.1134Y-2.6636
X2.1157Y-0.8896
X2.1173Y-1.9262
X2.1173Y-2.0262
X2.1173Y-2.1262
X2.1173Y-2.2262
X2.1173Y-2.3262
X2.1173Y-2.4262
X2.1173Y-2.5262
X2.122Y-1.0744
X2.122Y-1.1744
X2.122Y-1.2744
X2.122Y-1.3744
X2.122Y-1.4744
X2.122Y-1.5744
X2.122Y-1.6744
X2.1295Y-3.6484
X2.1472Y-2.8675
X2.1472Y-2.9675
X2.1472Y-3.0675
X2.1472Y-3.1675
X2.1472Y-3.2675
X2.1472Y-3.3675
X2.1472Y-3.4675
X2.2472Y-3.7736
X2.2472Y-3.8736
X2.2472Y-3.9736
X2.2472Y-4.0736
X2.2472Y-4.1736
X2.2472Y-4.2736
X2.2472Y-4.3736
X2.2472Y-4.4736
X2.2472Y-4.5736
X2.2472Y-4.6736
X2.2776Y-1.3795
X2.2776Y-1.4795
X2.2776Y-1.5795
X2.2776Y-1.6795
X2.2776Y-1.7795
X2.2776Y-1.8795
X2.2776Y-1.9795
X2.2776Y-2.0795
X2.2776Y-2.1795
X2.2776Y-2.2795
X2.2776Y-2.6866
X2.2776Y-2.7866
X2.2776Y-2.8866
X2.2776Y-2.9866
X2.2776Y-3.0866
X2.2776Y-3.1866
X2.2776Y-3.2866
X2.2776Y-3.3866
X2.2776Y-3.4866
X2.2776Y-3.5866
X2.2937Y-2.4892
X2.5472Y-3.7736
X2.5472Y-3.8736
X2.5472Y-3.9736
X2.5472Y-4.0736
X2.5472Y-4.1736
X2.5472Y-4.2736
X2.5472Y-4.3736
X2.5472Y-4.4736
X2.5472Y-4.5736
X2.5472Y-4.6736
X2.5776Y-1.3795
X2.5776Y-1.4795
X2.5776Y-1.5795
X2.5776Y-1.6795
X2.5776Y-1.7795
X2.5776Y-1.8795
X2.5776Y-1.9795
X2.5776Y-2.0795
X2.5776Y-2.1795
X2.5776Y-2.2795
X2.5776Y-2.6866
X2.5776Y-2.7866
X2.5776Y-2.8866
X2.5776Y-2.9866
X2.5776Y-3.0866
X2.5776Y-3.1866
X2.5776Y-3.2866
X2.5776Y-3.3866
X2.5776Y-3.4866
X2.5776Y-3.5866
X2.589Y-2.4892
X2.7047Y-4.4325
X2.7106Y-2.276
X2.7433Y-1.4748
X2.7433Y-1.5748
X2.7433Y-1.6748
X2.7433Y-1.7748
X2.7433Y-1.8748
X2.7433Y-1.9748
X2.7433Y-2.0748
X2.752Y-1.3313
X2.7591Y-3.6504
X2.7591Y-3.7504
X2.7591Y-3.8504
X2.7591Y-3.9504
X2.7591Y-4.0504
X2.7591Y-4.1504
X2.7591Y-4.2504
X2.7638Y-2.9175
X2.7638Y-3.0175
X2.7638Y-3.1175
X2.7638Y-3.2175
X2.7638Y-3.3175
X2.7638Y-3.4175
X2.7638Y-3.5175
X2.7709Y-2.772
X3.0Y-4.4325
X3.0059Y-2.276
X3.0433Y-1.4748
X3.0433Y-1.5748
X3.0433Y-1.6748
X3.0433Y-1.7748
X3.0433Y-1.8748
X3.0433Y-1.9748
X3.0433Y-2.0748
X3.0472Y-1.3313
X3.0591Y-3.6504
X3.0591Y-3.7504
X3.0591Y-3.8504
X3.0591Y-3.9504
X3.0591Y-4.0504
X3.0591Y-4.1504
X3.0591Y-4.2504
X3.0638Y-2.9175
X3.0638Y-3.0175
X3.0638Y-3.1175
X3.0638Y-3.2175
X3.0638Y-3.3175
X3.0638Y-3.4175
X3.0638Y-3.5175
X3.0661Y-2.772
X3.2102Y-1.4817
X3.2102Y-1.5817
X3.2102Y-1.6817
X3.2102Y-1.7817
X3.2102Y-1.8817
X3.2102Y-1.9817
X3.2102Y-2.0817
X3.2366Y-4.7
X3.2508Y-2.8846
X3.2508Y-2.9846
X3.2508Y-3.0846
X3.2508Y-3.1846
X3.2508Y-3.2846
X3.2508Y-3.3846
X3.2508Y-3.4846
X3.2508Y-3.5846
X3.2516Y-1.3496
X3.2516Y-2.7217
X3.2547Y-3.8539
X3.2547Y-3.9539
X3.2547Y-4.0539
X3.2547Y-4.1539
X3.2547Y-4.2539
X3.2547Y-4.3539
X3.2547Y-4.4539
X3.2547Y-4.5539
X3.5043Y-0.9039
X3.5043Y-1.1992
X3.5102Y-1.4817
X3.5102Y-1.5817
X3.5102Y-1.6817
X3.5102Y-1.7817
X3.5102Y-1.8817
X3.5102Y-1.9817
X3.5102Y-2.0817
X3.5319Y-4.7
X3.5469Y-1.3496
X3.5469Y-2.7217
X3.5508Y-2.8846
X3.5508Y-2.9846
X3.5508Y-3.0846
X3.5508Y-3.1846
X3.5508Y-3.2846
X3.5508Y-3.3846
X3.5508Y-3.4846
X3.5508Y-3.5846
X3.5547Y-3.8539
X3.5547Y-3.9539
X3.5547Y-4.0539
X3.5547Y-4.1539
X3.5547Y-4.2539
X3.5547Y-4.3539
X3.5547Y-4.4539
X3.5547Y-4.5539
X3.6849Y-1.0488
X3.6849Y-1.1488
X3.6849Y-1.2488
X3.6849Y-1.3488
X3.6849Y-1.4488
X3.6849Y-1.5488
X3.6849Y-1.6488
X3.6876Y-0.8758
X3.6972Y-4.6701
X3.7055Y-1.8561
X3.7055Y-1.9561
X3.7055Y-2.0561
X3.7055Y-2.1561
X3.7055Y-2.2561
X3.7055Y-2.3561
X3.7055Y-2.4561
X3.7055Y-2.5561
X3.7055Y-2.6561
X3.7055Y-2.7561
X3.7106Y-3.6191
X3.7106Y-3.7191
X3.7106Y-3.8191
X3.7106Y-3.9191
X3.7106Y-4.0191
X3.7106Y-4.1191
X3.7106Y-4.2191
X3.7106Y-4.3191
X3.7106Y-4.4191
X3.7106Y-4.5191
X3.9829Y-0.8758
X3.9849Y-1.0488
X3.9849Y-1.1488
X3.9849Y-1.2488
X3.9849Y-1.3488
X3.9849Y-1.4488
X3.9849Y-1.5488
X3.9849Y-1.6488
X3.9925Y-4.6701
X4.0055Y-1.8561
X4.0055Y-1.9561
X4.0055Y-2.0561
X4.0055Y-2.1561
X4.0055Y-2.2561
X4.0055Y-2.3561
X4.0055Y-2.4561
X4.0055Y-2.5561
X4.0055Y-2.6561
X4.0055Y-2.7561
X4.0106Y-3.6191
X4.0106Y-3.7191
X4.0106Y-3.8191
X4.0106Y-3.9191
X4.0106Y-4.0191
X4.0106Y-4.1191
X4.0106Y-4.2191
X4.0106Y-4.3191
X4.0106Y-4.4191
X4.0106Y-4.5191
X4.174Y-0.8949
X4.1764Y-1.0494
X4.1764Y-1.1494
X4.1764Y-1.2494
X4.1764Y-1.3494
X4.1764Y-1.4494
X4.1764Y-1.5494
X4.1764Y-1.6494
X4.186Y-1.9059
X4.186Y-2.2059
X4.19Y-4.3929
X4.19Y-4.6929
X4.2358Y-3.2378
X4.2358Y-3.3378
X4.2358Y-3.4378
X4.2358Y-3.5378
X4.2358Y-3.6378
X4.2358Y-3.7378
X4.2358Y-3.8378
X4.2358Y-3.9378
X4.2358Y-4.0378
X4.2358Y-4.1378
X4.286Y-1.9059
X4.286Y-2.2059
X4.29Y-4.3929
X4.29Y-4.6929
X4.386Y-1.9059
X4.386Y-2.2059
X4.39Y-4.3929
X4.39Y-4.6929
X4.4138Y-2.5992
X4.4138Y-2.8945
X4.4693Y-0.8949
X4.4764Y-1.0494
X4.4764Y-1.1494
X4.4764Y-1.2494
X4.4764Y-1.3494
X4.4764Y-1.4494
X4.4764Y-1.5494
X4.4764Y-1.6494
X4.486Y-1.9059
X4.486Y-2.2059
X4.49Y-4.3929
X4.49Y-4.6929
X4.5358Y-3.2378
X4.5358Y-3.3378
X4.5358Y-3.4378
X4.5358Y-3.5378
X4.5358Y-3.6378
X4.5358Y-3.7378
X4.5358Y-3.8378
X4.5358Y-3.9378
X4.5358Y-4.0378
X4.5358Y-4.1378
X4.586Y-1.9059
X4.586Y-2.2059
X4.59Y-4.3929
X4.59Y-4.6929
X4.665Y-2.3738
X4.6713Y-2.4913
X4.6713Y-2.5913
X4.6713Y-2.6913
X4.6713Y-2.7913
X4.6713Y-2.8913
X4.6713Y-2.9913
X4.6713Y-3.0913
X4.686Y-1.9059
X4.686Y-2.2059
X4.69Y-4.3929
X4.69Y-4.6929
X4.7016Y-3.4541
X4.7016Y-3.5541
X4.7016Y-3.6541
X4.7016Y-3.7541
X4.7016Y-3.8541
X4.7016Y-3.9541
X4.7016Y-4.0541
X4.7016Y-4.1541
X4.7016Y-4.2541
X4.786Y-1.9059
X4.786Y-2.2059
X4.79Y-4.3929
X4.79Y-4.6929
X4.886Y-1.9059
X4.886Y-2.2059
X4.9457Y-4.3988
X4.9457Y-4.6941
X4.9602Y-2.3738
X4.9713Y-2.4913
X4.9713Y-2.5913
X4.9713Y-2.6913
X4.9713Y-2.7913
X4.9713Y-2.8913
X4.9713Y-2.9913
X4.9713Y-3.0913
X4.986Y-1.9059
X4.986Y-2.2059
X5.086Y-1.9059
X5.086Y-2.2059
X5.0969Y-4.4035
X5.1154Y-4.0634
X5.1256Y-2.364
X5.1272Y-2.4965
X5.1272Y-2.5965
X5.1272Y-2.6965
X5.1272Y-2.7965
X5.1272Y-2.8965
X5.1272Y-2.9965
X5.1272Y-3.0965
X5.128Y-3.323
X5.128Y-3.423
X5.128Y-3.523
X5.128Y-3.623
X5.128Y-3.723
X5.128Y-3.823
X5.128Y-3.923
X5.3921Y-4.4035
X5.4106Y-4.0634
X5.4209Y-2.364
X5.4272Y-2.4965
X5.4272Y-2.5965
X5.4272Y-2.6965
X5.4272Y-2.7965
X5.4272Y-2.8965
X5.4272Y-2.9965
X5.4272Y-3.0965
X5.428Y-3.323
X5.428Y-3.423
X5.428Y-3.523
X5.428Y-3.623
X5.428Y-3.723
X5.428Y-3.823
X5.428Y-3.923
T3
X1.6333Y-0.863
X1.6333Y-0.963
X1.6333Y-1.063
X1.6333Y-1.163
X1.6333Y-1.263
X1.6333Y-1.363
X1.6333Y-1.463
X1.6333Y-1.563
X1.6333Y-1.663
X1.6333Y-1.763
X1.6407Y-2.1543
X1.6407Y-2.2543
X1.6407Y-2.3543
X1.6407Y-2.4543
X1.6407Y-2.5543
X1.6407Y-2.6543
X1.6407Y-2.7543
X1.6407Y-2.8543
X1.6407Y-2.9543
X1.6407Y-3.0543
X2.2776Y-0.889
X2.2776Y-0.989
X2.2823Y-1.1591
X2.3776Y-0.889
X2.3776Y-0.989
X2.3823Y-1.1591
X2.4776Y-0.889
X2.4776Y-0.989
X2.4823Y-1.1591
X2.5776Y-0.889
X2.5776Y-0.989
X2.5823Y-1.1591
X2.6776Y-0.889
X2.6776Y-0.989
X2.6823Y-1.1591
X2.7823Y-1.1591
X2.8433Y-0.8839
X2.8433Y-0.9839
X2.8823Y-1.1591
X2.9433Y-0.8839
X2.9433Y-0.9839
X2.9823Y-1.1591
X3.0433Y-0.8839
X3.0433Y-0.9839
X3.0823Y-1.1591
X3.1433Y-0.8839
X3.1433Y-0.9839
X3.1823Y-1.1591
X3.2433Y-0.8839
X3.2433Y-0.9839
T0
M30
