%TF.GenerationSoftware,KiCad,Pcbnew,6.0.2+dfsg-1*%
%TF.CreationDate,2023-02-21T13:38:05-05:00*%
%TF.ProjectId,ALU,414c552e-6b69-4636-9164-5f7063625858,rev?*%
%TF.SameCoordinates,Original*%
%TF.FileFunction,Copper,L2,Bot*%
%TF.FilePolarity,Positive*%
%FSLAX46Y46*%
G04 Gerber Fmt 4.6, Leading zero omitted, Abs format (unit mm)*
G04 Created by KiCad (PCBNEW 6.0.2+dfsg-1) date 2023-02-21 13:38:05*
%MOMM*%
%LPD*%
G01*
G04 APERTURE LIST*
%TA.AperFunction,ComponentPad*%
%ADD10R,2.400000X1.600000*%
%TD*%
%TA.AperFunction,ComponentPad*%
%ADD11O,2.400000X1.600000*%
%TD*%
%TA.AperFunction,ComponentPad*%
%ADD12C,1.600000*%
%TD*%
%TA.AperFunction,ComponentPad*%
%ADD13R,1.700000X1.700000*%
%TD*%
%TA.AperFunction,ComponentPad*%
%ADD14O,1.700000X1.700000*%
%TD*%
%TA.AperFunction,ComponentPad*%
%ADD15O,1.600000X2.400000*%
%TD*%
%TA.AperFunction,ComponentPad*%
%ADD16R,1.600000X2.400000*%
%TD*%
%TA.AperFunction,ComponentPad*%
%ADD17O,1.600000X1.600000*%
%TD*%
%TA.AperFunction,ComponentPad*%
%ADD18R,1.600000X1.600000*%
%TD*%
%TA.AperFunction,ViaPad*%
%ADD19C,0.800000*%
%TD*%
%TA.AperFunction,Conductor*%
%ADD20C,0.250000*%
%TD*%
G04 APERTURE END LIST*
D10*
%TO.P,U15,1,A->B*%
%TO.N,VCC*%
X57850000Y-35040000D03*
D11*
%TO.P,U15,2,A0*%
%TO.N,Net-(U13-Pad3)*%
X57850000Y-37580000D03*
%TO.P,U15,3,A1*%
%TO.N,Net-(U13-Pad6)*%
X57850000Y-40120000D03*
%TO.P,U15,4,A2*%
%TO.N,Net-(U13-Pad8)*%
X57850000Y-42660000D03*
%TO.P,U15,5,A3*%
%TO.N,Net-(U13-Pad11)*%
X57850000Y-45200000D03*
%TO.P,U15,6,A4*%
%TO.N,Net-(U14-Pad3)*%
X57850000Y-47740000D03*
%TO.P,U15,7,A5*%
%TO.N,Net-(U14-Pad6)*%
X57850000Y-50280000D03*
%TO.P,U15,8,A6*%
%TO.N,Net-(U14-Pad8)*%
X57850000Y-52820000D03*
%TO.P,U15,9,A7*%
%TO.N,Net-(U14-Pad11)*%
X57850000Y-55360000D03*
%TO.P,U15,10,GND*%
%TO.N,GND*%
X57850000Y-57900000D03*
%TO.P,U15,11,B7*%
%TO.N,/Adder/Out_{7}*%
X65470000Y-57900000D03*
%TO.P,U15,12,B6*%
%TO.N,/Adder/Out_{6}*%
X65470000Y-55360000D03*
%TO.P,U15,13,B5*%
%TO.N,/Adder/Out_{5}*%
X65470000Y-52820000D03*
%TO.P,U15,14,B4*%
%TO.N,/Adder/Out_{4}*%
X65470000Y-50280000D03*
%TO.P,U15,15,B3*%
%TO.N,/Adder/Out_{3}*%
X65470000Y-47740000D03*
%TO.P,U15,16,B2*%
%TO.N,/Adder/Out_{2}*%
X65470000Y-45200000D03*
%TO.P,U15,17,B1*%
%TO.N,/Adder/Out_{1}*%
X65470000Y-42660000D03*
%TO.P,U15,18,B0*%
%TO.N,/Adder/Out_{0}*%
X65470000Y-40120000D03*
%TO.P,U15,19,CE*%
%TO.N,/NAND/~{NAND}*%
X65470000Y-37580000D03*
%TO.P,U15,20,VCC*%
%TO.N,VCC*%
X65470000Y-35040000D03*
%TD*%
D10*
%TO.P,U2,1*%
%TO.N,Net-(J5-Pad2)*%
X81540000Y-37635000D03*
D11*
%TO.P,U2,2*%
%TO.N,/Compare/RD != RS*%
X81540000Y-40175000D03*
%TO.P,U2,3*%
%TO.N,Net-(U2-Pad3)*%
X81540000Y-42715000D03*
%TO.P,U2,4*%
%TO.N,Net-(J5-Pad3)*%
X81540000Y-45255000D03*
%TO.P,U2,5*%
%TO.N,/Compare/RD == RS*%
X81540000Y-47795000D03*
%TO.P,U2,6*%
%TO.N,Net-(U2-Pad6)*%
X81540000Y-50335000D03*
%TO.P,U2,7,GND*%
%TO.N,GND*%
X81540000Y-52875000D03*
%TO.P,U2,8*%
%TO.N,unconnected-(U2-Pad8)*%
X89160000Y-52875000D03*
%TO.P,U2,9*%
%TO.N,unconnected-(U2-Pad9)*%
X89160000Y-50335000D03*
%TO.P,U2,10*%
%TO.N,unconnected-(U2-Pad10)*%
X89160000Y-47795000D03*
%TO.P,U2,11*%
%TO.N,unconnected-(U2-Pad11)*%
X89160000Y-45255000D03*
%TO.P,U2,12*%
%TO.N,unconnected-(U2-Pad12)*%
X89160000Y-42715000D03*
%TO.P,U2,13*%
%TO.N,unconnected-(U2-Pad13)*%
X89160000Y-40175000D03*
%TO.P,U2,14,VCC*%
%TO.N,VCC*%
X89160000Y-37635000D03*
%TD*%
D10*
%TO.P,U17,1,A->B*%
%TO.N,VCC*%
X107590000Y-82240000D03*
D11*
%TO.P,U17,2,A0*%
%TO.N,/Adder/RS_{0}*%
X107590000Y-84780000D03*
%TO.P,U17,3,A1*%
%TO.N,/Adder/RS_{1}*%
X107590000Y-87320000D03*
%TO.P,U17,4,A2*%
%TO.N,/Adder/RS_{2}*%
X107590000Y-89860000D03*
%TO.P,U17,5,A3*%
%TO.N,/Adder/RS_{3}*%
X107590000Y-92400000D03*
%TO.P,U17,6,A4*%
%TO.N,/Adder/RS_{4}*%
X107590000Y-94940000D03*
%TO.P,U17,7,A5*%
%TO.N,/Adder/RS_{5}*%
X107590000Y-97480000D03*
%TO.P,U17,8,A6*%
%TO.N,/Adder/RS_{6}*%
X107590000Y-100020000D03*
%TO.P,U17,9,A7*%
%TO.N,/Adder/RS_{7}*%
X107590000Y-102560000D03*
%TO.P,U17,10,GND*%
%TO.N,GND*%
X107590000Y-105100000D03*
%TO.P,U17,11,B7*%
%TO.N,Net-(RN1-Pad2)*%
X115210000Y-105100000D03*
%TO.P,U17,12,B6*%
%TO.N,Net-(RN1-Pad3)*%
X115210000Y-102560000D03*
%TO.P,U17,13,B5*%
%TO.N,Net-(RN1-Pad4)*%
X115210000Y-100020000D03*
%TO.P,U17,14,B4*%
%TO.N,Net-(RN1-Pad5)*%
X115210000Y-97480000D03*
%TO.P,U17,15,B3*%
%TO.N,Net-(RN1-Pad6)*%
X115210000Y-94940000D03*
%TO.P,U17,16,B2*%
%TO.N,Net-(RN1-Pad7)*%
X115210000Y-92400000D03*
%TO.P,U17,17,B1*%
%TO.N,Net-(RN1-Pad8)*%
X115210000Y-89860000D03*
%TO.P,U17,18,B0*%
%TO.N,Net-(RN1-Pad9)*%
X115210000Y-87320000D03*
%TO.P,U17,19,CE*%
%TO.N,/Compare/~{CMP}*%
X115210000Y-84780000D03*
%TO.P,U17,20,VCC*%
%TO.N,VCC*%
X115210000Y-82240000D03*
%TD*%
D10*
%TO.P,U6,1*%
%TO.N,/Adder/SUB*%
X70080000Y-92720000D03*
D11*
%TO.P,U6,2*%
%TO.N,Net-(U6-Pad2)*%
X70080000Y-95260000D03*
%TO.P,U6,3*%
%TO.N,Net-(U11-Pad16)*%
X70080000Y-97800000D03*
%TO.P,U6,4*%
%TO.N,/Adder/SUB*%
X70080000Y-100340000D03*
%TO.P,U6,5*%
%TO.N,Net-(U6-Pad5)*%
X70080000Y-102880000D03*
%TO.P,U6,6*%
%TO.N,Net-(U11-Pad4)*%
X70080000Y-105420000D03*
%TO.P,U6,7,GND*%
%TO.N,GND*%
X70080000Y-107960000D03*
%TO.P,U6,8*%
%TO.N,Net-(U11-Pad7)*%
X77700000Y-107960000D03*
%TO.P,U6,9*%
%TO.N,/Adder/SUB*%
X77700000Y-105420000D03*
%TO.P,U6,10*%
%TO.N,Net-(U6-Pad10)*%
X77700000Y-102880000D03*
%TO.P,U6,11*%
%TO.N,Net-(U11-Pad11)*%
X77700000Y-100340000D03*
%TO.P,U6,12*%
%TO.N,/Adder/SUB*%
X77700000Y-97800000D03*
%TO.P,U6,13*%
%TO.N,Net-(U6-Pad13)*%
X77700000Y-95260000D03*
%TO.P,U6,14,VCC*%
%TO.N,VCC*%
X77700000Y-92720000D03*
%TD*%
%TO.P,U7,14,VCC*%
%TO.N,VCC*%
X137870000Y-84405000D03*
%TO.P,U7,13*%
%TO.N,N/C*%
X137870000Y-86945000D03*
%TO.P,U7,12*%
X137870000Y-89485000D03*
%TO.P,U7,11*%
X137870000Y-92025000D03*
%TO.P,U7,10*%
%TO.N,Net-(U20-Pad6)*%
X137870000Y-94565000D03*
%TO.P,U7,9*%
%TO.N,Net-(U20-Pad3)*%
X137870000Y-97105000D03*
%TO.P,U7,8*%
%TO.N,Net-(U21-Pad4)*%
X137870000Y-99645000D03*
%TO.P,U7,7,GND*%
%TO.N,GND*%
X130250000Y-99645000D03*
%TO.P,U7,6*%
%TO.N,Net-(U21-Pad2)*%
X130250000Y-97105000D03*
%TO.P,U7,5*%
%TO.N,Net-(U19-Pad11)*%
X130250000Y-94565000D03*
%TO.P,U7,4*%
%TO.N,Net-(U19-Pad8)*%
X130250000Y-92025000D03*
%TO.P,U7,3*%
%TO.N,Net-(U21-Pad1)*%
X130250000Y-89485000D03*
%TO.P,U7,2*%
%TO.N,Net-(U19-Pad6)*%
X130250000Y-86945000D03*
D10*
%TO.P,U7,1*%
%TO.N,Net-(U19-Pad3)*%
X130250000Y-84405000D03*
%TD*%
D12*
%TO.P,C5,2*%
%TO.N,GND*%
X130190000Y-60045000D03*
%TO.P,C5,1*%
%TO.N,VCC*%
X137690000Y-60045000D03*
%TD*%
D11*
%TO.P,U21,14,VCC*%
%TO.N,VCC*%
X137850000Y-63410000D03*
%TO.P,U21,13*%
%TO.N,Net-(U20-Pad11)*%
X137850000Y-65950000D03*
%TO.P,U21,12*%
%TO.N,Net-(U20-Pad8)*%
X137850000Y-68490000D03*
%TO.P,U21,11*%
%TO.N,Net-(U21-Pad11)*%
X137850000Y-71030000D03*
%TO.P,U21,10*%
%TO.N,Net-(U21-Pad10)*%
X137850000Y-73570000D03*
%TO.P,U21,9*%
%TO.N,Net-(U21-Pad3)*%
X137850000Y-76110000D03*
%TO.P,U21,8*%
%TO.N,/Compare/RD != RS*%
X137850000Y-78650000D03*
%TO.P,U21,7,GND*%
%TO.N,GND*%
X130230000Y-78650000D03*
%TO.P,U21,6*%
%TO.N,Net-(U21-Pad10)*%
X130230000Y-76110000D03*
%TO.P,U21,5*%
%TO.N,Net-(U21-Pad11)*%
X130230000Y-73570000D03*
%TO.P,U21,4*%
%TO.N,Net-(U21-Pad4)*%
X130230000Y-71030000D03*
%TO.P,U21,3*%
%TO.N,Net-(U21-Pad3)*%
X130230000Y-68490000D03*
%TO.P,U21,2*%
%TO.N,Net-(U21-Pad2)*%
X130230000Y-65950000D03*
D10*
%TO.P,U21,1*%
%TO.N,Net-(U21-Pad1)*%
X130230000Y-63410000D03*
%TD*%
D12*
%TO.P,C19,1*%
%TO.N,VCC*%
X58260000Y-63225000D03*
%TO.P,C19,2*%
%TO.N,GND*%
X65760000Y-63225000D03*
%TD*%
%TO.P,C18,1*%
%TO.N,VCC*%
X76350000Y-57810000D03*
%TO.P,C18,2*%
%TO.N,GND*%
X68850000Y-57810000D03*
%TD*%
%TO.P,C1,1*%
%TO.N,VCC*%
X82590000Y-69130000D03*
%TO.P,C1,2*%
%TO.N,GND*%
X90090000Y-69130000D03*
%TD*%
%TO.P,C20,1*%
%TO.N,VCC*%
X77400000Y-33815000D03*
%TO.P,C20,2*%
%TO.N,GND*%
X69900000Y-33815000D03*
%TD*%
%TO.P,C17,1*%
%TO.N,VCC*%
X136960000Y-111850000D03*
%TO.P,C17,2*%
%TO.N,GND*%
X129460000Y-111850000D03*
%TD*%
%TO.P,C15,1*%
%TO.N,VCC*%
X90090000Y-34280000D03*
%TO.P,C15,2*%
%TO.N,GND*%
X82590000Y-34280000D03*
%TD*%
D10*
%TO.P,U16,1,A->B*%
%TO.N,VCC*%
X94120000Y-47145000D03*
D11*
%TO.P,U16,2,A0*%
%TO.N,/Adder/RD_{0}*%
X94120000Y-49685000D03*
%TO.P,U16,3,A1*%
%TO.N,/Adder/RD_{1}*%
X94120000Y-52225000D03*
%TO.P,U16,4,A2*%
%TO.N,/Adder/RD_{2}*%
X94120000Y-54765000D03*
%TO.P,U16,5,A3*%
%TO.N,/Adder/RD_{3}*%
X94120000Y-57305000D03*
%TO.P,U16,6,A4*%
%TO.N,/Adder/RD_{4}*%
X94120000Y-59845000D03*
%TO.P,U16,7,A5*%
%TO.N,/Adder/RD_{5}*%
X94120000Y-62385000D03*
%TO.P,U16,8,A6*%
%TO.N,/Adder/RD_{6}*%
X94120000Y-64925000D03*
%TO.P,U16,9,A7*%
%TO.N,/Adder/RD_{7}*%
X94120000Y-67465000D03*
%TO.P,U16,10,GND*%
%TO.N,GND*%
X94120000Y-70005000D03*
%TO.P,U16,11,B7*%
%TO.N,Net-(U16-Pad11)*%
X101740000Y-70005000D03*
%TO.P,U16,12,B6*%
%TO.N,Net-(U16-Pad12)*%
X101740000Y-67465000D03*
%TO.P,U16,13,B5*%
%TO.N,Net-(U16-Pad13)*%
X101740000Y-64925000D03*
%TO.P,U16,14,B4*%
%TO.N,Net-(U16-Pad14)*%
X101740000Y-62385000D03*
%TO.P,U16,15,B3*%
%TO.N,Net-(U16-Pad15)*%
X101740000Y-59845000D03*
%TO.P,U16,16,B2*%
%TO.N,Net-(U16-Pad16)*%
X101740000Y-57305000D03*
%TO.P,U16,17,B1*%
%TO.N,Net-(U16-Pad17)*%
X101740000Y-54765000D03*
%TO.P,U16,18,B0*%
%TO.N,Net-(U16-Pad18)*%
X101740000Y-52225000D03*
%TO.P,U16,19,CE*%
%TO.N,/Compare/~{CMP}*%
X101740000Y-49685000D03*
%TO.P,U16,20,VCC*%
%TO.N,VCC*%
X101740000Y-47145000D03*
%TD*%
D10*
%TO.P,U12,1,A->B*%
%TO.N,VCC*%
X94250000Y-91925000D03*
D11*
%TO.P,U12,2,A0*%
%TO.N,Net-(U10-Pad9)*%
X94250000Y-94465000D03*
%TO.P,U12,3,A1*%
%TO.N,Net-(U10-Pad6)*%
X94250000Y-97005000D03*
%TO.P,U12,4,A2*%
%TO.N,Net-(U10-Pad2)*%
X94250000Y-99545000D03*
%TO.P,U12,5,A3*%
%TO.N,Net-(U10-Pad15)*%
X94250000Y-102085000D03*
%TO.P,U12,6,A4*%
%TO.N,Net-(U11-Pad9)*%
X94250000Y-104625000D03*
%TO.P,U12,7,A5*%
%TO.N,Net-(U11-Pad6)*%
X94250000Y-107165000D03*
%TO.P,U12,8,A6*%
%TO.N,Net-(U11-Pad2)*%
X94250000Y-109705000D03*
%TO.P,U12,9,A7*%
%TO.N,Net-(U11-Pad15)*%
X94250000Y-112245000D03*
%TO.P,U12,10,GND*%
%TO.N,GND*%
X94250000Y-114785000D03*
%TO.P,U12,11,B7*%
%TO.N,/Adder/Out_{7}*%
X101870000Y-114785000D03*
%TO.P,U12,12,B6*%
%TO.N,/Adder/Out_{6}*%
X101870000Y-112245000D03*
%TO.P,U12,13,B5*%
%TO.N,/Adder/Out_{5}*%
X101870000Y-109705000D03*
%TO.P,U12,14,B4*%
%TO.N,/Adder/Out_{4}*%
X101870000Y-107165000D03*
%TO.P,U12,15,B3*%
%TO.N,/Adder/Out_{3}*%
X101870000Y-104625000D03*
%TO.P,U12,16,B2*%
%TO.N,/Adder/Out_{2}*%
X101870000Y-102085000D03*
%TO.P,U12,17,B1*%
%TO.N,/Adder/Out_{1}*%
X101870000Y-99545000D03*
%TO.P,U12,18,B0*%
%TO.N,/Adder/Out_{0}*%
X101870000Y-97005000D03*
%TO.P,U12,19,CE*%
%TO.N,/Adder/~{Adder}*%
X101870000Y-94465000D03*
%TO.P,U12,20,VCC*%
%TO.N,VCC*%
X101870000Y-91925000D03*
%TD*%
D10*
%TO.P,U9,1,A->B*%
%TO.N,VCC*%
X57080000Y-95850000D03*
D11*
%TO.P,U9,2,A0*%
%TO.N,GND*%
X57080000Y-98390000D03*
%TO.P,U9,3,A1*%
X57080000Y-100930000D03*
%TO.P,U9,4,A2*%
X57080000Y-103470000D03*
%TO.P,U9,5,A3*%
%TO.N,VCC*%
X57080000Y-106010000D03*
%TO.P,U9,6,A4*%
%TO.N,GND*%
X57080000Y-108550000D03*
%TO.P,U9,7,A5*%
X57080000Y-111090000D03*
%TO.P,U9,8,A6*%
X57080000Y-113630000D03*
%TO.P,U9,9,A7*%
X57080000Y-116170000D03*
%TO.P,U9,10,GND*%
X57080000Y-118710000D03*
%TO.P,U9,11,B7*%
%TO.N,Net-(U6-Pad13)*%
X64700000Y-118710000D03*
%TO.P,U9,12,B6*%
%TO.N,Net-(U6-Pad10)*%
X64700000Y-116170000D03*
%TO.P,U9,13,B5*%
%TO.N,Net-(U6-Pad5)*%
X64700000Y-113630000D03*
%TO.P,U9,14,B4*%
%TO.N,Net-(U6-Pad2)*%
X64700000Y-111090000D03*
%TO.P,U9,15,B3*%
%TO.N,Net-(U4-Pad13)*%
X64700000Y-108550000D03*
%TO.P,U9,16,B2*%
%TO.N,Net-(U4-Pad10)*%
X64700000Y-106010000D03*
%TO.P,U9,17,B1*%
%TO.N,Net-(U4-Pad4)*%
X64700000Y-103470000D03*
%TO.P,U9,18,B0*%
%TO.N,Net-(U4-Pad1)*%
X64700000Y-100930000D03*
%TO.P,U9,19,CE*%
%TO.N,Net-(U5-Pad2)*%
X64700000Y-98390000D03*
%TO.P,U9,20,VCC*%
%TO.N,VCC*%
X64700000Y-95850000D03*
%TD*%
D10*
%TO.P,U8,1,A->B*%
%TO.N,VCC*%
X57850000Y-68240000D03*
D11*
%TO.P,U8,2,A0*%
%TO.N,/Adder/RS_{3}*%
X57850000Y-70780000D03*
%TO.P,U8,3,A1*%
%TO.N,/Adder/RS_{2}*%
X57850000Y-73320000D03*
%TO.P,U8,4,A2*%
%TO.N,/Adder/RS_{1}*%
X57850000Y-75860000D03*
%TO.P,U8,5,A3*%
%TO.N,/Adder/RS_{0}*%
X57850000Y-78400000D03*
%TO.P,U8,6,A4*%
%TO.N,/Adder/RS_{7}*%
X57850000Y-80940000D03*
%TO.P,U8,7,A5*%
%TO.N,/Adder/RS_{6}*%
X57850000Y-83480000D03*
%TO.P,U8,8,A6*%
%TO.N,/Adder/RS_{5}*%
X57850000Y-86020000D03*
%TO.P,U8,9,A7*%
%TO.N,/Adder/RS_{4}*%
X57850000Y-88560000D03*
%TO.P,U8,10,GND*%
%TO.N,GND*%
X57850000Y-91100000D03*
%TO.P,U8,11,B7*%
%TO.N,Net-(U6-Pad13)*%
X65470000Y-91100000D03*
%TO.P,U8,12,B6*%
%TO.N,Net-(U6-Pad10)*%
X65470000Y-88560000D03*
%TO.P,U8,13,B5*%
%TO.N,Net-(U6-Pad5)*%
X65470000Y-86020000D03*
%TO.P,U8,14,B4*%
%TO.N,Net-(U6-Pad2)*%
X65470000Y-83480000D03*
%TO.P,U8,15,B3*%
%TO.N,Net-(U4-Pad13)*%
X65470000Y-80940000D03*
%TO.P,U8,16,B2*%
%TO.N,Net-(U4-Pad10)*%
X65470000Y-78400000D03*
%TO.P,U8,17,B1*%
%TO.N,Net-(U4-Pad4)*%
X65470000Y-75860000D03*
%TO.P,U8,18,B0*%
%TO.N,Net-(U4-Pad1)*%
X65470000Y-73320000D03*
%TO.P,U8,19,CE*%
%TO.N,/Adder/~{RS}{slash}1*%
X65470000Y-70780000D03*
%TO.P,U8,20,VCC*%
%TO.N,VCC*%
X65470000Y-68240000D03*
%TD*%
D12*
%TO.P,C22,1*%
%TO.N,VCC*%
X101410000Y-118620000D03*
%TO.P,C22,2*%
%TO.N,GND*%
X93910000Y-118620000D03*
%TD*%
D13*
%TO.P,J4,1,Pin_1*%
%TO.N,VCC*%
X57970000Y-29440000D03*
D14*
%TO.P,J4,2,Pin_2*%
%TO.N,/Adder/Out_{0}*%
X60510000Y-29440000D03*
%TO.P,J4,3,Pin_3*%
%TO.N,/Adder/Out_{1}*%
X63050000Y-29440000D03*
%TO.P,J4,4,Pin_4*%
%TO.N,/Adder/Out_{2}*%
X65590000Y-29440000D03*
%TO.P,J4,5,Pin_5*%
%TO.N,/Adder/Out_{3}*%
X68130000Y-29440000D03*
%TO.P,J4,6,Pin_6*%
%TO.N,/Adder/Out_{4}*%
X70670000Y-29440000D03*
%TO.P,J4,7,Pin_7*%
%TO.N,/Adder/Out_{5}*%
X73210000Y-29440000D03*
%TO.P,J4,8,Pin_8*%
%TO.N,/Adder/Out_{6}*%
X75750000Y-29440000D03*
%TO.P,J4,9,Pin_9*%
%TO.N,/Adder/Out_{7}*%
X78290000Y-29440000D03*
%TO.P,J4,10,Pin_10*%
%TO.N,GND*%
X80830000Y-29440000D03*
%TD*%
D10*
%TO.P,U22,1*%
%TO.N,Net-(J3-Pad7)*%
X69680000Y-37460000D03*
D11*
%TO.P,U22,2*%
%TO.N,Net-(J3-Pad3)*%
X69680000Y-40000000D03*
%TO.P,U22,3*%
%TO.N,/CLK*%
X69680000Y-42540000D03*
%TO.P,U22,4*%
%TO.N,N/C*%
X69680000Y-45080000D03*
%TO.P,U22,5*%
X69680000Y-47620000D03*
%TO.P,U22,6*%
X69680000Y-50160000D03*
%TO.P,U22,7,GND*%
%TO.N,GND*%
X69680000Y-52700000D03*
%TO.P,U22,8*%
%TO.N,N/C*%
X77300000Y-52700000D03*
%TO.P,U22,9*%
X77300000Y-50160000D03*
%TO.P,U22,10*%
X77300000Y-47620000D03*
%TO.P,U22,11*%
X77300000Y-45080000D03*
%TO.P,U22,12*%
X77300000Y-42540000D03*
%TO.P,U22,13*%
X77300000Y-40000000D03*
%TO.P,U22,14,VCC*%
%TO.N,VCC*%
X77300000Y-37460000D03*
%TD*%
D12*
%TO.P,C10,2*%
%TO.N,GND*%
X125620000Y-119230000D03*
%TO.P,C10,1*%
%TO.N,VCC*%
X125620000Y-111730000D03*
%TD*%
%TO.P,C3,1*%
%TO.N,VCC*%
X77880000Y-70410000D03*
%TO.P,C3,2*%
%TO.N,GND*%
X70380000Y-70410000D03*
%TD*%
D10*
%TO.P,U10,1,A4*%
%TO.N,/Adder/RD_{3}*%
X82570000Y-73270000D03*
D11*
%TO.P,U10,2,S3*%
%TO.N,Net-(U10-Pad2)*%
X82570000Y-75810000D03*
%TO.P,U10,3,A3*%
%TO.N,/Adder/RD_{2}*%
X82570000Y-78350000D03*
%TO.P,U10,4,B3*%
%TO.N,Net-(U10-Pad4)*%
X82570000Y-80890000D03*
%TO.P,U10,5,VCC*%
%TO.N,VCC*%
X82570000Y-83430000D03*
%TO.P,U10,6,S2*%
%TO.N,Net-(U10-Pad6)*%
X82570000Y-85970000D03*
%TO.P,U10,7,B2*%
%TO.N,Net-(U10-Pad7)*%
X82570000Y-88510000D03*
%TO.P,U10,8,A2*%
%TO.N,/Adder/RD_{1}*%
X82570000Y-91050000D03*
%TO.P,U10,9,S1*%
%TO.N,Net-(U10-Pad9)*%
X90190000Y-91050000D03*
%TO.P,U10,10,A1*%
%TO.N,/Adder/RD_{0}*%
X90190000Y-88510000D03*
%TO.P,U10,11,B1*%
%TO.N,Net-(U10-Pad11)*%
X90190000Y-85970000D03*
%TO.P,U10,12,GND*%
%TO.N,GND*%
X90190000Y-83430000D03*
%TO.P,U10,13,C0*%
%TO.N,/Adder/SUB*%
X90190000Y-80890000D03*
%TO.P,U10,14,C4*%
%TO.N,/Adder/C_{Flag}*%
X90190000Y-78350000D03*
%TO.P,U10,15,S4*%
%TO.N,Net-(U10-Pad15)*%
X90190000Y-75810000D03*
%TO.P,U10,16,B4*%
%TO.N,Net-(U10-Pad16)*%
X90190000Y-73270000D03*
%TD*%
D12*
%TO.P,C2,2*%
%TO.N,GND*%
X118490000Y-60295000D03*
%TO.P,C2,1*%
%TO.N,VCC*%
X125990000Y-60295000D03*
%TD*%
D10*
%TO.P,U11,1,A4*%
%TO.N,/Adder/RD_{7}*%
X82670000Y-97890000D03*
D11*
%TO.P,U11,2,S3*%
%TO.N,Net-(U11-Pad2)*%
X82670000Y-100430000D03*
%TO.P,U11,3,A3*%
%TO.N,/Adder/RD_{6}*%
X82670000Y-102970000D03*
%TO.P,U11,4,B3*%
%TO.N,Net-(U11-Pad4)*%
X82670000Y-105510000D03*
%TO.P,U11,5,VCC*%
%TO.N,VCC*%
X82670000Y-108050000D03*
%TO.P,U11,6,S2*%
%TO.N,Net-(U11-Pad6)*%
X82670000Y-110590000D03*
%TO.P,U11,7,B2*%
%TO.N,Net-(U11-Pad7)*%
X82670000Y-113130000D03*
%TO.P,U11,8,A2*%
%TO.N,/Adder/RD_{5}*%
X82670000Y-115670000D03*
%TO.P,U11,9,S1*%
%TO.N,Net-(U11-Pad9)*%
X90290000Y-115670000D03*
%TO.P,U11,10,A1*%
%TO.N,/Adder/RD_{4}*%
X90290000Y-113130000D03*
%TO.P,U11,11,B1*%
%TO.N,Net-(U11-Pad11)*%
X90290000Y-110590000D03*
%TO.P,U11,12,GND*%
%TO.N,GND*%
X90290000Y-108050000D03*
%TO.P,U11,13,C0*%
%TO.N,/Adder/C_{Flag}*%
X90290000Y-105510000D03*
%TO.P,U11,14,C4*%
%TO.N,/Adder/C_{Out}*%
X90290000Y-102970000D03*
%TO.P,U11,15,S4*%
%TO.N,Net-(U11-Pad15)*%
X90290000Y-100430000D03*
%TO.P,U11,16,B4*%
%TO.N,Net-(U11-Pad16)*%
X90290000Y-97890000D03*
%TD*%
D12*
%TO.P,C21,1*%
%TO.N,VCC*%
X52880000Y-110800000D03*
%TO.P,C21,2*%
%TO.N,GND*%
X52880000Y-118300000D03*
%TD*%
%TO.P,C16,1*%
%TO.N,VCC*%
X89010000Y-30460000D03*
%TO.P,C16,2*%
%TO.N,GND*%
X89010000Y-22960000D03*
%TD*%
D15*
%TO.P,U18,20,VCC*%
%TO.N,VCC*%
X129185000Y-56030000D03*
%TO.P,U18,19,CE*%
%TO.N,Net-(U18-Pad19)*%
X126645000Y-56030000D03*
%TO.P,U18,18,B0*%
%TO.N,Net-(U16-Pad18)*%
X124105000Y-56030000D03*
%TO.P,U18,17,B1*%
%TO.N,Net-(U16-Pad17)*%
X121565000Y-56030000D03*
%TO.P,U18,16,B2*%
%TO.N,Net-(U16-Pad16)*%
X119025000Y-56030000D03*
%TO.P,U18,15,B3*%
%TO.N,Net-(U16-Pad15)*%
X116485000Y-56030000D03*
%TO.P,U18,14,B4*%
%TO.N,Net-(U16-Pad14)*%
X113945000Y-56030000D03*
%TO.P,U18,13,B5*%
%TO.N,Net-(U16-Pad13)*%
X111405000Y-56030000D03*
%TO.P,U18,12,B6*%
%TO.N,Net-(U16-Pad12)*%
X108865000Y-56030000D03*
%TO.P,U18,11,B7*%
%TO.N,Net-(U16-Pad11)*%
X106325000Y-56030000D03*
%TO.P,U18,10,GND*%
%TO.N,GND*%
X106325000Y-48410000D03*
%TO.P,U18,9,A7*%
%TO.N,/Adder/Out_{7}*%
X108865000Y-48410000D03*
%TO.P,U18,8,A6*%
%TO.N,/Adder/Out_{6}*%
X111405000Y-48410000D03*
%TO.P,U18,7,A5*%
%TO.N,/Adder/Out_{5}*%
X113945000Y-48410000D03*
%TO.P,U18,6,A4*%
%TO.N,/Adder/Out_{4}*%
X116485000Y-48410000D03*
%TO.P,U18,5,A3*%
%TO.N,/Adder/Out_{3}*%
X119025000Y-48410000D03*
%TO.P,U18,4,A2*%
%TO.N,/Adder/Out_{2}*%
X121565000Y-48410000D03*
%TO.P,U18,3,A1*%
%TO.N,/Adder/Out_{1}*%
X124105000Y-48410000D03*
%TO.P,U18,2,A0*%
%TO.N,/Adder/Out_{0}*%
X126645000Y-48410000D03*
D16*
%TO.P,U18,1,A->B*%
%TO.N,VCC*%
X129185000Y-48410000D03*
%TD*%
D13*
%TO.P,J5,1,Pin_1*%
%TO.N,VCC*%
X72220000Y-24990000D03*
D14*
%TO.P,J5,2,Pin_2*%
%TO.N,Net-(J5-Pad2)*%
X72220000Y-22450000D03*
%TO.P,J5,3,Pin_3*%
%TO.N,Net-(J5-Pad3)*%
X74760000Y-24990000D03*
%TO.P,J5,4,Pin_4*%
%TO.N,Net-(J5-Pad4)*%
X74760000Y-22450000D03*
%TO.P,J5,5,Pin_5*%
%TO.N,Net-(J5-Pad5)*%
X77300000Y-24990000D03*
%TO.P,J5,6,Pin_6*%
%TO.N,GND*%
X77300000Y-22450000D03*
%TO.P,J5,7,Pin_7*%
%TO.N,Net-(J5-Pad7)*%
X79840000Y-24990000D03*
%TO.P,J5,8,Pin_8*%
%TO.N,Net-(J5-Pad8)*%
X79840000Y-22450000D03*
%TO.P,J5,9,Pin_9*%
%TO.N,Net-(J5-Pad9)*%
X82380000Y-24990000D03*
%TO.P,J5,10,Pin_10*%
%TO.N,Net-(J5-Pad10)*%
X82380000Y-22450000D03*
%TD*%
D10*
%TO.P,U3,1,C*%
%TO.N,/CLK*%
X106080000Y-26655000D03*
D11*
%TO.P,U3,2,K*%
%TO.N,Net-(U2-Pad6)*%
X106080000Y-29195000D03*
%TO.P,U3,3,J*%
%TO.N,Net-(U2-Pad3)*%
X106080000Y-31735000D03*
%TO.P,U3,4,~{S}*%
%TO.N,VCC*%
X106080000Y-34275000D03*
%TO.P,U3,5,Q*%
%TO.N,Net-(J5-Pad9)*%
X106080000Y-36815000D03*
%TO.P,U3,6,~{Q}*%
%TO.N,Net-(J5-Pad10)*%
X106080000Y-39355000D03*
%TO.P,U3,7,GND*%
%TO.N,GND*%
X106080000Y-41895000D03*
%TO.P,U3,8,~{Q}*%
%TO.N,unconnected-(U3-Pad8)*%
X113700000Y-41895000D03*
%TO.P,U3,9,Q*%
%TO.N,unconnected-(U3-Pad9)*%
X113700000Y-39355000D03*
%TO.P,U3,10,~{S}*%
%TO.N,VCC*%
X113700000Y-36815000D03*
%TO.P,U3,11,J*%
%TO.N,GND*%
X113700000Y-34275000D03*
%TO.P,U3,12,K*%
X113700000Y-31735000D03*
%TO.P,U3,13,C*%
%TO.N,/CLK*%
X113700000Y-29195000D03*
%TO.P,U3,14,VCC*%
%TO.N,VCC*%
X113700000Y-26655000D03*
%TD*%
D12*
%TO.P,C12,1*%
%TO.N,VCC*%
X53680000Y-67655000D03*
%TO.P,C12,2*%
%TO.N,GND*%
X46180000Y-67655000D03*
%TD*%
D13*
%TO.P,J2,1,Pin_1*%
%TO.N,GND*%
X41675000Y-77580000D03*
D14*
%TO.P,J2,2,Pin_2*%
%TO.N,/Adder/RS_{7}*%
X41675000Y-75040000D03*
%TO.P,J2,3,Pin_3*%
%TO.N,/Adder/RS_{6}*%
X41675000Y-72500000D03*
%TO.P,J2,4,Pin_4*%
%TO.N,/Adder/RS_{5}*%
X41675000Y-69960000D03*
%TO.P,J2,5,Pin_5*%
%TO.N,/Adder/RS_{4}*%
X41675000Y-67420000D03*
%TO.P,J2,6,Pin_6*%
%TO.N,/Adder/RS_{3}*%
X41675000Y-64880000D03*
%TO.P,J2,7,Pin_7*%
%TO.N,/Adder/RS_{2}*%
X41675000Y-62340000D03*
%TO.P,J2,8,Pin_8*%
%TO.N,/Adder/RS_{1}*%
X41675000Y-59800000D03*
%TO.P,J2,9,Pin_9*%
%TO.N,/Adder/RS_{0}*%
X41675000Y-57260000D03*
%TO.P,J2,10,Pin_10*%
%TO.N,VCC*%
X41675000Y-54720000D03*
%TD*%
D10*
%TO.P,U1,1,C*%
%TO.N,/CLK*%
X93595500Y-26639500D03*
D11*
%TO.P,U1,2,K*%
%TO.N,Net-(J5-Pad5)*%
X93595500Y-29179500D03*
%TO.P,U1,3,J*%
%TO.N,/Adder/C_{Out}*%
X93595500Y-31719500D03*
%TO.P,U1,4,~{S}*%
%TO.N,VCC*%
X93595500Y-34259500D03*
%TO.P,U1,5,Q*%
%TO.N,Net-(J5-Pad7)*%
X93595500Y-36799500D03*
%TO.P,U1,6,~{Q}*%
%TO.N,unconnected-(U1-Pad6)*%
X93595500Y-39339500D03*
%TO.P,U1,7,GND*%
%TO.N,GND*%
X93595500Y-41879500D03*
%TO.P,U1,8,~{Q}*%
%TO.N,unconnected-(U1-Pad8)*%
X101215500Y-41879500D03*
%TO.P,U1,9,Q*%
%TO.N,Net-(J5-Pad8)*%
X101215500Y-39339500D03*
%TO.P,U1,10,~{S}*%
%TO.N,VCC*%
X101215500Y-36799500D03*
%TO.P,U1,11,J*%
%TO.N,/Adder/C_{Flag}*%
X101215500Y-34259500D03*
%TO.P,U1,12,K*%
%TO.N,Net-(J5-Pad4)*%
X101215500Y-31719500D03*
%TO.P,U1,13,C*%
%TO.N,/CLK*%
X101215500Y-29179500D03*
%TO.P,U1,14,VCC*%
%TO.N,VCC*%
X101215500Y-26639500D03*
%TD*%
D10*
%TO.P,U13,1*%
%TO.N,/Adder/RD_{0}*%
X46280000Y-27290000D03*
D11*
%TO.P,U13,2*%
%TO.N,/Adder/RS_{0}*%
X46280000Y-29830000D03*
%TO.P,U13,3*%
%TO.N,Net-(U13-Pad3)*%
X46280000Y-32370000D03*
%TO.P,U13,4*%
%TO.N,/Adder/RS_{1}*%
X46280000Y-34910000D03*
%TO.P,U13,5*%
%TO.N,/Adder/RD_{1}*%
X46280000Y-37450000D03*
%TO.P,U13,6*%
%TO.N,Net-(U13-Pad6)*%
X46280000Y-39990000D03*
%TO.P,U13,7,GND*%
%TO.N,GND*%
X46280000Y-42530000D03*
%TO.P,U13,8*%
%TO.N,Net-(U13-Pad8)*%
X53900000Y-42530000D03*
%TO.P,U13,9*%
%TO.N,/Adder/RD_{2}*%
X53900000Y-39990000D03*
%TO.P,U13,10*%
%TO.N,/Adder/RS_{2}*%
X53900000Y-37450000D03*
%TO.P,U13,11*%
%TO.N,Net-(U13-Pad11)*%
X53900000Y-34910000D03*
%TO.P,U13,12*%
%TO.N,/Adder/RD_{3}*%
X53900000Y-32370000D03*
%TO.P,U13,13*%
%TO.N,/Adder/RS_{3}*%
X53900000Y-29830000D03*
%TO.P,U13,14,VCC*%
%TO.N,VCC*%
X53900000Y-27290000D03*
%TD*%
D15*
%TO.P,U20,14,VCC*%
%TO.N,VCC*%
X106425000Y-111580000D03*
%TO.P,U20,13*%
%TO.N,Net-(RN1-Pad2)*%
X108965000Y-111580000D03*
%TO.P,U20,12*%
%TO.N,Net-(U16-Pad11)*%
X111505000Y-111580000D03*
%TO.P,U20,11*%
%TO.N,Net-(U20-Pad11)*%
X114045000Y-111580000D03*
%TO.P,U20,10*%
%TO.N,Net-(RN1-Pad3)*%
X116585000Y-111580000D03*
%TO.P,U20,9*%
%TO.N,Net-(U16-Pad12)*%
X119125000Y-111580000D03*
%TO.P,U20,8*%
%TO.N,Net-(U20-Pad8)*%
X121665000Y-111580000D03*
%TO.P,U20,7,GND*%
%TO.N,GND*%
X121665000Y-119200000D03*
%TO.P,U20,6*%
%TO.N,Net-(U20-Pad6)*%
X119125000Y-119200000D03*
%TO.P,U20,5*%
%TO.N,Net-(RN1-Pad4)*%
X116585000Y-119200000D03*
%TO.P,U20,4*%
%TO.N,Net-(U16-Pad13)*%
X114045000Y-119200000D03*
%TO.P,U20,3*%
%TO.N,Net-(U20-Pad3)*%
X111505000Y-119200000D03*
%TO.P,U20,2*%
%TO.N,Net-(RN1-Pad5)*%
X108965000Y-119200000D03*
D16*
%TO.P,U20,1*%
%TO.N,Net-(U16-Pad14)*%
X106425000Y-119200000D03*
%TD*%
D12*
%TO.P,C11,1*%
%TO.N,VCC*%
X54090000Y-92670000D03*
%TO.P,C11,2*%
%TO.N,GND*%
X46590000Y-92670000D03*
%TD*%
%TO.P,C9,1*%
%TO.N,VCC*%
X76200000Y-112585000D03*
%TO.P,C9,2*%
%TO.N,GND*%
X68700000Y-112585000D03*
%TD*%
%TO.P,C13,1*%
%TO.N,VCC*%
X113520000Y-22730000D03*
%TO.P,C13,2*%
%TO.N,GND*%
X106020000Y-22730000D03*
%TD*%
%TO.P,C8,1*%
%TO.N,VCC*%
X53740000Y-22595000D03*
%TO.P,C8,2*%
%TO.N,GND*%
X46240000Y-22595000D03*
%TD*%
%TO.P,C14,1*%
%TO.N,VCC*%
X112110000Y-66020000D03*
%TO.P,C14,2*%
%TO.N,GND*%
X112110000Y-73520000D03*
%TD*%
D10*
%TO.P,U5,1*%
%TO.N,/Adder/~{RS}{slash}1*%
X46920000Y-72835000D03*
D11*
%TO.P,U5,2*%
%TO.N,Net-(U5-Pad2)*%
X46920000Y-75375000D03*
%TO.P,U5,3*%
%TO.N,/Compare/RD != RS*%
X46920000Y-77915000D03*
%TO.P,U5,4*%
%TO.N,/Compare/RD == RS*%
X46920000Y-80455000D03*
%TO.P,U5,5*%
%TO.N,/Compare/~{CMP}*%
X46920000Y-82995000D03*
%TO.P,U5,6*%
%TO.N,Net-(U18-Pad19)*%
X46920000Y-85535000D03*
%TO.P,U5,7,GND*%
%TO.N,GND*%
X46920000Y-88075000D03*
%TO.P,U5,8*%
%TO.N,unconnected-(U5-Pad8)*%
X54540000Y-88075000D03*
%TO.P,U5,9*%
%TO.N,unconnected-(U5-Pad9)*%
X54540000Y-85535000D03*
%TO.P,U5,10*%
%TO.N,unconnected-(U5-Pad10)*%
X54540000Y-82995000D03*
%TO.P,U5,11*%
%TO.N,unconnected-(U5-Pad11)*%
X54540000Y-80455000D03*
%TO.P,U5,12*%
%TO.N,unconnected-(U5-Pad12)*%
X54540000Y-77915000D03*
%TO.P,U5,13*%
%TO.N,unconnected-(U5-Pad13)*%
X54540000Y-75375000D03*
%TO.P,U5,14,VCC*%
%TO.N,VCC*%
X54540000Y-72835000D03*
%TD*%
D13*
%TO.P,J1,1,Pin_1*%
%TO.N,GND*%
X41485000Y-44780000D03*
D14*
%TO.P,J1,2,Pin_2*%
%TO.N,/Adder/RD_{7}*%
X41485000Y-42240000D03*
%TO.P,J1,3,Pin_3*%
%TO.N,/Adder/RD_{6}*%
X41485000Y-39700000D03*
%TO.P,J1,4,Pin_4*%
%TO.N,/Adder/RD_{5}*%
X41485000Y-37160000D03*
%TO.P,J1,5,Pin_5*%
%TO.N,/Adder/RD_{4}*%
X41485000Y-34620000D03*
%TO.P,J1,6,Pin_6*%
%TO.N,/Adder/RD_{3}*%
X41485000Y-32080000D03*
%TO.P,J1,7,Pin_7*%
%TO.N,/Adder/RD_{2}*%
X41485000Y-29540000D03*
%TO.P,J1,8,Pin_8*%
%TO.N,/Adder/RD_{1}*%
X41485000Y-27000000D03*
%TO.P,J1,9,Pin_9*%
%TO.N,/Adder/RD_{0}*%
X41485000Y-24460000D03*
%TO.P,J1,10,Pin_10*%
%TO.N,VCC*%
X41485000Y-21920000D03*
%TD*%
D12*
%TO.P,C4,2*%
%TO.N,GND*%
X129930000Y-103210000D03*
%TO.P,C4,1*%
%TO.N,VCC*%
X137430000Y-103210000D03*
%TD*%
D10*
%TO.P,U14,1*%
%TO.N,/Adder/RD_{4}*%
X46160000Y-48925000D03*
D11*
%TO.P,U14,2*%
%TO.N,/Adder/RS_{4}*%
X46160000Y-51465000D03*
%TO.P,U14,3*%
%TO.N,Net-(U14-Pad3)*%
X46160000Y-54005000D03*
%TO.P,U14,4*%
%TO.N,/Adder/RD_{5}*%
X46160000Y-56545000D03*
%TO.P,U14,5*%
%TO.N,/Adder/RS_{5}*%
X46160000Y-59085000D03*
%TO.P,U14,6*%
%TO.N,Net-(U14-Pad6)*%
X46160000Y-61625000D03*
%TO.P,U14,7,GND*%
%TO.N,GND*%
X46160000Y-64165000D03*
%TO.P,U14,8*%
%TO.N,Net-(U14-Pad8)*%
X53780000Y-64165000D03*
%TO.P,U14,9*%
%TO.N,/Adder/RD_{6}*%
X53780000Y-61625000D03*
%TO.P,U14,10*%
%TO.N,/Adder/RS_{6}*%
X53780000Y-59085000D03*
%TO.P,U14,11*%
%TO.N,Net-(U14-Pad11)*%
X53780000Y-56545000D03*
%TO.P,U14,12*%
%TO.N,/Adder/RD_{7}*%
X53780000Y-54005000D03*
%TO.P,U14,13*%
%TO.N,/Adder/RS_{7}*%
X53780000Y-51465000D03*
%TO.P,U14,14,VCC*%
%TO.N,VCC*%
X53780000Y-48925000D03*
%TD*%
D12*
%TO.P,C7,1*%
%TO.N,VCC*%
X101165500Y-22244500D03*
%TO.P,C7,2*%
%TO.N,GND*%
X93665500Y-22244500D03*
%TD*%
%TO.P,C6,1*%
%TO.N,VCC*%
X82210000Y-119380000D03*
%TO.P,C6,2*%
%TO.N,GND*%
X89710000Y-119380000D03*
%TD*%
D10*
%TO.P,U4,1*%
%TO.N,Net-(U4-Pad1)*%
X70200000Y-74105000D03*
D11*
%TO.P,U4,2*%
%TO.N,/Adder/SUB*%
X70200000Y-76645000D03*
%TO.P,U4,3*%
%TO.N,Net-(U10-Pad16)*%
X70200000Y-79185000D03*
%TO.P,U4,4*%
%TO.N,Net-(U4-Pad4)*%
X70200000Y-81725000D03*
%TO.P,U4,5*%
%TO.N,/Adder/SUB*%
X70200000Y-84265000D03*
%TO.P,U4,6*%
%TO.N,Net-(U10-Pad4)*%
X70200000Y-86805000D03*
%TO.P,U4,7,GND*%
%TO.N,GND*%
X70200000Y-89345000D03*
%TO.P,U4,8*%
%TO.N,Net-(U10-Pad7)*%
X77820000Y-89345000D03*
%TO.P,U4,9*%
%TO.N,/Adder/SUB*%
X77820000Y-86805000D03*
%TO.P,U4,10*%
%TO.N,Net-(U4-Pad10)*%
X77820000Y-84265000D03*
%TO.P,U4,11*%
%TO.N,Net-(U10-Pad11)*%
X77820000Y-81725000D03*
%TO.P,U4,12*%
%TO.N,/Adder/SUB*%
X77820000Y-79185000D03*
%TO.P,U4,13*%
%TO.N,Net-(U4-Pad13)*%
X77820000Y-76645000D03*
%TO.P,U4,14,VCC*%
%TO.N,VCC*%
X77820000Y-74105000D03*
%TD*%
D17*
%TO.P,RN1,9,R8*%
%TO.N,Net-(RN1-Pad9)*%
X119420000Y-87735000D03*
%TO.P,RN1,8,R7*%
%TO.N,Net-(RN1-Pad8)*%
X119420000Y-90275000D03*
%TO.P,RN1,7,R6*%
%TO.N,Net-(RN1-Pad7)*%
X119420000Y-92815000D03*
%TO.P,RN1,6,R5*%
%TO.N,Net-(RN1-Pad6)*%
X119420000Y-95355000D03*
%TO.P,RN1,5,R4*%
%TO.N,Net-(RN1-Pad5)*%
X119420000Y-97895000D03*
%TO.P,RN1,4,R3*%
%TO.N,Net-(RN1-Pad4)*%
X119420000Y-100435000D03*
%TO.P,RN1,3,R2*%
%TO.N,Net-(RN1-Pad3)*%
X119420000Y-102975000D03*
%TO.P,RN1,2,R1*%
%TO.N,Net-(RN1-Pad2)*%
X119420000Y-105515000D03*
D18*
%TO.P,RN1,1,common*%
%TO.N,GND*%
X119420000Y-108055000D03*
%TD*%
D13*
%TO.P,J3,1,Pin_1*%
%TO.N,VCC*%
X57850000Y-25120000D03*
D14*
%TO.P,J3,2,Pin_2*%
%TO.N,/Adder/SUB*%
X57850000Y-22580000D03*
%TO.P,J3,3,Pin_3*%
%TO.N,Net-(J3-Pad3)*%
X60390000Y-25120000D03*
%TO.P,J3,4,Pin_4*%
%TO.N,unconnected-(J3-Pad4)*%
X60390000Y-22580000D03*
%TO.P,J3,5,Pin_5*%
%TO.N,/NAND/~{NAND}*%
X62930000Y-25120000D03*
%TO.P,J3,6,Pin_6*%
%TO.N,GND*%
X62930000Y-22580000D03*
%TO.P,J3,7,Pin_7*%
%TO.N,Net-(J3-Pad7)*%
X65470000Y-25120000D03*
%TO.P,J3,8,Pin_8*%
%TO.N,/Compare/~{CMP}*%
X65470000Y-22580000D03*
%TO.P,J3,9,Pin_9*%
%TO.N,/Adder/~{RS}{slash}1*%
X68010000Y-25120000D03*
%TO.P,J3,10,Pin_10*%
%TO.N,/Adder/~{Adder}*%
X68010000Y-22580000D03*
%TD*%
D11*
%TO.P,U19,14,VCC*%
%TO.N,VCC*%
X126270000Y-63280000D03*
%TO.P,U19,13*%
%TO.N,Net-(RN1-Pad6)*%
X126270000Y-65820000D03*
%TO.P,U19,12*%
%TO.N,Net-(U16-Pad15)*%
X126270000Y-68360000D03*
%TO.P,U19,11*%
%TO.N,Net-(U19-Pad11)*%
X126270000Y-70900000D03*
%TO.P,U19,10*%
%TO.N,Net-(RN1-Pad7)*%
X126270000Y-73440000D03*
%TO.P,U19,9*%
%TO.N,Net-(U16-Pad16)*%
X126270000Y-75980000D03*
%TO.P,U19,8*%
%TO.N,Net-(U19-Pad8)*%
X126270000Y-78520000D03*
%TO.P,U19,7,GND*%
%TO.N,GND*%
X118650000Y-78520000D03*
%TO.P,U19,6*%
%TO.N,Net-(U19-Pad6)*%
X118650000Y-75980000D03*
%TO.P,U19,5*%
%TO.N,Net-(RN1-Pad8)*%
X118650000Y-73440000D03*
%TO.P,U19,4*%
%TO.N,Net-(U16-Pad17)*%
X118650000Y-70900000D03*
%TO.P,U19,3*%
%TO.N,Net-(U19-Pad3)*%
X118650000Y-68360000D03*
%TO.P,U19,2*%
%TO.N,Net-(RN1-Pad9)*%
X118650000Y-65820000D03*
D10*
%TO.P,U19,1*%
%TO.N,Net-(U16-Pad18)*%
X118650000Y-63280000D03*
%TD*%
D19*
%TO.N,Net-(U20-Pad8)*%
X124170500Y-72262100D03*
%TO.N,Net-(U16-Pad13)*%
X113981600Y-69561000D03*
%TO.N,Net-(U16-Pad11)*%
X111505000Y-76878000D03*
%TO.N,/Adder/Out_{1}*%
X124105000Y-45494200D03*
X120443000Y-89311600D03*
%TO.N,Net-(U10-Pad6)*%
X95775100Y-93275100D03*
%TO.N,Net-(U10-Pad2)*%
X82139400Y-93281000D03*
%TO.N,Net-(U6-Pad10)*%
X72254700Y-90556400D03*
%TO.N,Net-(U6-Pad5)*%
X72041600Y-88166200D03*
X73073100Y-103570600D03*
%TO.N,Net-(U6-Pad2)*%
X68081600Y-82873700D03*
%TO.N,Net-(U18-Pad19)*%
X50732000Y-89248000D03*
X74711900Y-87832900D03*
X74711900Y-80910200D03*
X97750700Y-83596000D03*
X98636500Y-51045500D03*
%TO.N,Net-(U4-Pad10)*%
X72452800Y-77566500D03*
%TO.N,Net-(U10-Pad4)*%
X74556100Y-91856700D03*
X80853700Y-92451100D03*
%TO.N,Net-(U2-Pad6)*%
X95643300Y-30352500D03*
%TO.N,/Compare/RD == RS*%
X52725500Y-84610900D03*
X61022500Y-69408900D03*
X74791600Y-68567000D03*
%TO.N,Net-(U2-Pad3)*%
X103089800Y-34186600D03*
X98595700Y-39658000D03*
X95360200Y-40667900D03*
X86982200Y-42715000D03*
%TO.N,/Compare/RD != RS*%
X79093400Y-66137300D03*
X47696300Y-67681800D03*
X52327200Y-74706000D03*
%TO.N,Net-(RN1-Pad7)*%
X125024500Y-80743000D03*
X121441300Y-78904700D03*
%TO.N,Net-(RN1-Pad5)*%
X113512500Y-107872200D03*
%TO.N,Net-(J5-Pad10)*%
X98033600Y-34828500D03*
%TO.N,/Adder/Out_{7}*%
X100112800Y-56527500D03*
X76922500Y-31281400D03*
X104194300Y-64974200D03*
X111865700Y-68457800D03*
%TO.N,/Adder/Out_{6}*%
X91773100Y-48282700D03*
X85591700Y-33225800D03*
%TO.N,/Adder/Out_{5}*%
X105285400Y-88174400D03*
X79720900Y-74825000D03*
%TO.N,/Adder/Out_{4}*%
X115276800Y-52650600D03*
X110633200Y-104863500D03*
%TO.N,/Adder/Out_{3}*%
X119025000Y-42782100D03*
X99391400Y-42781300D03*
%TO.N,/Adder/Out_{2}*%
X98218900Y-46231900D03*
%TO.N,/Adder/Out_{0}*%
X98490900Y-44255400D03*
%TO.N,/Adder/~{Adder}*%
X96914000Y-36643800D03*
X97461200Y-38385700D03*
X96561000Y-90880400D03*
%TO.N,/Compare/~{CMP}*%
X108613500Y-38906500D03*
X39502000Y-84114700D03*
%TO.N,/Adder/RS_{0}*%
X49141200Y-78153100D03*
X60497600Y-72620900D03*
%TO.N,/Adder/RS_{1}*%
X48423800Y-63855200D03*
%TO.N,/Adder/RS_{2}*%
X55095500Y-67097800D03*
%TO.N,/Adder/RS_{3}*%
X58833100Y-31761900D03*
X60123300Y-63967600D03*
%TO.N,/Adder/RS_{5}*%
X109115100Y-107673900D03*
%TO.N,/Adder/RS_{7}*%
X59375100Y-84780600D03*
X71398100Y-85556900D03*
X76041500Y-99160100D03*
%TO.N,/Adder/RD_{1}*%
X81041000Y-63475600D03*
X58948100Y-59944100D03*
X55139900Y-45824400D03*
%TO.N,/Adder/RD_{2}*%
X49705000Y-28704900D03*
X49705000Y-39990000D03*
X70164300Y-55420800D03*
X71954600Y-54765000D03*
%TO.N,/Adder/RD_{3}*%
X55414200Y-60530700D03*
X85157300Y-64562600D03*
%TO.N,/Adder/RD_{4}*%
X81139100Y-106972200D03*
%TO.N,/Adder/RD_{6}*%
X50518100Y-48254500D03*
%TO.N,/Adder/RD_{7}*%
X51618500Y-46176000D03*
X58826100Y-66318900D03*
%TD*%
D20*
%TO.N,Net-(U21-Pad3)*%
X136324900Y-73059800D02*
X131755100Y-68490000D01*
X136324900Y-76110000D02*
X136324900Y-73059800D01*
X137850000Y-76110000D02*
X136324900Y-76110000D01*
X130230000Y-68490000D02*
X131755100Y-68490000D01*
%TO.N,Net-(U20-Pad11)*%
X114045000Y-111580000D02*
X114045000Y-110054900D01*
X137850000Y-65950000D02*
X136324900Y-65950000D01*
X132628800Y-62253900D02*
X136324900Y-65950000D01*
X128897000Y-62253900D02*
X132628800Y-62253900D01*
X127795200Y-63355700D02*
X128897000Y-62253900D01*
X127795200Y-66298000D02*
X127795200Y-63355700D01*
X127003200Y-67090000D02*
X127795200Y-66298000D01*
X125532000Y-67090000D02*
X127003200Y-67090000D01*
X123066600Y-69555400D02*
X125532000Y-67090000D01*
X123066600Y-93319000D02*
X123066600Y-69555400D01*
X119848700Y-96536900D02*
X123066600Y-93319000D01*
X119183000Y-96536900D02*
X119848700Y-96536900D01*
X117851600Y-97868300D02*
X119183000Y-96536900D01*
X117851600Y-99372400D02*
X117851600Y-97868300D01*
X115934000Y-101290000D02*
X117851600Y-99372400D01*
X114481200Y-101290000D02*
X115934000Y-101290000D01*
X113684900Y-102086300D02*
X114481200Y-101290000D01*
X113684900Y-106089100D02*
X113684900Y-102086300D01*
X114238700Y-106642900D02*
X113684900Y-106089100D01*
X114238700Y-109861200D02*
X114238700Y-106642900D01*
X114045000Y-110054900D02*
X114238700Y-109861200D01*
%TO.N,Net-(U20-Pad8)*%
X121665000Y-111580000D02*
X121665000Y-110054900D01*
X123844700Y-107875200D02*
X121665000Y-110054900D01*
X123844700Y-72587900D02*
X123844700Y-107875200D01*
X124170500Y-72262100D02*
X123844700Y-72587900D01*
%TO.N,Net-(U16-Pad18)*%
X118650000Y-63280000D02*
X120175100Y-63280000D01*
X124105000Y-56030000D02*
X124105000Y-57555100D01*
X124105000Y-59350100D02*
X124105000Y-57555100D01*
X120175100Y-63280000D02*
X124105000Y-59350100D01*
%TO.N,Net-(U16-Pad17)*%
X118650000Y-70900000D02*
X117124900Y-70900000D01*
X121565000Y-58900100D02*
X121565000Y-56030000D01*
X118353200Y-62111900D02*
X121565000Y-58900100D01*
X117342500Y-62111900D02*
X118353200Y-62111900D01*
X117124900Y-62329500D02*
X117342500Y-62111900D01*
X117124900Y-70900000D02*
X117124900Y-62329500D01*
%TO.N,Net-(U16-Pad14)*%
X106425000Y-119200000D02*
X106425000Y-117674900D01*
X110090200Y-114009700D02*
X106425000Y-117674900D01*
X110090200Y-105345900D02*
X110090200Y-114009700D01*
X109908100Y-105163800D02*
X110090200Y-105345900D01*
X109908100Y-104563200D02*
X109908100Y-105163800D01*
X110090200Y-104381100D02*
X109908100Y-104563200D01*
X110090200Y-78421000D02*
X110090200Y-104381100D01*
X109583900Y-77914700D02*
X110090200Y-78421000D01*
X109583900Y-72296600D02*
X109583900Y-77914700D01*
X113945000Y-67935500D02*
X109583900Y-72296600D01*
X113945000Y-56030000D02*
X113945000Y-67935500D01*
%TO.N,Net-(U16-Pad13)*%
X114045000Y-119200000D02*
X114045000Y-117674900D01*
X112775000Y-116404900D02*
X114045000Y-117674900D01*
X112775000Y-76897600D02*
X112775000Y-116404900D01*
X110484100Y-74606700D02*
X112775000Y-76897600D01*
X110484100Y-72899300D02*
X110484100Y-74606700D01*
X113822400Y-69561000D02*
X110484100Y-72899300D01*
X113981600Y-69561000D02*
X113822400Y-69561000D01*
%TO.N,Net-(U16-Pad12)*%
X101740000Y-67465000D02*
X103265100Y-67465000D01*
X108865000Y-56030000D02*
X108865000Y-54504900D01*
X105841800Y-54504900D02*
X108865000Y-54504900D01*
X104947500Y-55399200D02*
X105841800Y-54504900D01*
X104947500Y-65782600D02*
X104947500Y-55399200D01*
X103265100Y-67465000D02*
X104947500Y-65782600D01*
%TO.N,Net-(U16-Pad11)*%
X101740000Y-70005000D02*
X103265100Y-70005000D01*
X106325000Y-66945100D02*
X103265100Y-70005000D01*
X106325000Y-56030000D02*
X106325000Y-66945100D01*
X111505000Y-111580000D02*
X111505000Y-110054900D01*
X111505000Y-110054900D02*
X111505000Y-76878000D01*
%TO.N,Net-(U14-Pad8)*%
X56324900Y-63145200D02*
X55305100Y-64165000D01*
X56324900Y-52820000D02*
X56324900Y-63145200D01*
X57850000Y-52820000D02*
X56324900Y-52820000D01*
X53780000Y-64165000D02*
X55305100Y-64165000D01*
%TO.N,Net-(U13-Pad11)*%
X56324900Y-35809800D02*
X55425100Y-34910000D01*
X56324900Y-45200000D02*
X56324900Y-35809800D01*
X57850000Y-45200000D02*
X56324900Y-45200000D01*
X53900000Y-34910000D02*
X55425100Y-34910000D01*
%TO.N,/Adder/Out_{1}*%
X63050000Y-29440000D02*
X63050000Y-30615100D01*
X65470000Y-42660000D02*
X63944900Y-42660000D01*
X63050000Y-41765100D02*
X63944900Y-42660000D01*
X63050000Y-30615100D02*
X63050000Y-41765100D01*
X124105000Y-46884900D02*
X124105000Y-45494200D01*
X124105000Y-47647400D02*
X124105000Y-46884900D01*
X124105000Y-47647400D02*
X124105000Y-48410000D01*
X124105000Y-48410000D02*
X124105000Y-49935100D01*
X120625300Y-89129300D02*
X120443000Y-89311600D01*
X120625300Y-65023000D02*
X120625300Y-89129300D01*
X124555200Y-61093100D02*
X120625300Y-65023000D01*
X124555200Y-57779800D02*
X124555200Y-61093100D01*
X125272400Y-57062600D02*
X124555200Y-57779800D01*
X125272400Y-51102500D02*
X125272400Y-57062600D01*
X124105000Y-49935100D02*
X125272400Y-51102500D01*
%TO.N,Net-(U11-Pad9)*%
X88764900Y-107583500D02*
X88764900Y-115670000D01*
X89568400Y-106780000D02*
X88764900Y-107583500D01*
X91237100Y-106780000D02*
X89568400Y-106780000D01*
X92724900Y-105292200D02*
X91237100Y-106780000D01*
X92724900Y-104625000D02*
X92724900Y-105292200D01*
X94250000Y-104625000D02*
X92724900Y-104625000D01*
X90290000Y-115670000D02*
X88764900Y-115670000D01*
%TO.N,Net-(U10-Pad15)*%
X92724900Y-76819800D02*
X91715100Y-75810000D01*
X92724900Y-102085000D02*
X92724900Y-76819800D01*
X94250000Y-102085000D02*
X92724900Y-102085000D01*
X90190000Y-75810000D02*
X91715100Y-75810000D01*
%TO.N,Net-(U10-Pad6)*%
X94250000Y-97005000D02*
X95775100Y-97005000D01*
X95775100Y-97005000D02*
X95775100Y-93275100D01*
%TO.N,Net-(U10-Pad2)*%
X82570000Y-75810000D02*
X81044900Y-75810000D01*
X81044900Y-78827100D02*
X81044900Y-75810000D01*
X81763900Y-79546100D02*
X81044900Y-78827100D01*
X83239200Y-79546100D02*
X81763900Y-79546100D01*
X84995400Y-81302300D02*
X83239200Y-79546100D01*
X84995400Y-91423500D02*
X84995400Y-81302300D01*
X83561900Y-92857000D02*
X84995400Y-91423500D01*
X82563400Y-92857000D02*
X83561900Y-92857000D01*
X82139400Y-93281000D02*
X82563400Y-92857000D01*
%TO.N,Net-(U21-Pad4)*%
X134219200Y-97519300D02*
X136344900Y-99645000D01*
X134219200Y-73494100D02*
X134219200Y-97519300D01*
X131755100Y-71030000D02*
X134219200Y-73494100D01*
X130230000Y-71030000D02*
X131755100Y-71030000D01*
X137870000Y-99645000D02*
X136344900Y-99645000D01*
%TO.N,Net-(U21-Pad2)*%
X128704900Y-87425000D02*
X128704900Y-65950000D01*
X129494900Y-88215000D02*
X128704900Y-87425000D01*
X131003200Y-88215000D02*
X129494900Y-88215000D01*
X131775100Y-88986900D02*
X131003200Y-88215000D01*
X131775100Y-97105000D02*
X131775100Y-88986900D01*
X130250000Y-97105000D02*
X131775100Y-97105000D01*
X130230000Y-65950000D02*
X128704900Y-65950000D01*
%TO.N,Net-(U19-Pad11)*%
X126270000Y-70900000D02*
X124744900Y-70900000D01*
X130250000Y-94565000D02*
X128724900Y-94565000D01*
X124294800Y-90134900D02*
X128724900Y-94565000D01*
X124294800Y-73163300D02*
X124294800Y-90134900D01*
X124895600Y-72562500D02*
X124294800Y-73163300D01*
X124895600Y-71961700D02*
X124895600Y-72562500D01*
X124744900Y-71811000D02*
X124895600Y-71961700D01*
X124744900Y-70900000D02*
X124744900Y-71811000D01*
%TO.N,Net-(U19-Pad8)*%
X126270000Y-78520000D02*
X127795100Y-78520000D01*
X130250000Y-92025000D02*
X128724900Y-92025000D01*
X127795100Y-91095200D02*
X127795100Y-78520000D01*
X128724900Y-92025000D02*
X127795100Y-91095200D01*
%TO.N,Net-(U21-Pad1)*%
X130250000Y-89485000D02*
X128724900Y-89485000D01*
X130230000Y-63410000D02*
X128704900Y-63410000D01*
X128254800Y-89014900D02*
X128724900Y-89485000D01*
X128254800Y-63860100D02*
X128254800Y-89014900D01*
X128704900Y-63410000D02*
X128254800Y-63860100D01*
%TO.N,Net-(U6-Pad13)*%
X79225100Y-103347000D02*
X79225100Y-95260000D01*
X78422100Y-104150000D02*
X79225100Y-103347000D01*
X76966000Y-104150000D02*
X78422100Y-104150000D01*
X76174900Y-104941100D02*
X76966000Y-104150000D01*
X76174900Y-108760200D02*
X76174900Y-104941100D01*
X66225100Y-118710000D02*
X76174900Y-108760200D01*
X64700000Y-118710000D02*
X66225100Y-118710000D01*
X77700000Y-95260000D02*
X79225100Y-95260000D01*
%TO.N,Net-(U6-Pad10)*%
X77700000Y-102880000D02*
X76287500Y-102880000D01*
X76287500Y-102880000D02*
X73796000Y-105371500D01*
X66732900Y-116170000D02*
X64700000Y-116170000D01*
X73796000Y-109106900D02*
X66732900Y-116170000D01*
X73796000Y-105371500D02*
X73796000Y-109106900D01*
X72254700Y-103830200D02*
X72254700Y-90556400D01*
X73796000Y-105371500D02*
X72254700Y-103830200D01*
%TO.N,Net-(U6-Pad5)*%
X70080000Y-103428900D02*
X70080000Y-102880000D01*
X67614900Y-105894000D02*
X70080000Y-103428900D01*
X67614900Y-110715100D02*
X67614900Y-105894000D01*
X66225100Y-112104900D02*
X67614900Y-110715100D01*
X66225100Y-113630000D02*
X66225100Y-112104900D01*
X65133600Y-113630000D02*
X66225100Y-113630000D01*
X65133600Y-113630000D02*
X64700000Y-113630000D01*
X73073100Y-89197700D02*
X73073100Y-103570600D01*
X72041600Y-88166200D02*
X73073100Y-89197700D01*
%TO.N,Net-(U6-Pad2)*%
X64700000Y-111090000D02*
X66225100Y-111090000D01*
X70080000Y-95260000D02*
X68554900Y-95260000D01*
X68554800Y-104317500D02*
X68554800Y-95260000D01*
X66225100Y-106647200D02*
X68554800Y-104317500D01*
X66225100Y-111090000D02*
X66225100Y-106647200D01*
X68554800Y-95260000D02*
X68554900Y-95260000D01*
X68081600Y-94786800D02*
X68081600Y-82873700D01*
X68554800Y-95260000D02*
X68081600Y-94786800D01*
%TO.N,Net-(U18-Pad19)*%
X74711900Y-80910200D02*
X74711900Y-87832900D01*
X48445100Y-86961100D02*
X50732000Y-89248000D01*
X48445100Y-85535000D02*
X48445100Y-86961100D01*
X46920000Y-85535000D02*
X48445100Y-85535000D01*
X98361400Y-51320600D02*
X98636500Y-51045500D01*
X98361400Y-82985300D02*
X98361400Y-51320600D01*
X97750700Y-83596000D02*
X98361400Y-82985300D01*
%TO.N,Net-(U5-Pad2)*%
X47397400Y-75375000D02*
X46920000Y-75375000D01*
X50049300Y-78026900D02*
X47397400Y-75375000D01*
X50049300Y-86245900D02*
X50049300Y-78026900D01*
X62193400Y-98390000D02*
X50049300Y-86245900D01*
X64700000Y-98390000D02*
X62193400Y-98390000D01*
%TO.N,Net-(U4-Pad13)*%
X65470000Y-80940000D02*
X63944900Y-80940000D01*
X64700000Y-108550000D02*
X63174900Y-108550000D01*
X63174900Y-105543800D02*
X63174900Y-108550000D01*
X64123500Y-104595200D02*
X63174900Y-105543800D01*
X65618500Y-104595200D02*
X64123500Y-104595200D01*
X67158100Y-103055600D02*
X65618500Y-104595200D01*
X67158100Y-85685300D02*
X67158100Y-103055600D01*
X66296700Y-84823900D02*
X67158100Y-85685300D01*
X64747600Y-84823900D02*
X66296700Y-84823900D01*
X63944900Y-84021200D02*
X64747600Y-84823900D01*
X63944900Y-80940000D02*
X63944900Y-84021200D01*
%TO.N,Net-(U4-Pad10)*%
X76294900Y-81408600D02*
X72452800Y-77566500D01*
X76294900Y-84265000D02*
X76294900Y-81408600D01*
X77820000Y-84265000D02*
X76294900Y-84265000D01*
X65470000Y-78400000D02*
X66995100Y-78400000D01*
X64700000Y-106010000D02*
X66225100Y-106010000D01*
X67608300Y-104626800D02*
X66225100Y-106010000D01*
X67608300Y-83439100D02*
X67608300Y-104626800D01*
X66995100Y-82825900D02*
X67608300Y-83439100D01*
X66995100Y-78400000D02*
X66995100Y-82825900D01*
%TO.N,Net-(U10-Pad4)*%
X80953700Y-92351100D02*
X80853700Y-92451100D01*
X83431200Y-92351100D02*
X80953700Y-92351100D01*
X84545300Y-91237000D02*
X83431200Y-92351100D01*
X84545300Y-82746300D02*
X84545300Y-91237000D01*
X82689000Y-80890000D02*
X84545300Y-82746300D01*
X82570000Y-80890000D02*
X82689000Y-80890000D01*
X74556100Y-89636000D02*
X74556100Y-91856700D01*
X71725100Y-86805000D02*
X74556100Y-89636000D01*
X70200000Y-86805000D02*
X71725100Y-86805000D01*
%TO.N,Net-(U4-Pad4)*%
X70200000Y-81725000D02*
X68787500Y-81725000D01*
X65903600Y-75860000D02*
X66995100Y-75860000D01*
X65903600Y-75860000D02*
X65470000Y-75860000D01*
X65470000Y-75860000D02*
X63944900Y-75860000D01*
X67445200Y-76310100D02*
X66995100Y-75860000D01*
X67445200Y-80382700D02*
X67445200Y-76310100D01*
X68787500Y-81725000D02*
X67445200Y-80382700D01*
X63484300Y-76320600D02*
X63944900Y-75860000D01*
X63484300Y-91224600D02*
X63484300Y-76320600D01*
X66683600Y-94423900D02*
X63484300Y-91224600D01*
X66683600Y-101486400D02*
X66683600Y-94423900D01*
X64700000Y-103470000D02*
X66683600Y-101486400D01*
%TO.N,Net-(U4-Pad1)*%
X65470000Y-73320000D02*
X63944900Y-73320000D01*
X64700000Y-100930000D02*
X66225100Y-100930000D01*
X63008700Y-74256200D02*
X63944900Y-73320000D01*
X63008700Y-96150200D02*
X63008700Y-74256200D01*
X63978500Y-97120000D02*
X63008700Y-96150200D01*
X65470700Y-97120000D02*
X63978500Y-97120000D01*
X66225100Y-97874400D02*
X65470700Y-97120000D01*
X66225100Y-100930000D02*
X66225100Y-97874400D01*
%TO.N,Net-(U2-Pad6)*%
X80014900Y-53391900D02*
X80014900Y-50335000D01*
X80635400Y-54012400D02*
X80014900Y-53391900D01*
X82564400Y-54012400D02*
X80635400Y-54012400D01*
X84811600Y-51765200D02*
X82564400Y-54012400D01*
X84811600Y-32925900D02*
X84811600Y-51765200D01*
X88403900Y-29333600D02*
X84811600Y-32925900D01*
X90132100Y-29333600D02*
X88403900Y-29333600D01*
X91151000Y-30352500D02*
X90132100Y-29333600D01*
X95643300Y-30352500D02*
X91151000Y-30352500D01*
X81540000Y-50335000D02*
X80014900Y-50335000D01*
%TO.N,/Compare/RD == RS*%
X81540000Y-47795000D02*
X80014900Y-47795000D01*
X80014900Y-42239800D02*
X80014900Y-47795000D01*
X80809700Y-41445000D02*
X80014900Y-42239800D01*
X82327500Y-41445000D02*
X80809700Y-41445000D01*
X83065100Y-40707400D02*
X82327500Y-41445000D01*
X83065100Y-39708900D02*
X83065100Y-40707400D01*
X82116400Y-38760200D02*
X83065100Y-39708900D01*
X80202300Y-38760200D02*
X82116400Y-38760200D01*
X79354100Y-37912000D02*
X80202300Y-38760200D01*
X79354100Y-34093000D02*
X79354100Y-37912000D01*
X77948200Y-32687100D02*
X79354100Y-34093000D01*
X76898600Y-32687100D02*
X77948200Y-32687100D01*
X74791600Y-34794100D02*
X76898600Y-32687100D01*
X74791600Y-68567000D02*
X74791600Y-34794100D01*
X61238500Y-69624900D02*
X61022500Y-69408900D01*
X61238500Y-87181800D02*
X61238500Y-69624900D01*
X58667700Y-89752600D02*
X61238500Y-87181800D01*
X54192600Y-89752600D02*
X58667700Y-89752600D01*
X52725500Y-88285500D02*
X54192600Y-89752600D01*
X52725500Y-84610900D02*
X52725500Y-88285500D01*
%TO.N,Net-(U2-Pad3)*%
X86982200Y-45102900D02*
X86982200Y-42715000D01*
X88549100Y-46669800D02*
X86982200Y-45102900D01*
X90073000Y-46669800D02*
X88549100Y-46669800D01*
X90739800Y-47336600D02*
X90073000Y-46669800D01*
X90739800Y-48275000D02*
X90739800Y-47336600D01*
X91472700Y-49007900D02*
X90739800Y-48275000D01*
X92073500Y-49007900D02*
X91472700Y-49007900D01*
X92620100Y-48461300D02*
X92073500Y-49007900D01*
X95277500Y-48461300D02*
X92620100Y-48461300D01*
X95645200Y-48093600D02*
X95277500Y-48461300D01*
X95645200Y-40952900D02*
X95645200Y-48093600D01*
X95360200Y-40667900D02*
X95645200Y-40952900D01*
X98595700Y-37395800D02*
X98595700Y-39658000D01*
X100606800Y-35384700D02*
X98595700Y-37395800D01*
X102134200Y-35384700D02*
X100606800Y-35384700D01*
X103089800Y-34429100D02*
X102134200Y-35384700D01*
X103089800Y-34186600D02*
X103089800Y-34429100D01*
%TO.N,/Compare/RD != RS*%
X47696300Y-70075100D02*
X52327200Y-74706000D01*
X47696300Y-67681800D02*
X47696300Y-70075100D01*
X81540000Y-40175000D02*
X80014900Y-40175000D01*
X79093400Y-41096500D02*
X79093400Y-66137300D01*
X80014900Y-40175000D02*
X79093400Y-41096500D01*
%TO.N,/Adder/C_{Flag}*%
X90190000Y-78350000D02*
X91602600Y-78350000D01*
X90290000Y-105510000D02*
X91815100Y-105510000D01*
X101215500Y-34259500D02*
X99690400Y-34259500D01*
X90190000Y-78350000D02*
X88664900Y-78350000D01*
X92265200Y-79012600D02*
X91602600Y-78350000D01*
X92265200Y-105059900D02*
X92265200Y-79012600D01*
X91815100Y-105510000D02*
X92265200Y-105059900D01*
X88664900Y-75343800D02*
X88664900Y-78350000D01*
X89387600Y-74621100D02*
X88664900Y-75343800D01*
X92177200Y-74621100D02*
X89387600Y-74621100D01*
X97011100Y-69787200D02*
X92177200Y-74621100D01*
X97011100Y-39588300D02*
X97011100Y-69787200D01*
X96656000Y-39233200D02*
X97011100Y-39588300D01*
X96656000Y-37930400D02*
X96656000Y-39233200D01*
X99690400Y-34896000D02*
X96656000Y-37930400D01*
X99690400Y-34259500D02*
X99690400Y-34896000D01*
%TO.N,/Adder/C_{Out}*%
X93595500Y-31719500D02*
X95120600Y-31719500D01*
X90290000Y-102970000D02*
X91815100Y-102970000D01*
X91815100Y-80512400D02*
X91815100Y-102970000D01*
X90922700Y-79620000D02*
X91815100Y-80512400D01*
X89259700Y-79620000D02*
X90922700Y-79620000D01*
X88214800Y-78575100D02*
X89259700Y-79620000D01*
X88214800Y-73251100D02*
X88214800Y-78575100D01*
X90190800Y-71275100D02*
X88214800Y-73251100D01*
X94884500Y-71275100D02*
X90190800Y-71275100D01*
X96561000Y-69598600D02*
X94884500Y-71275100D01*
X96561000Y-39774800D02*
X96561000Y-69598600D01*
X95120600Y-38334400D02*
X96561000Y-39774800D01*
X95120600Y-31719500D02*
X95120600Y-38334400D01*
%TO.N,Net-(RN1-Pad9)*%
X118650000Y-65820000D02*
X120175100Y-65820000D01*
X119420000Y-87735000D02*
X119420000Y-86609900D01*
X120175100Y-85854800D02*
X119420000Y-86609900D01*
X120175100Y-65820000D02*
X120175100Y-85854800D01*
%TO.N,Net-(RN1-Pad8)*%
X119186800Y-89149900D02*
X119420000Y-89149900D01*
X117124900Y-87088000D02*
X119186800Y-89149900D01*
X117124900Y-73440000D02*
X117124900Y-87088000D01*
X118650000Y-73440000D02*
X117124900Y-73440000D01*
X119420000Y-90275000D02*
X119420000Y-89149900D01*
%TO.N,Net-(RN1-Pad7)*%
X119653100Y-91689900D02*
X119420000Y-91689900D01*
X121441300Y-89901700D02*
X119653100Y-91689900D01*
X121441300Y-78904700D02*
X121441300Y-89901700D01*
X119420000Y-92815000D02*
X119420000Y-91689900D01*
X124744900Y-80463400D02*
X125024500Y-80743000D01*
X124744900Y-73440000D02*
X124744900Y-80463400D01*
X126270000Y-73440000D02*
X124744900Y-73440000D01*
%TO.N,Net-(RN1-Pad6)*%
X126270000Y-65820000D02*
X124744900Y-65820000D01*
X119420000Y-95355000D02*
X119420000Y-94229900D01*
X122166400Y-68398500D02*
X124744900Y-65820000D01*
X122166400Y-91716600D02*
X122166400Y-68398500D01*
X119653100Y-94229900D02*
X122166400Y-91716600D01*
X119420000Y-94229900D02*
X119653100Y-94229900D01*
%TO.N,Net-(RN1-Pad5)*%
X115210000Y-97480000D02*
X113684900Y-97480000D01*
X113234800Y-107594500D02*
X113512500Y-107872200D01*
X113234800Y-97930100D02*
X113234800Y-107594500D01*
X113684900Y-97480000D02*
X113234800Y-97930100D01*
%TO.N,Net-(RN1-Pad4)*%
X119186800Y-101560100D02*
X119420000Y-101560100D01*
X117722500Y-103024400D02*
X119186800Y-101560100D01*
X117722500Y-116537400D02*
X117722500Y-103024400D01*
X116585000Y-117674900D02*
X117722500Y-116537400D01*
X116585000Y-119200000D02*
X116585000Y-117674900D01*
X119420000Y-100435000D02*
X119420000Y-101560100D01*
%TO.N,Net-(RN1-Pad3)*%
X116735100Y-109904800D02*
X116735100Y-102560000D01*
X116585000Y-110054900D02*
X116735100Y-109904800D01*
X116585000Y-111580000D02*
X116585000Y-110054900D01*
X115210000Y-102560000D02*
X116735100Y-102560000D01*
%TO.N,Net-(J5-Pad10)*%
X85340900Y-22450000D02*
X82380000Y-22450000D01*
X90655600Y-27764700D02*
X85340900Y-22450000D01*
X94251100Y-27764700D02*
X90655600Y-27764700D01*
X98033600Y-31547200D02*
X94251100Y-27764700D01*
X98033600Y-34828500D02*
X98033600Y-31547200D01*
%TO.N,Net-(J5-Pad5)*%
X93595500Y-29179500D02*
X92070400Y-29179500D01*
X77300000Y-24990000D02*
X78475100Y-24990000D01*
X78475100Y-24624700D02*
X78475100Y-24990000D01*
X79300400Y-23799400D02*
X78475100Y-24624700D01*
X86053700Y-23799400D02*
X79300400Y-23799400D01*
X91433800Y-29179500D02*
X86053700Y-23799400D01*
X92070400Y-29179500D02*
X91433800Y-29179500D01*
%TO.N,Net-(J5-Pad3)*%
X74760000Y-24990000D02*
X75935100Y-24990000D01*
X81540000Y-45255000D02*
X83065100Y-45255000D01*
X75935100Y-25400700D02*
X75935100Y-24990000D01*
X79465200Y-28930800D02*
X75935100Y-25400700D01*
X79465200Y-30799300D02*
X79465200Y-28930800D01*
X80465100Y-31799200D02*
X79465200Y-30799300D01*
X80465100Y-33768700D02*
X80465100Y-31799200D01*
X83515200Y-36818800D02*
X80465100Y-33768700D01*
X83515200Y-44804900D02*
X83515200Y-36818800D01*
X83065100Y-45255000D02*
X83515200Y-44804900D01*
%TO.N,Net-(J5-Pad2)*%
X72220000Y-22450000D02*
X72220000Y-23625100D01*
X81540000Y-37635000D02*
X80014900Y-37635000D01*
X73027900Y-23625100D02*
X72220000Y-23625100D01*
X73395100Y-23992300D02*
X73027900Y-23625100D01*
X73395100Y-25289900D02*
X73395100Y-23992300D01*
X77020000Y-28914800D02*
X73395100Y-25289900D01*
X77020000Y-30353500D02*
X77020000Y-28914800D01*
X80014900Y-33348400D02*
X77020000Y-30353500D01*
X80014900Y-37635000D02*
X80014900Y-33348400D01*
%TO.N,/Adder/Out_{7}*%
X108865000Y-48410000D02*
X108865000Y-49935100D01*
X65470000Y-57900000D02*
X66995100Y-57900000D01*
X101870000Y-114785000D02*
X103395100Y-114785000D01*
X100112800Y-60209100D02*
X100112800Y-56527500D01*
X100881100Y-60977400D02*
X100112800Y-60209100D01*
X104194300Y-60977400D02*
X100881100Y-60977400D01*
X104194300Y-54605800D02*
X104194300Y-60977400D01*
X108865000Y-49935100D02*
X104194300Y-54605800D01*
X104194300Y-60977400D02*
X104194300Y-64974200D01*
X66995100Y-57404400D02*
X66995100Y-57900000D01*
X73891300Y-50508200D02*
X66995100Y-57404400D01*
X73891300Y-34312600D02*
X73891300Y-50508200D01*
X76922500Y-31281400D02*
X73891300Y-34312600D01*
X103395100Y-112059900D02*
X103395100Y-114785000D01*
X106043100Y-109411900D02*
X103395100Y-112059900D01*
X106043100Y-94482000D02*
X106043100Y-109411900D01*
X106855100Y-93670000D02*
X106043100Y-94482000D01*
X108364000Y-93670000D02*
X106855100Y-93670000D01*
X109565400Y-92468600D02*
X108364000Y-93670000D01*
X109565400Y-78532800D02*
X109565400Y-92468600D01*
X109133800Y-78101200D02*
X109565400Y-78532800D01*
X109133800Y-71189700D02*
X109133800Y-78101200D01*
X111865700Y-68457800D02*
X109133800Y-71189700D01*
%TO.N,/Adder/Out_{6}*%
X75750000Y-29440000D02*
X75750000Y-30615100D01*
X65470000Y-55360000D02*
X66995100Y-55360000D01*
X111405000Y-48410000D02*
X111405000Y-49935100D01*
X101870000Y-112245000D02*
X100344900Y-112245000D01*
X68154800Y-54200300D02*
X66995100Y-55360000D01*
X68154800Y-49651300D02*
X68154800Y-54200300D01*
X68916100Y-48890000D02*
X68154800Y-49651300D01*
X70421100Y-48890000D02*
X68916100Y-48890000D01*
X73441200Y-45869900D02*
X70421100Y-48890000D01*
X73441200Y-32923900D02*
X73441200Y-45869900D01*
X75750000Y-30615100D02*
X73441200Y-32923900D01*
X91189900Y-47699500D02*
X91773100Y-48282700D01*
X91189900Y-40213600D02*
X91189900Y-47699500D01*
X90026100Y-39049800D02*
X91189900Y-40213600D01*
X88575100Y-39049800D02*
X90026100Y-39049800D01*
X85591700Y-36066400D02*
X88575100Y-39049800D01*
X85591700Y-33225800D02*
X85591700Y-36066400D01*
X100344900Y-109231300D02*
X100344900Y-112245000D01*
X101141200Y-108435000D02*
X100344900Y-109231300D01*
X102623900Y-108435000D02*
X101141200Y-108435000D01*
X104749100Y-106309800D02*
X102623900Y-108435000D01*
X104749100Y-88733300D02*
X104749100Y-106309800D01*
X104555100Y-88539300D02*
X104749100Y-88733300D01*
X104555100Y-70695700D02*
X104555100Y-88539300D01*
X109990200Y-65260600D02*
X104555100Y-70695700D01*
X109990200Y-51349900D02*
X109990200Y-65260600D01*
X111405000Y-49935100D02*
X109990200Y-51349900D01*
%TO.N,/Adder/Out_{5}*%
X65470000Y-52820000D02*
X66995100Y-52820000D01*
X113945000Y-48410000D02*
X113945000Y-49935100D01*
X101870000Y-109705000D02*
X103395100Y-109705000D01*
X67704700Y-52110400D02*
X66995100Y-52820000D01*
X67704700Y-47596400D02*
X67704700Y-52110400D01*
X68951100Y-46350000D02*
X67704700Y-47596400D01*
X70434500Y-46350000D02*
X68951100Y-46350000D01*
X72716000Y-44068500D02*
X70434500Y-46350000D01*
X72716000Y-31109100D02*
X72716000Y-44068500D01*
X73210000Y-30615100D02*
X72716000Y-31109100D01*
X73210000Y-29440000D02*
X73210000Y-30615100D01*
X63944900Y-64666400D02*
X63944900Y-52820000D01*
X68058600Y-68780100D02*
X63944900Y-64666400D01*
X68058600Y-69681700D02*
X68058600Y-68780100D01*
X70793700Y-72416800D02*
X68058600Y-69681700D01*
X71013600Y-72416800D02*
X70793700Y-72416800D01*
X73834300Y-75237500D02*
X71013600Y-72416800D01*
X79308400Y-75237500D02*
X73834300Y-75237500D01*
X79720900Y-74825000D02*
X79308400Y-75237500D01*
X105285400Y-70666200D02*
X105285400Y-88174400D01*
X112719000Y-63232600D02*
X105285400Y-70666200D01*
X112719000Y-51161100D02*
X112719000Y-63232600D01*
X113945000Y-49935100D02*
X112719000Y-51161100D01*
X105285400Y-107814700D02*
X105285400Y-88174400D01*
X103395100Y-109705000D02*
X105285400Y-107814700D01*
X65470000Y-52820000D02*
X63944900Y-52820000D01*
%TO.N,/Adder/Out_{4}*%
X70670000Y-29440000D02*
X70670000Y-30615100D01*
X65470000Y-50280000D02*
X66995100Y-50280000D01*
X66995100Y-47242900D02*
X66995100Y-50280000D01*
X68154800Y-46083200D02*
X66995100Y-47242900D01*
X68154800Y-33130300D02*
X68154800Y-46083200D01*
X70670000Y-30615100D02*
X68154800Y-33130300D01*
X116485000Y-48410000D02*
X116485000Y-49935100D01*
X115276800Y-51143300D02*
X115276800Y-52650600D01*
X116485000Y-49935100D02*
X115276800Y-51143300D01*
X110633200Y-75392400D02*
X110633200Y-104863500D01*
X110034000Y-74793200D02*
X110633200Y-75392400D01*
X110034000Y-72483100D02*
X110034000Y-74793200D01*
X114711900Y-67805200D02*
X110034000Y-72483100D01*
X114711900Y-57555200D02*
X114711900Y-67805200D01*
X115276800Y-56990300D02*
X114711900Y-57555200D01*
X115276800Y-52650600D02*
X115276800Y-56990300D01*
%TO.N,/Adder/Out_{3}*%
X67699500Y-45510500D02*
X65470000Y-47740000D01*
X67699500Y-31045600D02*
X67699500Y-45510500D01*
X68130000Y-30615100D02*
X67699500Y-31045600D01*
X68130000Y-29440000D02*
X68130000Y-30615100D01*
X119025000Y-48410000D02*
X119025000Y-42782100D01*
X101870000Y-104625000D02*
X103395100Y-104625000D01*
X99811700Y-43201600D02*
X99391400Y-42781300D01*
X99811700Y-52189100D02*
X99811700Y-43201600D01*
X99381400Y-52619400D02*
X99811700Y-52189100D01*
X99381400Y-84002200D02*
X99381400Y-52619400D01*
X104295300Y-88916100D02*
X99381400Y-84002200D01*
X104295300Y-103724800D02*
X104295300Y-88916100D01*
X103395100Y-104625000D02*
X104295300Y-103724800D01*
%TO.N,/Adder/Out_{2}*%
X66995100Y-32020200D02*
X65590000Y-30615100D01*
X66995100Y-45200000D02*
X66995100Y-32020200D01*
X65470000Y-45200000D02*
X66995100Y-45200000D01*
X65590000Y-29440000D02*
X65590000Y-30615100D01*
X101870000Y-102085000D02*
X100344900Y-102085000D01*
X97911300Y-46539500D02*
X98218900Y-46231900D01*
X97911300Y-71026900D02*
X97911300Y-46539500D01*
X97011100Y-71927100D02*
X97911300Y-71026900D01*
X97011100Y-84798400D02*
X97011100Y-71927100D01*
X103395100Y-91182400D02*
X97011100Y-84798400D01*
X103395100Y-92422800D02*
X103395100Y-91182400D01*
X102622900Y-93195000D02*
X103395100Y-92422800D01*
X101127800Y-93195000D02*
X102622900Y-93195000D01*
X100344900Y-93977900D02*
X101127800Y-93195000D01*
X100344900Y-102085000D02*
X100344900Y-93977900D01*
%TO.N,/Adder/Out_{0}*%
X101870000Y-97005000D02*
X103395100Y-97005000D01*
X99361600Y-45126100D02*
X98490900Y-44255400D01*
X99361600Y-51345900D02*
X99361600Y-45126100D01*
X98931300Y-51776200D02*
X99361600Y-51345900D01*
X98931300Y-84188700D02*
X98931300Y-51776200D01*
X103845200Y-89102600D02*
X98931300Y-84188700D01*
X103845200Y-96554900D02*
X103845200Y-89102600D01*
X103395100Y-97005000D02*
X103845200Y-96554900D01*
%TO.N,/Adder/~{Adder}*%
X97306100Y-36643800D02*
X96914000Y-36643800D01*
X98758800Y-35191100D02*
X97306100Y-36643800D01*
X98758800Y-29294600D02*
X98758800Y-35191100D01*
X90249200Y-20785000D02*
X98758800Y-29294600D01*
X70980100Y-20785000D02*
X90249200Y-20785000D01*
X69185100Y-22580000D02*
X70980100Y-20785000D01*
X68010000Y-22580000D02*
X69185100Y-22580000D01*
X97461200Y-70615200D02*
X97461200Y-38385700D01*
X96561000Y-71515400D02*
X97461200Y-70615200D01*
X96561000Y-90880400D02*
X96561000Y-71515400D01*
%TO.N,/Adder/~{RS}{slash}1*%
X68010000Y-25120000D02*
X66834900Y-25120000D01*
X65470000Y-70780000D02*
X63944900Y-70780000D01*
X66834900Y-24754800D02*
X66834900Y-25120000D01*
X66024500Y-23944400D02*
X66834900Y-24754800D01*
X62415800Y-23944400D02*
X66024500Y-23944400D01*
X61754800Y-24605400D02*
X62415800Y-23944400D01*
X61754800Y-68479100D02*
X61754800Y-24605400D01*
X63944900Y-70669200D02*
X61754800Y-68479100D01*
X63944900Y-70780000D02*
X63944900Y-70669200D01*
%TO.N,/Compare/~{CMP}*%
X101740000Y-49685000D02*
X103265100Y-49685000D01*
X115210000Y-84780000D02*
X113684900Y-84780000D01*
X116525900Y-46433500D02*
X108613500Y-46433500D01*
X117632300Y-47539900D02*
X116525900Y-46433500D01*
X117632300Y-58294200D02*
X117632300Y-47539900D01*
X115162100Y-60764400D02*
X117632300Y-58294200D01*
X115162100Y-69434100D02*
X115162100Y-60764400D01*
X114291500Y-70304700D02*
X115162100Y-69434100D01*
X113715300Y-70304700D02*
X114291500Y-70304700D01*
X110984200Y-73035800D02*
X113715300Y-70304700D01*
X110984200Y-74245000D02*
X110984200Y-73035800D01*
X113684900Y-76945700D02*
X110984200Y-74245000D01*
X113684900Y-84780000D02*
X113684900Y-76945700D01*
X107450200Y-47596800D02*
X108613500Y-46433500D01*
X107450200Y-49315200D02*
X107450200Y-47596800D01*
X106787900Y-49977500D02*
X107450200Y-49315200D01*
X103557600Y-49977500D02*
X106787900Y-49977500D01*
X103265100Y-49685000D02*
X103557600Y-49977500D01*
X108613500Y-46433500D02*
X108613500Y-38906500D01*
X39502000Y-29764300D02*
X39502000Y-84114700D01*
X40996300Y-28270000D02*
X39502000Y-29764300D01*
X41879100Y-28270000D02*
X40996300Y-28270000D01*
X44754800Y-25394300D02*
X41879100Y-28270000D01*
X44754800Y-22470900D02*
X44754800Y-25394300D01*
X45862700Y-21363000D02*
X44754800Y-22470900D01*
X63445100Y-21363000D02*
X45862700Y-21363000D01*
X64294900Y-22212800D02*
X63445100Y-21363000D01*
X64294900Y-22580000D02*
X64294900Y-22212800D01*
X65470000Y-22580000D02*
X64294900Y-22580000D01*
%TO.N,/NAND/~{NAND}*%
X63944900Y-30615100D02*
X63944900Y-37580000D01*
X64226200Y-30333800D02*
X63944900Y-30615100D01*
X64226200Y-27591300D02*
X64226200Y-30333800D01*
X62930000Y-26295100D02*
X64226200Y-27591300D01*
X62930000Y-25120000D02*
X62930000Y-26295100D01*
X65470000Y-37580000D02*
X63944900Y-37580000D01*
%TO.N,/CLK*%
X69680000Y-42540000D02*
X71205100Y-42540000D01*
X90167100Y-26639500D02*
X93595500Y-26639500D01*
X84762800Y-21235200D02*
X90167100Y-26639500D01*
X71771700Y-21235200D02*
X84762800Y-21235200D01*
X71038100Y-21968800D02*
X71771700Y-21235200D01*
X71038100Y-27234200D02*
X71038100Y-21968800D01*
X71876900Y-28073000D02*
X71038100Y-27234200D01*
X71876900Y-41868200D02*
X71876900Y-28073000D01*
X71205100Y-42540000D02*
X71876900Y-41868200D01*
%TO.N,/Adder/SUB*%
X79345100Y-79185000D02*
X79345100Y-86805000D01*
X77820000Y-79185000D02*
X79345100Y-79185000D01*
X77820000Y-86805000D02*
X79345100Y-86805000D01*
X71725100Y-76645000D02*
X71725100Y-84265000D01*
X76174900Y-86925000D02*
X76294900Y-86805000D01*
X76174900Y-97800000D02*
X76174900Y-86925000D01*
X77820000Y-86805000D02*
X76294900Y-86805000D01*
X77700000Y-97800000D02*
X76174900Y-97800000D01*
X68554900Y-84385000D02*
X68674900Y-84265000D01*
X68554900Y-92720000D02*
X68554900Y-84385000D01*
X70200000Y-84265000D02*
X71725100Y-84265000D01*
X70080000Y-92720000D02*
X68554900Y-92720000D01*
X70200000Y-84265000D02*
X68674900Y-84265000D01*
X70200000Y-76645000D02*
X71725100Y-76645000D01*
X57850000Y-22580000D02*
X57850000Y-23755100D01*
X70200000Y-76645000D02*
X68674900Y-76645000D01*
X58657900Y-23755100D02*
X57850000Y-23755100D01*
X59145100Y-24242300D02*
X58657900Y-23755100D01*
X59145100Y-31048400D02*
X59145100Y-24242300D01*
X60962400Y-32865700D02*
X59145100Y-31048400D01*
X60962400Y-68323400D02*
X60962400Y-32865700D01*
X61747600Y-69108600D02*
X60962400Y-68323400D01*
X61747600Y-69252400D02*
X61747600Y-69108600D01*
X64630400Y-72135200D02*
X61747600Y-69252400D01*
X66328000Y-72135200D02*
X64630400Y-72135200D01*
X68674900Y-74482100D02*
X66328000Y-72135200D01*
X68674900Y-76645000D02*
X68674900Y-74482100D01*
%TO.N,/Adder/RS_{0}*%
X41309700Y-56084900D02*
X41675000Y-56084900D01*
X40255300Y-55030500D02*
X41309700Y-56084900D01*
X40255300Y-34119900D02*
X40255300Y-55030500D01*
X40935800Y-33439400D02*
X40255300Y-34119900D01*
X41812700Y-33439400D02*
X40935800Y-33439400D01*
X44754900Y-30497200D02*
X41812700Y-33439400D01*
X44754900Y-29830000D02*
X44754900Y-30497200D01*
X46280000Y-29830000D02*
X44754900Y-29830000D01*
X41675000Y-56672400D02*
X41675000Y-56791600D01*
X41675000Y-56672400D02*
X41675000Y-56084900D01*
X41675000Y-57260000D02*
X41675000Y-57025800D01*
X41675000Y-57025800D02*
X41675000Y-56791600D01*
X49141200Y-78073500D02*
X49141200Y-78153100D01*
X47567800Y-76500100D02*
X49141200Y-78073500D01*
X45845100Y-76500100D02*
X47567800Y-76500100D01*
X45749800Y-76404800D02*
X45845100Y-76500100D01*
X41314100Y-76404800D02*
X45749800Y-76404800D01*
X39960600Y-75051300D02*
X41314100Y-76404800D01*
X39960600Y-58740200D02*
X39960600Y-75051300D01*
X41675000Y-57025800D02*
X39960600Y-58740200D01*
X59375100Y-73743400D02*
X60497600Y-72620900D01*
X59375100Y-78400000D02*
X59375100Y-73743400D01*
X57850000Y-78400000D02*
X59375100Y-78400000D01*
%TO.N,/Adder/RS_{1}*%
X42850100Y-36814800D02*
X44754900Y-34910000D01*
X42850100Y-57817100D02*
X42850100Y-36814800D01*
X42042300Y-58624900D02*
X42850100Y-57817100D01*
X41675000Y-58624900D02*
X42042300Y-58624900D01*
X41675000Y-59800000D02*
X41675000Y-58624900D01*
X46280000Y-34910000D02*
X44754900Y-34910000D01*
X57850000Y-75860000D02*
X56324900Y-75860000D01*
X48423800Y-68909000D02*
X48423800Y-63855200D01*
X53619800Y-74105000D02*
X48423800Y-68909000D01*
X55300900Y-74105000D02*
X53619800Y-74105000D01*
X56324900Y-75129000D02*
X55300900Y-74105000D01*
X56324900Y-75860000D02*
X56324900Y-75129000D01*
%TO.N,/Adder/RS_{2}*%
X53900000Y-37450000D02*
X52374900Y-37450000D01*
X41675000Y-62340000D02*
X41675000Y-61164900D01*
X45172600Y-50290600D02*
X47798900Y-50290600D01*
X43489900Y-51973300D02*
X45172600Y-50290600D01*
X43489900Y-59683700D02*
X43489900Y-51973300D01*
X42008700Y-61164900D02*
X43489900Y-59683700D01*
X41675000Y-61164900D02*
X42008700Y-61164900D01*
X57850000Y-73320000D02*
X56324900Y-73320000D01*
X47798900Y-49311700D02*
X47798900Y-50290600D01*
X50560100Y-46550500D02*
X47798900Y-49311700D01*
X50560100Y-39264800D02*
X50560100Y-46550500D01*
X52374900Y-37450000D02*
X50560100Y-39264800D01*
X54908500Y-67284800D02*
X55095500Y-67097800D01*
X53525200Y-65901600D02*
X54908500Y-67284800D01*
X52888600Y-65901600D02*
X53525200Y-65901600D01*
X47798900Y-60811900D02*
X52888600Y-65901600D01*
X47798900Y-50290600D02*
X47798900Y-60811900D01*
X56324900Y-68701300D02*
X56324900Y-73320000D01*
X54908500Y-67284800D02*
X56324900Y-68701300D01*
%TO.N,/Adder/RS_{3}*%
X57850000Y-70780000D02*
X59375100Y-70780000D01*
X60123300Y-70031800D02*
X60123300Y-63967600D01*
X59375100Y-70780000D02*
X60123300Y-70031800D01*
X60300900Y-33229700D02*
X58833100Y-31761900D01*
X60300900Y-63790000D02*
X60300900Y-33229700D01*
X60123300Y-63967600D02*
X60300900Y-63790000D01*
%TO.N,/Adder/RS_{4}*%
X46160000Y-51465000D02*
X44634900Y-51465000D01*
X43940000Y-52159900D02*
X44634900Y-51465000D01*
X43940000Y-64345100D02*
X43940000Y-52159900D01*
X42040200Y-66244900D02*
X43940000Y-64345100D01*
X41675000Y-66244900D02*
X42040200Y-66244900D01*
X41675000Y-66832400D02*
X41675000Y-66951600D01*
X41675000Y-67420000D02*
X41675000Y-66951600D01*
X41675000Y-66832400D02*
X41675000Y-66244900D01*
X57087500Y-88560000D02*
X56324900Y-88560000D01*
X57087500Y-88560000D02*
X57850000Y-88560000D01*
X56324900Y-85280300D02*
X56324900Y-88560000D01*
X55439400Y-84394800D02*
X56324900Y-85280300D01*
X53905100Y-84394800D02*
X55439400Y-84394800D01*
X52261100Y-82750800D02*
X53905100Y-84394800D01*
X52261100Y-78722800D02*
X52261100Y-82750800D01*
X47625200Y-74086900D02*
X52261100Y-78722800D01*
X44391600Y-74086900D02*
X47625200Y-74086900D01*
X43984200Y-73679500D02*
X44391600Y-74086900D01*
X41185100Y-73679500D02*
X43984200Y-73679500D01*
X40465800Y-72960200D02*
X41185100Y-73679500D01*
X40465800Y-68160800D02*
X40465800Y-72960200D01*
X41675000Y-66951600D02*
X40465800Y-68160800D01*
%TO.N,/Adder/RS_{5}*%
X46160000Y-59085000D02*
X44634900Y-59085000D01*
X41675000Y-69960000D02*
X41675000Y-68784900D01*
X42310100Y-68784900D02*
X41675000Y-68784900D01*
X43845400Y-67249600D02*
X42310100Y-68784900D01*
X44634900Y-66460100D02*
X43845400Y-67249600D01*
X44634900Y-59085000D02*
X44634900Y-66460100D01*
X56077900Y-84247900D02*
X57850000Y-86020000D01*
X56077900Y-82537600D02*
X56077900Y-84247900D01*
X55384900Y-81844600D02*
X56077900Y-82537600D01*
X53895100Y-81844600D02*
X55384900Y-81844600D01*
X52787000Y-80736500D02*
X53895100Y-81844600D01*
X52787000Y-76191200D02*
X52787000Y-80736500D01*
X43845400Y-67249600D02*
X52787000Y-76191200D01*
X109115100Y-97480000D02*
X109115100Y-107673900D01*
X107590000Y-97480000D02*
X109115100Y-97480000D01*
%TO.N,/Adder/RS_{7}*%
X75667600Y-98786200D02*
X76041500Y-99160100D01*
X75667600Y-89826400D02*
X75667600Y-98786200D01*
X71398100Y-85556900D02*
X75667600Y-89826400D01*
X57850000Y-80940000D02*
X59375100Y-80940000D01*
X59375100Y-80940000D02*
X59375100Y-84780600D01*
%TO.N,VCC*%
X124744900Y-61540100D02*
X125990000Y-60295000D01*
X124744900Y-63280000D02*
X124744900Y-61540100D01*
X126270000Y-63280000D02*
X124744900Y-63280000D01*
X57850000Y-25120000D02*
X57850000Y-26295100D01*
X77820000Y-74105000D02*
X79345100Y-74105000D01*
X82670000Y-108050000D02*
X81144900Y-108050000D01*
X99690400Y-23719600D02*
X99690400Y-26639500D01*
X101165500Y-22244500D02*
X99690400Y-23719600D01*
X53014900Y-68320100D02*
X53680000Y-67655000D01*
X53014900Y-72835000D02*
X53014900Y-68320100D01*
X54540000Y-72835000D02*
X53014900Y-72835000D01*
X107590000Y-82240000D02*
X109115100Y-82240000D01*
X52374900Y-23960100D02*
X52374900Y-27290000D01*
X53740000Y-22595000D02*
X52374900Y-23960100D01*
X53900000Y-27290000D02*
X52374900Y-27290000D01*
X76200000Y-112585000D02*
X81144900Y-112585000D01*
X81144900Y-118314900D02*
X81144900Y-112585000D01*
X82210000Y-119380000D02*
X81144900Y-118314900D01*
X55554900Y-94134900D02*
X55554900Y-95850000D01*
X54090000Y-92670000D02*
X55554900Y-94134900D01*
X57080000Y-95850000D02*
X55554900Y-95850000D01*
X100781900Y-26639500D02*
X99690400Y-26639500D01*
X106080000Y-34275000D02*
X104554900Y-34275000D01*
X101215500Y-36799500D02*
X102740600Y-36799500D01*
X113700000Y-26655000D02*
X112287500Y-26655000D01*
X113700000Y-36815000D02*
X112174900Y-36815000D01*
X112287500Y-23962500D02*
X112287500Y-26655000D01*
X113520000Y-22730000D02*
X112287500Y-23962500D01*
X112174900Y-26767600D02*
X112174900Y-34275000D01*
X112287500Y-26655000D02*
X112174900Y-26767600D01*
X112174900Y-34275000D02*
X112174900Y-36815000D01*
X112174900Y-34275000D02*
X106080000Y-34275000D01*
X103265100Y-37324000D02*
X103265100Y-47145000D01*
X102740600Y-36799500D02*
X103265100Y-37324000D01*
X101740000Y-47145000D02*
X103265100Y-47145000D01*
X129185000Y-48410000D02*
X129185000Y-56030000D01*
X128729900Y-57555100D02*
X125990000Y-60295000D01*
X129185000Y-57555100D02*
X128729900Y-57555100D01*
X129185000Y-56030000D02*
X129185000Y-57555100D01*
X52880000Y-108684900D02*
X55554900Y-106010000D01*
X52880000Y-110800000D02*
X52880000Y-108684900D01*
X81144900Y-112585000D02*
X81144900Y-108050000D01*
X77700000Y-92720000D02*
X79225100Y-92720000D01*
X57850000Y-35040000D02*
X59375100Y-35040000D01*
X57850000Y-28144900D02*
X57970000Y-28264900D01*
X57850000Y-26295100D02*
X57850000Y-28144900D01*
X57970000Y-29440000D02*
X57970000Y-28264900D01*
X57850000Y-68240000D02*
X59375100Y-68240000D01*
X57080000Y-106010000D02*
X55667500Y-106010000D01*
X55667500Y-106010000D02*
X55554900Y-106010000D01*
X55554900Y-106010000D02*
X55554900Y-95850000D01*
X89160000Y-37635000D02*
X89550000Y-37635000D01*
X89550000Y-34280000D02*
X90090000Y-34280000D01*
X89010000Y-33740000D02*
X89550000Y-34280000D01*
X89010000Y-30460000D02*
X89010000Y-33740000D01*
X89550000Y-34280000D02*
X89550000Y-37635000D01*
X136960000Y-103680000D02*
X137430000Y-103210000D01*
X136960000Y-111850000D02*
X136960000Y-103680000D01*
X139395100Y-101244900D02*
X139395100Y-84405000D01*
X137430000Y-103210000D02*
X139395100Y-101244900D01*
X137870000Y-84405000D02*
X139395100Y-84405000D01*
X77880000Y-59340000D02*
X77880000Y-70410000D01*
X76350000Y-57810000D02*
X77880000Y-59340000D01*
X136324900Y-61410100D02*
X137690000Y-60045000D01*
X136324900Y-63410000D02*
X136324900Y-61410100D01*
X137416400Y-63410000D02*
X136324900Y-63410000D01*
X137416400Y-63410000D02*
X137850000Y-63410000D01*
X139395100Y-63430000D02*
X139395100Y-84405000D01*
X139375100Y-63410000D02*
X139395100Y-63430000D01*
X137850000Y-63410000D02*
X139375100Y-63410000D01*
X82570000Y-83430000D02*
X81807500Y-83430000D01*
X81807500Y-83430000D02*
X81044900Y-83430000D01*
X57970000Y-29440000D02*
X57970000Y-30615100D01*
X53780000Y-48925000D02*
X55305100Y-48925000D01*
X100781900Y-26639500D02*
X101215500Y-26639500D01*
X104065900Y-34275000D02*
X104554900Y-34275000D01*
X104065900Y-35474200D02*
X102740600Y-36799500D01*
X104065900Y-34275000D02*
X104065900Y-35474200D01*
X101215500Y-26639500D02*
X102740600Y-26639500D01*
X59375100Y-45671300D02*
X58576400Y-46470000D01*
X59375100Y-35040000D02*
X59375100Y-45671300D01*
X55305100Y-48285400D02*
X55305100Y-48925000D01*
X57120500Y-46470000D02*
X55305100Y-48285400D01*
X58576400Y-46470000D02*
X57120500Y-46470000D01*
X94120000Y-47145000D02*
X92594900Y-47145000D01*
X59375100Y-33329200D02*
X59375100Y-35040000D01*
X57970000Y-31924100D02*
X59375100Y-33329200D01*
X57970000Y-30615100D02*
X57970000Y-31924100D01*
X77733600Y-37460000D02*
X78825100Y-37460000D01*
X77733600Y-37460000D02*
X77300000Y-37460000D01*
X77300000Y-37460000D02*
X75774900Y-37460000D01*
X79675200Y-93170100D02*
X79225100Y-92720000D01*
X79675200Y-106580300D02*
X79675200Y-93170100D01*
X81144900Y-108050000D02*
X79675200Y-106580300D01*
X75774900Y-57234900D02*
X75774900Y-37460000D01*
X76350000Y-57810000D02*
X75774900Y-57234900D01*
X101870000Y-91925000D02*
X100344900Y-91925000D01*
X94250000Y-91925000D02*
X95775100Y-91925000D01*
X100344900Y-91925000D02*
X95775100Y-91925000D01*
X59551200Y-64516200D02*
X58260000Y-63225000D01*
X59551200Y-68063900D02*
X59551200Y-64516200D01*
X59375100Y-68240000D02*
X59551200Y-68063900D01*
X79345100Y-71875100D02*
X79345100Y-74105000D01*
X77880000Y-70410000D02*
X79345100Y-71875100D01*
X78825100Y-35240100D02*
X78825100Y-37460000D01*
X77400000Y-33815000D02*
X78825100Y-35240100D01*
X91966300Y-40051300D02*
X89550000Y-37635000D01*
X91966400Y-40051300D02*
X91966300Y-40051300D01*
X91966400Y-46516500D02*
X91966400Y-40051300D01*
X92594900Y-47145000D02*
X91966400Y-46516500D01*
X59850800Y-47744400D02*
X58576400Y-46470000D01*
X59850800Y-61634200D02*
X59850800Y-47744400D01*
X58260000Y-63225000D02*
X59850800Y-61634200D01*
X109115100Y-78719100D02*
X109115100Y-82240000D01*
X108683700Y-78287700D02*
X109115100Y-78719100D01*
X108683700Y-69446300D02*
X108683700Y-78287700D01*
X112110000Y-66020000D02*
X108683700Y-69446300D01*
X81044900Y-90900200D02*
X79225100Y-92720000D01*
X81044900Y-83430000D02*
X81044900Y-90900200D01*
X104065900Y-27964800D02*
X102740600Y-26639500D01*
X104065900Y-34275000D02*
X104065900Y-27964800D01*
X79350200Y-74099900D02*
X79345100Y-74105000D01*
X80021300Y-74099900D02*
X79350200Y-74099900D01*
X80446000Y-74524600D02*
X80021300Y-74099900D01*
X80446000Y-75125400D02*
X80446000Y-74524600D01*
X80140800Y-75430600D02*
X80446000Y-75125400D01*
X80140800Y-81763300D02*
X80140800Y-75430600D01*
X81807500Y-83430000D02*
X80140800Y-81763300D01*
%TO.N,/Adder/RD_{0}*%
X94120000Y-49685000D02*
X95645100Y-49685000D01*
X90190000Y-88510000D02*
X88664900Y-88510000D01*
X87314600Y-87159700D02*
X88664900Y-88510000D01*
X87314600Y-70276000D02*
X87314600Y-87159700D01*
X89630600Y-67960000D02*
X87314600Y-70276000D01*
X91645700Y-67960000D02*
X89630600Y-67960000D01*
X92291600Y-68605900D02*
X91645700Y-67960000D01*
X95020400Y-68605900D02*
X92291600Y-68605900D01*
X96110900Y-67515400D02*
X95020400Y-68605900D01*
X96110900Y-50150800D02*
X96110900Y-67515400D01*
X95645100Y-49685000D02*
X96110900Y-50150800D01*
%TO.N,/Adder/RD_{1}*%
X82570000Y-91050000D02*
X84095100Y-91050000D01*
X94120000Y-52225000D02*
X92594900Y-52225000D01*
X59400700Y-59491500D02*
X58948100Y-59944100D01*
X59400700Y-52349500D02*
X59400700Y-59491500D01*
X58601200Y-51550000D02*
X59400700Y-52349500D01*
X57063500Y-51550000D02*
X58601200Y-51550000D01*
X55853300Y-50339800D02*
X57063500Y-51550000D01*
X53140600Y-50339800D02*
X55853300Y-50339800D01*
X52254900Y-49454100D02*
X53140600Y-50339800D01*
X52254900Y-48455200D02*
X52254900Y-49454100D01*
X54885700Y-45824400D02*
X52254900Y-48455200D01*
X55139900Y-45824400D02*
X54885700Y-45824400D01*
X81344300Y-63475600D02*
X92594900Y-52225000D01*
X81041000Y-63475600D02*
X81344300Y-63475600D01*
X81041000Y-75167000D02*
X81041000Y-63475600D01*
X80590900Y-75617100D02*
X81041000Y-75167000D01*
X80590900Y-80905400D02*
X80590900Y-75617100D01*
X81716100Y-82030600D02*
X80590900Y-80905400D01*
X83192900Y-82030600D02*
X81716100Y-82030600D01*
X84095100Y-82932800D02*
X83192900Y-82030600D01*
X84095100Y-91050000D02*
X84095100Y-82932800D01*
%TO.N,/Adder/RD_{2}*%
X84748900Y-77696200D02*
X84095100Y-78350000D01*
X84748900Y-67223100D02*
X84748900Y-77696200D01*
X93397000Y-58575000D02*
X84748900Y-67223100D01*
X94851500Y-58575000D02*
X93397000Y-58575000D01*
X95645100Y-57781400D02*
X94851500Y-58575000D01*
X95645100Y-54765000D02*
X95645100Y-57781400D01*
X82570000Y-78350000D02*
X84095100Y-78350000D01*
X94120000Y-54765000D02*
X95645100Y-54765000D01*
X49705000Y-39990000D02*
X49705000Y-28704900D01*
X71298800Y-55420800D02*
X70164300Y-55420800D01*
X71954600Y-54765000D02*
X71298800Y-55420800D01*
%TO.N,/Adder/RD_{3}*%
X82570000Y-73270000D02*
X84095100Y-73270000D01*
X94120000Y-57305000D02*
X92594900Y-57305000D01*
X84095100Y-65624800D02*
X85157300Y-64562600D01*
X84095100Y-73270000D02*
X84095100Y-65624800D01*
X85337300Y-64562600D02*
X92594900Y-57305000D01*
X85157300Y-64562600D02*
X85337300Y-64562600D01*
X53900000Y-32370000D02*
X52374900Y-32370000D01*
X55414200Y-53647900D02*
X55414200Y-60530700D01*
X54501300Y-52735000D02*
X55414200Y-53647900D01*
X53016500Y-52735000D02*
X54501300Y-52735000D01*
X51804800Y-51523300D02*
X53016500Y-52735000D01*
X51804800Y-48134100D02*
X51804800Y-51523300D01*
X55425700Y-44513200D02*
X51804800Y-48134100D01*
X55425700Y-36906400D02*
X55425700Y-44513200D01*
X54699300Y-36180000D02*
X55425700Y-36906400D01*
X53171300Y-36180000D02*
X54699300Y-36180000D01*
X52374900Y-35383600D02*
X53171300Y-36180000D01*
X52374900Y-32370000D02*
X52374900Y-35383600D01*
%TO.N,/Adder/RD_{4}*%
X46160000Y-48925000D02*
X44634900Y-48925000D01*
X41485000Y-34620000D02*
X42660100Y-34620000D01*
X44634900Y-39636400D02*
X44634900Y-48925000D01*
X45551300Y-38720000D02*
X44634900Y-39636400D01*
X47017500Y-38720000D02*
X45551300Y-38720000D01*
X47805100Y-37932400D02*
X47017500Y-38720000D01*
X47805100Y-34429400D02*
X47805100Y-37932400D01*
X47156800Y-33781100D02*
X47805100Y-34429400D01*
X43499000Y-33781100D02*
X47156800Y-33781100D01*
X42660100Y-34620000D02*
X43499000Y-33781100D01*
X85445500Y-68519500D02*
X94120000Y-59845000D01*
X85445500Y-91610000D02*
X85445500Y-68519500D01*
X83724700Y-93330800D02*
X85445500Y-91610000D01*
X83419900Y-93330800D02*
X83724700Y-93330800D01*
X80188800Y-96561900D02*
X83419900Y-93330800D01*
X80188800Y-106021900D02*
X80188800Y-96561900D01*
X81139100Y-106972200D02*
X80188800Y-106021900D01*
%TO.N,/Adder/RD_{5}*%
X82670000Y-115670000D02*
X84195100Y-115670000D01*
X94120000Y-62385000D02*
X92594900Y-62385000D01*
X85895600Y-69084300D02*
X92594900Y-62385000D01*
X85895600Y-91796500D02*
X85895600Y-69084300D01*
X83911200Y-93780900D02*
X85895600Y-91796500D01*
X83652800Y-93780900D02*
X83911200Y-93780900D01*
X80673700Y-96760000D02*
X83652800Y-93780900D01*
X80673700Y-103145800D02*
X80673700Y-96760000D01*
X81767900Y-104240000D02*
X80673700Y-103145800D01*
X83431700Y-104240000D02*
X81767900Y-104240000D01*
X84195100Y-105003400D02*
X83431700Y-104240000D01*
X84195100Y-115670000D02*
X84195100Y-105003400D01*
%TO.N,/Adder/RD_{6}*%
X82670000Y-102970000D02*
X81144900Y-102970000D01*
X53780000Y-61625000D02*
X52254900Y-61625000D01*
X50518100Y-59888200D02*
X50518100Y-48254500D01*
X52254900Y-61625000D02*
X50518100Y-59888200D01*
X91386300Y-64925000D02*
X94120000Y-64925000D01*
X86414400Y-69896900D02*
X91386300Y-64925000D01*
X86414400Y-91914300D02*
X86414400Y-69896900D01*
X84097700Y-94231000D02*
X86414400Y-91914300D01*
X83859000Y-94231000D02*
X84097700Y-94231000D01*
X81144900Y-96945100D02*
X83859000Y-94231000D01*
X81144900Y-102970000D02*
X81144900Y-96945100D01*
%TO.N,/Adder/RD_{7}*%
X82670000Y-97890000D02*
X84195100Y-97890000D01*
X53017500Y-54005000D02*
X52254900Y-54005000D01*
X53017500Y-54005000D02*
X53780000Y-54005000D01*
X86864500Y-95220600D02*
X84195100Y-97890000D01*
X86864500Y-70083500D02*
X86864500Y-95220600D01*
X89483000Y-67465000D02*
X86864500Y-70083500D01*
X94120000Y-67465000D02*
X89483000Y-67465000D01*
X51354700Y-53104800D02*
X52254900Y-54005000D01*
X51354700Y-47486300D02*
X51354700Y-53104800D01*
X51618500Y-47222500D02*
X51354700Y-47486300D01*
X51618500Y-46176000D02*
X51618500Y-47222500D01*
X57958700Y-65451500D02*
X58826100Y-66318900D01*
X53075100Y-65451500D02*
X57958700Y-65451500D01*
X49762300Y-62138700D02*
X53075100Y-65451500D01*
X49762300Y-47984900D02*
X49762300Y-62138700D01*
X50260900Y-47486300D02*
X49762300Y-47984900D01*
X51354700Y-47486300D02*
X50260900Y-47486300D01*
%TO.N,GND*%
X120395000Y-116404900D02*
X121665000Y-117674900D01*
X120395000Y-110155100D02*
X120395000Y-116404900D01*
X119420000Y-109180100D02*
X120395000Y-110155100D01*
X119420000Y-108055000D02*
X119420000Y-109180100D01*
X121665000Y-119200000D02*
X121665000Y-117674900D01*
X47685100Y-66149900D02*
X46180000Y-67655000D01*
X47685100Y-64165000D02*
X47685100Y-66149900D01*
X46160000Y-64165000D02*
X47685100Y-64165000D01*
X128724900Y-102004900D02*
X128724900Y-99645000D01*
X129930000Y-103210000D02*
X128724900Y-102004900D01*
X130250000Y-99645000D02*
X128724900Y-99645000D01*
X45394900Y-91474900D02*
X46590000Y-92670000D01*
X45394900Y-88075000D02*
X45394900Y-91474900D01*
X46920000Y-88075000D02*
X45394900Y-88075000D01*
X46280000Y-42530000D02*
X47805100Y-42530000D01*
X68554900Y-112439900D02*
X68554900Y-107960000D01*
X68700000Y-112585000D02*
X68554900Y-112439900D01*
X45394900Y-82475000D02*
X45394900Y-88075000D01*
X41675000Y-78755100D02*
X45394900Y-82475000D01*
X41675000Y-77580000D02*
X41675000Y-78755100D01*
X115225100Y-31735000D02*
X115225100Y-34275000D01*
X113700000Y-31735000D02*
X115225100Y-31735000D01*
X113700000Y-34275000D02*
X115225100Y-34275000D01*
X107605100Y-45604800D02*
X106325000Y-46884900D01*
X107605100Y-41895000D02*
X107605100Y-45604800D01*
X106080000Y-41895000D02*
X107605100Y-41895000D01*
X106325000Y-48410000D02*
X106325000Y-46884900D01*
X91815100Y-113875200D02*
X92724900Y-114785000D01*
X91815100Y-108050000D02*
X91815100Y-113875200D01*
X90290000Y-108050000D02*
X91815100Y-108050000D01*
X94250000Y-114785000D02*
X92724900Y-114785000D01*
X90190000Y-83430000D02*
X88664900Y-83430000D01*
X80830000Y-29440000D02*
X80830000Y-30615100D01*
X92724900Y-117434900D02*
X92724900Y-114785000D01*
X93910000Y-118620000D02*
X92724900Y-117434900D01*
X58605100Y-118710000D02*
X58605100Y-116170000D01*
X57080000Y-118710000D02*
X58605100Y-118710000D01*
X57080000Y-116170000D02*
X57842600Y-116170000D01*
X57842600Y-116170000D02*
X58605100Y-116170000D01*
X58605100Y-115407500D02*
X58605100Y-113630000D01*
X57842600Y-116170000D02*
X58605100Y-115407500D01*
X57080000Y-113630000D02*
X57842600Y-113630000D01*
X57842600Y-113630000D02*
X58605100Y-113630000D01*
X58605100Y-112867500D02*
X58605100Y-111090000D01*
X57842600Y-113630000D02*
X58605100Y-112867500D01*
X57080000Y-111090000D02*
X57842600Y-111090000D01*
X57842600Y-111090000D02*
X58605100Y-111090000D01*
X58605100Y-110327500D02*
X58605100Y-108550000D01*
X57842600Y-111090000D02*
X58605100Y-110327500D01*
X57080000Y-108550000D02*
X58605100Y-108550000D01*
X58605100Y-103470000D02*
X58605100Y-100930000D01*
X57080000Y-103470000D02*
X58605100Y-103470000D01*
X57080000Y-100930000D02*
X57842600Y-100930000D01*
X57842600Y-100930000D02*
X58605100Y-100930000D01*
X58605100Y-100167500D02*
X58605100Y-98390000D01*
X57842600Y-100930000D02*
X58605100Y-100167500D01*
X57080000Y-98390000D02*
X58605100Y-98390000D01*
X129460000Y-115390000D02*
X125620000Y-119230000D01*
X129460000Y-111850000D02*
X129460000Y-115390000D01*
X129460000Y-103680000D02*
X129930000Y-103210000D01*
X129460000Y-111850000D02*
X129460000Y-103680000D01*
X68850000Y-63225000D02*
X65760000Y-63225000D01*
X68850000Y-63225000D02*
X68850000Y-57810000D01*
X132249800Y-99170300D02*
X131775100Y-99645000D01*
X132249800Y-79144700D02*
X132249800Y-99170300D01*
X131755100Y-78650000D02*
X132249800Y-79144700D01*
X130230000Y-78650000D02*
X131755100Y-78650000D01*
X130250000Y-99645000D02*
X131775100Y-99645000D01*
X70080000Y-107960000D02*
X69646400Y-107960000D01*
X69646400Y-107960000D02*
X68554900Y-107960000D01*
X70200000Y-89345000D02*
X71725100Y-89345000D01*
X81540000Y-52875000D02*
X83065100Y-52875000D01*
X82590000Y-32375100D02*
X82590000Y-34280000D01*
X80830000Y-30615100D02*
X82590000Y-32375100D01*
X87764700Y-82529800D02*
X88664900Y-83430000D01*
X87764700Y-71455300D02*
X87764700Y-82529800D01*
X90090000Y-69130000D02*
X87764700Y-71455300D01*
X116199000Y-62586000D02*
X118490000Y-60295000D01*
X116199000Y-69431000D02*
X116199000Y-62586000D01*
X112110000Y-73520000D02*
X116199000Y-69431000D01*
X48727800Y-41607300D02*
X47805100Y-42530000D01*
X48727800Y-25082800D02*
X48727800Y-41607300D01*
X46240000Y-22595000D02*
X48727800Y-25082800D01*
X68850000Y-68880000D02*
X70380000Y-70410000D01*
X68850000Y-63225000D02*
X68850000Y-68880000D01*
X83965300Y-35655300D02*
X82590000Y-34280000D01*
X83965300Y-51974800D02*
X83965300Y-35655300D01*
X83065100Y-52875000D02*
X83965300Y-51974800D01*
X120153100Y-58631900D02*
X118490000Y-60295000D01*
X120153100Y-39203000D02*
X120153100Y-58631900D01*
X115225100Y-34275000D02*
X120153100Y-39203000D01*
X71622900Y-105983500D02*
X69646400Y-107960000D01*
X71622900Y-90950000D02*
X71622900Y-105983500D01*
X71529600Y-90856700D02*
X71622900Y-90950000D01*
X71529600Y-90256100D02*
X71529600Y-90856700D01*
X71725100Y-90060600D02*
X71529600Y-90256100D01*
X71725100Y-89345000D02*
X71725100Y-90060600D01*
%TD*%
M02*
