M48
; DRILL file {KiCad 6.0.2+dfsg-1} date Mon 27 Feb 2023 08:22:50 PM EST
; FORMAT={-:-/ absolute / inch / decimal}
; #@! TF.CreationDate,2023-02-27T20:22:50-05:00
; #@! TF.GenerationSoftware,Kicad,Pcbnew,6.0.2+dfsg-1
; #@! TF.FileFunction,Plated,1,2,PTH
FMAT,2
INCH
; #@! TA.AperFunction,Plated,PTH,ViaDrill
T1C0.0157
; #@! TA.AperFunction,Plated,PTH,ComponentDrill
T2C0.0315
; #@! TA.AperFunction,Plated,PTH,ComponentDrill
T3C0.0394
%
G90
G05
T1
X2.0769Y-3.6582
X2.6742Y-2.4939
X2.7177Y-4.2332
X2.944Y-2.4854
T2
X0.7524Y-2.5262
X0.7524Y-2.6262
X0.7524Y-2.7262
X0.7524Y-2.8262
X0.7524Y-2.9262
X0.7524Y-3.0262
X0.7524Y-3.1262
X1.0374Y-0.7691
X1.0374Y-0.8691
X1.0374Y-0.9691
X1.0374Y-1.0691
X1.0374Y-1.1691
X1.0374Y-1.2691
X1.0374Y-1.3691
X1.0374Y-1.4691
X1.0374Y-1.5691
X1.0374Y-1.6691
X1.0524Y-2.5262
X1.0524Y-2.6262
X1.0524Y-2.7262
X1.0524Y-2.8262
X1.0524Y-2.9262
X1.0524Y-3.0262
X1.0524Y-3.1262
X1.3242Y-2.3439
X1.3242Y-2.4439
X1.3242Y-2.5439
X1.3242Y-2.6439
X1.3242Y-2.7439
X1.3242Y-2.8439
X1.3242Y-2.9439
X1.3242Y-3.0439
X1.3242Y-3.1439
X1.3242Y-3.2439
X1.3242Y-3.3439
X1.3242Y-3.4439
X1.3242Y-3.5439
X1.3242Y-3.6439
X1.3374Y-0.7691
X1.3374Y-0.8691
X1.3374Y-0.9691
X1.3374Y-1.0691
X1.3374Y-1.1691
X1.3374Y-1.2691
X1.3374Y-1.3691
X1.3374Y-1.4691
X1.3374Y-1.5691
X1.3374Y-1.6691
X1.4648Y-1.8063
X1.4648Y-2.1063
X1.5648Y-1.8063
X1.5648Y-2.1063
X1.6648Y-1.8063
X1.6648Y-2.1063
X1.7648Y-1.8063
X1.7648Y-2.1063
X1.8648Y-1.8063
X1.8648Y-2.1063
X1.9242Y-2.3439
X1.9242Y-2.4439
X1.9242Y-2.5439
X1.9242Y-2.6439
X1.9242Y-2.7439
X1.9242Y-2.8439
X1.9242Y-2.9439
X1.9242Y-3.0439
X1.9242Y-3.1439
X1.9242Y-3.2439
X1.9242Y-3.3439
X1.9242Y-3.4439
X1.9242Y-3.5439
X1.9242Y-3.6439
X1.9648Y-1.8063
X1.9648Y-2.1063
X2.0648Y-1.8063
X2.0648Y-2.1063
X2.1648Y-1.8063
X2.1648Y-2.1063
X2.1789Y-2.3439
X2.1789Y-2.4439
X2.1789Y-2.5439
X2.1789Y-2.6439
X2.1789Y-2.7439
X2.1789Y-2.8439
X2.1789Y-2.9439
X2.1789Y-3.0439
X2.1789Y-3.1439
X2.1789Y-3.2439
X2.1789Y-3.3439
X2.1789Y-3.4439
X2.1789Y-3.5439
X2.1789Y-3.6439
X2.2648Y-1.8063
X2.2648Y-2.1063
X2.3648Y-1.8063
X2.3648Y-2.1063
X2.7789Y-2.3439
X2.7789Y-2.4439
X2.7789Y-2.5439
X2.7789Y-2.6439
X2.7789Y-2.7439
X2.7789Y-2.8439
X2.7789Y-2.9439
X2.7789Y-3.0439
X2.7789Y-3.1439
X2.7789Y-3.2439
X2.7789Y-3.3439
X2.7789Y-3.4439
X2.7789Y-3.5439
X2.7789Y-3.6439
X3.0337Y-2.3439
X3.0337Y-2.4439
X3.0337Y-2.5439
X3.0337Y-2.6439
X3.0337Y-2.7439
X3.0337Y-2.8439
X3.0337Y-2.9439
X3.0337Y-3.0439
X3.0337Y-3.1439
X3.0337Y-3.2439
X3.0337Y-3.3439
X3.0337Y-3.4439
X3.0337Y-3.5439
X3.0337Y-3.6439
X3.6337Y-2.3439
X3.6337Y-2.4439
X3.6337Y-2.5439
X3.6337Y-2.6439
X3.6337Y-2.7439
X3.6337Y-2.8439
X3.6337Y-2.9439
X3.6337Y-3.0439
X3.6337Y-3.1439
X3.6337Y-3.2439
X3.6337Y-3.3439
X3.6337Y-3.4439
X3.6337Y-3.5439
X3.6337Y-3.6439
T3
X0.7748Y-3.4354
X0.7748Y-3.5354
X0.7748Y-3.6354
X0.7748Y-3.7354
X0.7748Y-3.8354
X0.7748Y-3.9354
X0.7748Y-4.0354
X0.7748Y-4.1354
X0.7748Y-4.2354
X0.7748Y-4.3354
X0.7917Y-0.7697
X0.7917Y-0.8697
X0.7917Y-0.9697
X0.7917Y-1.0697
X0.7917Y-1.1697
X0.7917Y-1.2697
X0.7917Y-1.3697
X0.7917Y-1.4697
X0.7917Y-1.5697
X0.7917Y-1.6697
X1.5878Y-0.7041
X1.6878Y-0.7041
X1.7878Y-0.7041
X1.8878Y-0.7041
X1.9878Y-0.7041
X2.0878Y-0.7041
X2.1878Y-0.7041
X2.2394Y-4.405
X2.2394Y-4.505
X2.2878Y-0.7041
X2.3394Y-4.405
X2.3394Y-4.505
X2.3878Y-0.7041
X2.4394Y-4.405
X2.4394Y-4.505
X2.4878Y-0.7041
X2.5394Y-4.405
X2.5394Y-4.505
X2.6319Y-1.9921
X2.6394Y-4.405
X2.6394Y-4.505
X2.7319Y-1.9921
X2.8319Y-1.9921
X2.9319Y-1.9921
X3.0319Y-1.9921
X3.1319Y-1.9921
X3.1713Y-0.7051
X3.2713Y-0.7051
X3.3713Y-0.7051
X3.4713Y-0.7051
X3.5713Y-0.7051
X3.6713Y-0.7051
X3.7713Y-0.7051
X3.8713Y-0.7051
X3.9713Y-0.7051
X4.0713Y-0.7051
X4.4183Y-2.7183
X4.4183Y-2.8183
X4.4183Y-2.9183
X4.4183Y-3.0183
X4.4183Y-3.1183
X4.4285Y-2.123
X4.4285Y-2.223
X4.4285Y-2.323
X4.4285Y-2.423
X4.4285Y-2.523
X4.49Y-3.4307
X4.49Y-3.5307
X4.49Y-3.6307
X4.49Y-3.7307
X4.49Y-3.8307
X4.49Y-3.9307
X4.49Y-4.0307
X4.49Y-4.1307
X4.49Y-4.2307
X4.49Y-4.3307
X4.5183Y-2.7183
X4.5183Y-2.8183
X4.5183Y-2.9183
X4.5183Y-3.0183
X4.5183Y-3.1183
X4.5285Y-2.123
X4.5285Y-2.223
X4.5285Y-2.323
X4.5285Y-2.423
X4.5285Y-2.523
X4.5356Y-0.8717
X4.5356Y-0.9717
X4.5356Y-1.0717
X4.5356Y-1.1717
X4.5356Y-1.2717
X4.5356Y-1.3717
X4.5356Y-1.4717
X4.5356Y-1.5717
X4.5356Y-1.6717
X4.5356Y-1.7717
T0
M30
