%TF.GenerationSoftware,KiCad,Pcbnew,6.0.2+dfsg-1*%
%TF.CreationDate,2023-03-28T11:03:39-04:00*%
%TF.ProjectId,Register,52656769-7374-4657-922e-6b696361645f,rev?*%
%TF.SameCoordinates,Original*%
%TF.FileFunction,Copper,L1,Top*%
%TF.FilePolarity,Positive*%
%FSLAX46Y46*%
G04 Gerber Fmt 4.6, Leading zero omitted, Abs format (unit mm)*
G04 Created by KiCad (PCBNEW 6.0.2+dfsg-1) date 2023-03-28 11:03:39*
%MOMM*%
%LPD*%
G01*
G04 APERTURE LIST*
%TA.AperFunction,ComponentPad*%
%ADD10R,1.800000X1.800000*%
%TD*%
%TA.AperFunction,ComponentPad*%
%ADD11C,1.800000*%
%TD*%
%TA.AperFunction,ComponentPad*%
%ADD12R,2.400000X1.600000*%
%TD*%
%TA.AperFunction,ComponentPad*%
%ADD13O,2.400000X1.600000*%
%TD*%
%TA.AperFunction,ComponentPad*%
%ADD14R,1.600000X2.400000*%
%TD*%
%TA.AperFunction,ComponentPad*%
%ADD15O,1.600000X2.400000*%
%TD*%
%TA.AperFunction,ComponentPad*%
%ADD16R,1.600000X1.600000*%
%TD*%
%TA.AperFunction,ComponentPad*%
%ADD17O,1.600000X1.600000*%
%TD*%
%TA.AperFunction,ComponentPad*%
%ADD18R,1.700000X1.700000*%
%TD*%
%TA.AperFunction,ComponentPad*%
%ADD19O,1.700000X1.700000*%
%TD*%
%TA.AperFunction,ViaPad*%
%ADD20C,0.800000*%
%TD*%
%TA.AperFunction,Conductor*%
%ADD21C,0.250000*%
%TD*%
G04 APERTURE END LIST*
D10*
%TO.P,D3,1,K*%
%TO.N,Net-(D3-Pad1)*%
X83470000Y-68555000D03*
D11*
%TO.P,D3,2,A*%
%TO.N,Net-(U1-Pad6)*%
X83470000Y-66015000D03*
%TD*%
D12*
%TO.P,U3,1,A->B*%
%TO.N,Net-(U2-Pad1)*%
X64600000Y-69435000D03*
D13*
%TO.P,U3,2,A0*%
%TO.N,Net-(U1-Pad2)*%
X64600000Y-71975000D03*
%TO.P,U3,3,A1*%
%TO.N,Net-(U1-Pad5)*%
X64600000Y-74515000D03*
%TO.P,U3,4,A2*%
%TO.N,Net-(U1-Pad6)*%
X64600000Y-77055000D03*
%TO.P,U3,5,A3*%
%TO.N,Net-(U1-Pad9)*%
X64600000Y-79595000D03*
%TO.P,U3,6,A4*%
%TO.N,Net-(U1-Pad12)*%
X64600000Y-82135000D03*
%TO.P,U3,7,A5*%
%TO.N,Net-(U1-Pad15)*%
X64600000Y-84675000D03*
%TO.P,U3,8,A6*%
%TO.N,Net-(U1-Pad16)*%
X64600000Y-87215000D03*
%TO.P,U3,9,A7*%
%TO.N,Net-(U1-Pad19)*%
X64600000Y-89755000D03*
%TO.P,U3,10,GND*%
%TO.N,GND*%
X64600000Y-92295000D03*
%TO.P,U3,11,B7*%
%TO.N,/RS_{7}*%
X72220000Y-92295000D03*
%TO.P,U3,12,B6*%
%TO.N,/RS_{6}*%
X72220000Y-89755000D03*
%TO.P,U3,13,B5*%
%TO.N,/RS_{5}*%
X72220000Y-87215000D03*
%TO.P,U3,14,B4*%
%TO.N,/RS_{4}*%
X72220000Y-84675000D03*
%TO.P,U3,15,B3*%
%TO.N,/RS_{3}*%
X72220000Y-82135000D03*
%TO.P,U3,16,B2*%
%TO.N,/RS_{2}*%
X72220000Y-79595000D03*
%TO.P,U3,17,B1*%
%TO.N,/RS_{1}*%
X72220000Y-77055000D03*
%TO.P,U3,18,B0*%
%TO.N,/RS_{0}*%
X72220000Y-74515000D03*
%TO.P,U3,19,CE*%
%TO.N,/RS_{E}*%
X72220000Y-71975000D03*
%TO.P,U3,20,VCC*%
%TO.N,Net-(U2-Pad1)*%
X72220000Y-69435000D03*
%TD*%
D10*
%TO.P,D7,1,K*%
%TO.N,Net-(D7-Pad1)*%
X83470000Y-88185000D03*
D11*
%TO.P,D7,2,A*%
%TO.N,Net-(U1-Pad16)*%
X83470000Y-85645000D03*
%TD*%
D12*
%TO.P,U2,1,A->B*%
%TO.N,Net-(U2-Pad1)*%
X51660000Y-69215000D03*
D13*
%TO.P,U2,2,A0*%
%TO.N,Net-(U1-Pad2)*%
X51660000Y-71755000D03*
%TO.P,U2,3,A1*%
%TO.N,Net-(U1-Pad5)*%
X51660000Y-74295000D03*
%TO.P,U2,4,A2*%
%TO.N,Net-(U1-Pad6)*%
X51660000Y-76835000D03*
%TO.P,U2,5,A3*%
%TO.N,Net-(U1-Pad9)*%
X51660000Y-79375000D03*
%TO.P,U2,6,A4*%
%TO.N,Net-(U1-Pad12)*%
X51660000Y-81915000D03*
%TO.P,U2,7,A5*%
%TO.N,Net-(U1-Pad15)*%
X51660000Y-84455000D03*
%TO.P,U2,8,A6*%
%TO.N,Net-(U1-Pad16)*%
X51660000Y-86995000D03*
%TO.P,U2,9,A7*%
%TO.N,Net-(U1-Pad19)*%
X51660000Y-89535000D03*
%TO.P,U2,10,GND*%
%TO.N,GND*%
X51660000Y-92075000D03*
%TO.P,U2,11,B7*%
%TO.N,/RD_{7}*%
X59280000Y-92075000D03*
%TO.P,U2,12,B6*%
%TO.N,/RD_{6}*%
X59280000Y-89535000D03*
%TO.P,U2,13,B5*%
%TO.N,/RD_{5}*%
X59280000Y-86995000D03*
%TO.P,U2,14,B4*%
%TO.N,/RD_{4}*%
X59280000Y-84455000D03*
%TO.P,U2,15,B3*%
%TO.N,/RD_{3}*%
X59280000Y-81915000D03*
%TO.P,U2,16,B2*%
%TO.N,/RD_{2}*%
X59280000Y-79375000D03*
%TO.P,U2,17,B1*%
%TO.N,/RD_{1}*%
X59280000Y-76835000D03*
%TO.P,U2,18,B0*%
%TO.N,/RD_{0}*%
X59280000Y-74295000D03*
%TO.P,U2,19,CE*%
%TO.N,/RD_{E}*%
X59280000Y-71755000D03*
%TO.P,U2,20,VCC*%
%TO.N,Net-(U2-Pad1)*%
X59280000Y-69215000D03*
%TD*%
D10*
%TO.P,D4,1,K*%
%TO.N,Net-(D4-Pad1)*%
X83470000Y-73465000D03*
D11*
%TO.P,D4,2,A*%
%TO.N,Net-(U1-Pad9)*%
X83470000Y-70925000D03*
%TD*%
D10*
%TO.P,D1,1,K*%
%TO.N,Net-(D1-Pad1)*%
X83470000Y-58730000D03*
D11*
%TO.P,D1,2,A*%
%TO.N,Net-(U1-Pad2)*%
X83470000Y-56190000D03*
%TD*%
D14*
%TO.P,U1,1,~{E}*%
%TO.N,/RB_{E}*%
X50980000Y-63960000D03*
D15*
%TO.P,U1,2,Q0*%
%TO.N,Net-(U1-Pad2)*%
X53520000Y-63960000D03*
%TO.P,U1,3,D0*%
%TO.N,/D_{0}*%
X56060000Y-63960000D03*
%TO.P,U1,4,D1*%
%TO.N,/D_{1}*%
X58600000Y-63960000D03*
%TO.P,U1,5,Q1*%
%TO.N,Net-(U1-Pad5)*%
X61140000Y-63960000D03*
%TO.P,U1,6,Q2*%
%TO.N,Net-(U1-Pad6)*%
X63680000Y-63960000D03*
%TO.P,U1,7,D2*%
%TO.N,/D_{2}*%
X66220000Y-63960000D03*
%TO.P,U1,8,D3*%
%TO.N,/D_{3}*%
X68760000Y-63960000D03*
%TO.P,U1,9,Q3*%
%TO.N,Net-(U1-Pad9)*%
X71300000Y-63960000D03*
%TO.P,U1,10,GND*%
%TO.N,GND*%
X73840000Y-63960000D03*
%TO.P,U1,11,CP*%
%TO.N,/CLK*%
X73840000Y-56340000D03*
%TO.P,U1,12,Q4*%
%TO.N,Net-(U1-Pad12)*%
X71300000Y-56340000D03*
%TO.P,U1,13,D4*%
%TO.N,/D_{4}*%
X68760000Y-56340000D03*
%TO.P,U1,14,D5*%
%TO.N,/D_{5}*%
X66220000Y-56340000D03*
%TO.P,U1,15,Q5*%
%TO.N,Net-(U1-Pad15)*%
X63680000Y-56340000D03*
%TO.P,U1,16,Q6*%
%TO.N,Net-(U1-Pad16)*%
X61140000Y-56340000D03*
%TO.P,U1,17,D6*%
%TO.N,/D_{6}*%
X58600000Y-56340000D03*
%TO.P,U1,18,D7*%
%TO.N,/D_{7}*%
X56060000Y-56340000D03*
%TO.P,U1,19,Q7*%
%TO.N,Net-(U1-Pad19)*%
X53520000Y-56340000D03*
%TO.P,U1,20,VCC*%
%TO.N,VCC*%
X50980000Y-56340000D03*
%TD*%
D10*
%TO.P,D8,1,K*%
%TO.N,Net-(D8-Pad1)*%
X83470000Y-93095000D03*
D11*
%TO.P,D8,2,A*%
%TO.N,Net-(U1-Pad19)*%
X83470000Y-90555000D03*
%TD*%
D16*
%TO.P,RN1,1,R1.1*%
%TO.N,GND*%
X77270000Y-68990000D03*
D17*
%TO.P,RN1,2,R1.2*%
%TO.N,Net-(D1-Pad1)*%
X77270000Y-71530000D03*
%TO.P,RN1,3,R2.2*%
%TO.N,Net-(D2-Pad1)*%
X77270000Y-74070000D03*
%TO.P,RN1,4,R3.2*%
%TO.N,Net-(D3-Pad1)*%
X77270000Y-76610000D03*
%TO.P,RN1,5,R4.2*%
%TO.N,Net-(D4-Pad1)*%
X77270000Y-79150000D03*
%TO.P,RN1,6,R5.2*%
%TO.N,Net-(D5-Pad1)*%
X77270000Y-81690000D03*
%TO.P,RN1,7,R6.2*%
%TO.N,Net-(D6-Pad1)*%
X77270000Y-84230000D03*
%TO.P,RN1,8,R7.2*%
%TO.N,Net-(D7-Pad1)*%
X77270000Y-86770000D03*
%TO.P,RN1,9,R8.2*%
%TO.N,Net-(D8-Pad1)*%
X77270000Y-89310000D03*
%TD*%
D10*
%TO.P,D6,1,K*%
%TO.N,Net-(D6-Pad1)*%
X83470000Y-83275000D03*
D11*
%TO.P,D6,2,A*%
%TO.N,Net-(U1-Pad15)*%
X83470000Y-80735000D03*
%TD*%
D10*
%TO.P,D5,1,K*%
%TO.N,Net-(D5-Pad1)*%
X83470000Y-78375000D03*
D11*
%TO.P,D5,2,A*%
%TO.N,Net-(U1-Pad12)*%
X83470000Y-75835000D03*
%TD*%
D10*
%TO.P,D2,1,K*%
%TO.N,Net-(D2-Pad1)*%
X83470000Y-63640000D03*
D11*
%TO.P,D2,2,A*%
%TO.N,Net-(U1-Pad5)*%
X83470000Y-61100000D03*
%TD*%
D18*
%TO.P,J1,1,Pin_1*%
%TO.N,VCC*%
X45430000Y-56345000D03*
D19*
%TO.P,J1,2,Pin_2*%
%TO.N,/RD_{0}*%
X42890000Y-56345000D03*
%TO.P,J1,3,Pin_3*%
%TO.N,/D_{0}*%
X45430000Y-58885000D03*
%TO.P,J1,4,Pin_4*%
%TO.N,/RD_{1}*%
X42890000Y-58885000D03*
%TO.P,J1,5,Pin_5*%
%TO.N,/D_{1}*%
X45430000Y-61425000D03*
%TO.P,J1,6,Pin_6*%
%TO.N,/RD_{2}*%
X42890000Y-61425000D03*
%TO.P,J1,7,Pin_7*%
%TO.N,/D_{2}*%
X45430000Y-63965000D03*
%TO.P,J1,8,Pin_8*%
%TO.N,/RD_{3}*%
X42890000Y-63965000D03*
%TO.P,J1,9,Pin_9*%
%TO.N,/D_{3}*%
X45430000Y-66505000D03*
%TO.P,J1,10,Pin_10*%
%TO.N,/RD_{4}*%
X42890000Y-66505000D03*
%TO.P,J1,11,Pin_11*%
%TO.N,/D_{4}*%
X45430000Y-69045000D03*
%TO.P,J1,12,Pin_12*%
%TO.N,/RD_{5}*%
X42890000Y-69045000D03*
%TO.P,J1,13,Pin_13*%
%TO.N,/D_{5}*%
X45430000Y-71585000D03*
%TO.P,J1,14,Pin_14*%
%TO.N,/RD_{6}*%
X42890000Y-71585000D03*
%TO.P,J1,15,Pin_15*%
%TO.N,/D_{6}*%
X45430000Y-74125000D03*
%TO.P,J1,16,Pin_16*%
%TO.N,/RD_{7}*%
X42890000Y-74125000D03*
%TO.P,J1,17,Pin_17*%
%TO.N,/D_{7}*%
X45430000Y-76665000D03*
%TO.P,J1,18,Pin_18*%
%TO.N,/RS_{0}*%
X42890000Y-76665000D03*
%TO.P,J1,19,Pin_19*%
%TO.N,/CLK*%
X45430000Y-79205000D03*
%TO.P,J1,20,Pin_20*%
%TO.N,/RS_{1}*%
X42890000Y-79205000D03*
%TO.P,J1,21,Pin_21*%
%TO.N,/RB_{E}*%
X45430000Y-81745000D03*
%TO.P,J1,22,Pin_22*%
%TO.N,/RS_{2}*%
X42890000Y-81745000D03*
%TO.P,J1,23,Pin_23*%
%TO.N,/RD_{E}*%
X45430000Y-84285000D03*
%TO.P,J1,24,Pin_24*%
%TO.N,/RS_{3}*%
X42890000Y-84285000D03*
%TO.P,J1,25,Pin_25*%
%TO.N,/RS_{E}*%
X45430000Y-86825000D03*
%TO.P,J1,26,Pin_26*%
%TO.N,/RS_{4}*%
X42890000Y-86825000D03*
%TO.P,J1,27,Pin_27*%
%TO.N,/RS_{7}*%
X45430000Y-89365000D03*
%TO.P,J1,28,Pin_28*%
%TO.N,/RS_{5}*%
X42890000Y-89365000D03*
%TO.P,J1,29,Pin_29*%
%TO.N,/RS_{6}*%
X45430000Y-91905000D03*
%TO.P,J1,30,Pin_30*%
%TO.N,GND*%
X42890000Y-91905000D03*
%TD*%
D20*
%TO.N,/RD_{0}*%
X53956000Y-60691900D03*
X53273500Y-72674400D03*
%TO.N,/RD_{1}*%
X54641100Y-61421800D03*
%TO.N,/RD_{4}*%
X67990300Y-75700700D03*
X67027700Y-70710400D03*
X63475300Y-85954300D03*
X56894700Y-60198600D03*
X52661800Y-60193200D03*
X61937500Y-87007200D03*
X64705600Y-58428200D03*
X46841700Y-57608500D03*
%TO.N,/RD_{5}*%
X41995500Y-88000200D03*
%TO.N,/RD_{6}*%
X69326800Y-68931500D03*
%TO.N,/D_{6}*%
X48229500Y-72590700D03*
%TO.N,/RD_{7}*%
X61680100Y-92514000D03*
X70180500Y-68087800D03*
%TO.N,/RS_{1}*%
X70684200Y-94221600D03*
%TO.N,Net-(U1-Pad9)*%
X61739300Y-79595000D03*
%TO.N,Net-(U1-Pad12)*%
X61553100Y-82135000D03*
%TO.N,Net-(U1-Pad19)*%
X83526800Y-54495700D03*
%TD*%
D21*
%TO.N,VCC*%
X48125200Y-57865100D02*
X46605100Y-56345000D01*
X50980000Y-57865100D02*
X48125200Y-57865100D01*
X50980000Y-56340000D02*
X50980000Y-57865100D01*
X45430000Y-56345000D02*
X46605100Y-56345000D01*
%TO.N,/RD_{0}*%
X53729600Y-60918300D02*
X53956000Y-60691900D01*
X44065100Y-57152900D02*
X44432300Y-57520100D01*
X45727900Y-57520100D02*
X46541400Y-58333600D01*
X53273500Y-72674400D02*
X54894100Y-74295000D01*
X44432300Y-57520100D02*
X45727900Y-57520100D01*
X46541400Y-58333600D02*
X46690400Y-58333600D01*
X49275100Y-60918300D02*
X53729600Y-60918300D01*
X44065100Y-56345000D02*
X44065100Y-57152900D01*
X42890000Y-56345000D02*
X44065100Y-56345000D01*
X46690400Y-58333600D02*
X49275100Y-60918300D01*
X54894100Y-74295000D02*
X59280000Y-74295000D01*
%TO.N,/D_{0}*%
X56060000Y-63960000D02*
X56060000Y-62434900D01*
X46605100Y-58885000D02*
X50155000Y-62434900D01*
X50155000Y-62434900D02*
X56060000Y-62434900D01*
X45430000Y-58885000D02*
X46605100Y-58885000D01*
%TO.N,/RD_{1}*%
X41713700Y-56900800D02*
X41713700Y-55817200D01*
X42890000Y-57709900D02*
X42522800Y-57709900D01*
X51430000Y-54794500D02*
X52250000Y-55614500D01*
X54682900Y-61380000D02*
X54641100Y-61421800D01*
X42736400Y-54794500D02*
X51430000Y-54794500D01*
X52250000Y-57944700D02*
X54682900Y-60377600D01*
X54682900Y-60377600D02*
X54682900Y-61380000D01*
X52250000Y-55614500D02*
X52250000Y-57944700D01*
X41713700Y-55817200D02*
X42736400Y-54794500D01*
X42522800Y-57709900D02*
X41713700Y-56900800D01*
X42890000Y-58885000D02*
X42890000Y-57709900D01*
%TO.N,/D_{1}*%
X58149900Y-65935200D02*
X58600000Y-65485100D01*
X58600000Y-63960000D02*
X58600000Y-65485100D01*
X45430000Y-61425000D02*
X46605100Y-61425000D01*
X50415500Y-65935200D02*
X58149900Y-65935200D01*
X46605100Y-62124800D02*
X50415500Y-65935200D01*
X46605100Y-61425000D02*
X46605100Y-62124800D01*
%TO.N,/RD_{2}*%
X42890000Y-62600100D02*
X42522800Y-62600100D01*
X41683300Y-77180500D02*
X42463000Y-77960200D01*
X42522800Y-62600100D02*
X41683300Y-63439600D01*
X42890000Y-61425000D02*
X42890000Y-62600100D01*
X42463000Y-77960200D02*
X52721500Y-77960200D01*
X54136300Y-79375000D02*
X59280000Y-79375000D01*
X41683300Y-63439600D02*
X41683300Y-77180500D01*
X52721500Y-77960200D02*
X54136300Y-79375000D01*
%TO.N,/D_{2}*%
X49475500Y-66835400D02*
X64869700Y-66835400D01*
X64869700Y-66835400D02*
X66220000Y-65485100D01*
X46605100Y-63965000D02*
X49475500Y-66835400D01*
X66220000Y-63960000D02*
X66220000Y-65485100D01*
X45430000Y-63965000D02*
X46605100Y-63965000D01*
%TO.N,/D_{3}*%
X47385600Y-67285500D02*
X66959600Y-67285500D01*
X66959600Y-67285500D02*
X68760000Y-65485100D01*
X46605100Y-66505000D02*
X47385600Y-67285500D01*
X68760000Y-63960000D02*
X68760000Y-65485100D01*
X45430000Y-66505000D02*
X46605100Y-66505000D01*
%TO.N,/RD_{4}*%
X62990400Y-85954300D02*
X63475300Y-85954300D01*
X49426400Y-60193200D02*
X52661800Y-60193200D01*
X73048400Y-75700700D02*
X67990300Y-75700700D01*
X61937500Y-87007200D02*
X62990400Y-85954300D01*
X69417500Y-73100200D02*
X72865400Y-73100200D01*
X73793800Y-74955300D02*
X73048400Y-75700700D01*
X73793800Y-74028600D02*
X73793800Y-74955300D01*
X46841700Y-57608500D02*
X49426400Y-60193200D01*
X67027700Y-70710400D02*
X69417500Y-73100200D01*
X56894700Y-60198600D02*
X58665100Y-58428200D01*
X58665100Y-58428200D02*
X64705600Y-58428200D01*
X72865400Y-73100200D02*
X73793800Y-74028600D01*
%TO.N,/RD_{5}*%
X44254800Y-86338000D02*
X44981600Y-85611200D01*
X43431300Y-88000200D02*
X44254800Y-87176700D01*
X44254800Y-87176700D02*
X44254800Y-86338000D01*
X54149600Y-86995000D02*
X57754900Y-86995000D01*
X41995500Y-88000200D02*
X43431300Y-88000200D01*
X59280000Y-86995000D02*
X57754900Y-86995000D01*
X44981600Y-85611200D02*
X52765800Y-85611200D01*
X52765800Y-85611200D02*
X54149600Y-86995000D01*
%TO.N,/RD_{6}*%
X69933600Y-67309300D02*
X69326800Y-67916100D01*
X49662000Y-66385300D02*
X63248600Y-66385300D01*
X46059700Y-62783000D02*
X49662000Y-66385300D01*
X69933600Y-63100100D02*
X69933600Y-67309300D01*
X69326800Y-67916100D02*
X69326800Y-68931500D01*
X42890000Y-70409900D02*
X43257300Y-70409900D01*
X42890000Y-71585000D02*
X42890000Y-70409900D01*
X64950000Y-63234300D02*
X65749400Y-62434900D01*
X63248600Y-66385300D02*
X64950000Y-64683900D01*
X65749400Y-62434900D02*
X69268400Y-62434900D01*
X44065100Y-69602100D02*
X44065100Y-63650200D01*
X64950000Y-64683900D02*
X64950000Y-63234300D01*
X44065100Y-63650200D02*
X44932300Y-62783000D01*
X69268400Y-62434900D02*
X69933600Y-63100100D01*
X43257300Y-70409900D02*
X44065100Y-69602100D01*
X44932300Y-62783000D02*
X46059700Y-62783000D01*
%TO.N,/D_{6}*%
X46605100Y-74125000D02*
X48139400Y-72590700D01*
X48139400Y-72590700D02*
X48229500Y-72590700D01*
X45430000Y-74125000D02*
X46605100Y-74125000D01*
%TO.N,/RD_{7}*%
X47238400Y-71538300D02*
X47238400Y-71099300D01*
X44065100Y-73759700D02*
X44969800Y-72855000D01*
X45921700Y-72855000D02*
X47238400Y-71538300D01*
X67350400Y-68089800D02*
X68917200Y-69656600D01*
X59280000Y-92075000D02*
X61241100Y-92075000D01*
X61241100Y-92075000D02*
X61680100Y-92514000D01*
X69633000Y-69656600D02*
X70180500Y-69109100D01*
X50247900Y-68089800D02*
X67350400Y-68089800D01*
X44969800Y-72855000D02*
X45921700Y-72855000D01*
X47238400Y-71099300D02*
X50247900Y-68089800D01*
X68917200Y-69656600D02*
X69633000Y-69656600D01*
X70180500Y-69109100D02*
X70180500Y-68087800D01*
X42890000Y-74125000D02*
X44065100Y-74125000D01*
X44065100Y-74125000D02*
X44065100Y-73759700D01*
%TO.N,/RS_{0}*%
X49184800Y-72720300D02*
X49184800Y-72207900D01*
X49184800Y-72207900D02*
X50770700Y-70622000D01*
X50770700Y-70622000D02*
X65913900Y-70622000D01*
X69806900Y-74515000D02*
X70694900Y-74515000D01*
X44065100Y-76297700D02*
X44872900Y-75489900D01*
X44065100Y-76665000D02*
X44065100Y-76297700D01*
X46415200Y-75489900D02*
X49184800Y-72720300D01*
X65913900Y-70622000D02*
X69806900Y-74515000D01*
X42890000Y-76665000D02*
X44065100Y-76665000D01*
X72220000Y-74515000D02*
X70694900Y-74515000D01*
X44872900Y-75489900D02*
X46415200Y-75489900D01*
%TO.N,/RS_{1}*%
X42789900Y-94221600D02*
X70684200Y-94221600D01*
X41176500Y-81726400D02*
X41176500Y-92608200D01*
X41176500Y-92608200D02*
X42789900Y-94221600D01*
X42522800Y-80380100D02*
X41176500Y-81726400D01*
X42890000Y-80380100D02*
X42522800Y-80380100D01*
X42890000Y-79205000D02*
X42890000Y-80380100D01*
%TO.N,/RS_{2}*%
X44065100Y-81377800D02*
X44065100Y-81745000D01*
X72220000Y-79595000D02*
X66800200Y-79595000D01*
X42890000Y-81745000D02*
X44065100Y-81745000D01*
X66800200Y-79595000D02*
X65622200Y-80773000D01*
X54221600Y-80536300D02*
X44906600Y-80536300D01*
X44906600Y-80536300D02*
X44065100Y-81377800D01*
X65622200Y-80773000D02*
X54458300Y-80773000D01*
X54458300Y-80773000D02*
X54221600Y-80536300D01*
%TO.N,/RS_{3}*%
X53090000Y-83272600D02*
X52919800Y-83102400D01*
X52919800Y-83102400D02*
X44882400Y-83102400D01*
X44065100Y-83919700D02*
X44065100Y-84285000D01*
X68154900Y-82135000D02*
X67017300Y-83272600D01*
X42890000Y-84285000D02*
X44065100Y-84285000D01*
X72220000Y-82135000D02*
X68154900Y-82135000D01*
X44882400Y-83102400D02*
X44065100Y-83919700D01*
X67017300Y-83272600D02*
X53090000Y-83272600D01*
%TO.N,/RS_{7}*%
X72220000Y-92295000D02*
X70694900Y-92295000D01*
X41699800Y-92421000D02*
X43006600Y-93727800D01*
X41699800Y-91404700D02*
X41699800Y-92421000D01*
X69262100Y-93727800D02*
X70694900Y-92295000D01*
X44160000Y-90635000D02*
X42469500Y-90635000D01*
X45430000Y-89365000D02*
X44160000Y-90635000D01*
X42469500Y-90635000D02*
X41699800Y-91404700D01*
X43006600Y-93727800D02*
X69262100Y-93727800D01*
%TO.N,/RS_{5}*%
X42890000Y-89365000D02*
X44065100Y-89365000D01*
X61876600Y-88387900D02*
X66982000Y-88387900D01*
X44065100Y-89365000D02*
X44065100Y-88999700D01*
X61671700Y-88183000D02*
X61876600Y-88387900D01*
X44065100Y-88999700D02*
X44881800Y-88183000D01*
X68154900Y-87215000D02*
X72220000Y-87215000D01*
X66982000Y-88387900D02*
X68154900Y-87215000D01*
X44881800Y-88183000D02*
X61671700Y-88183000D01*
%TO.N,/RS_{6}*%
X54061300Y-93214400D02*
X47914500Y-93214400D01*
X72220000Y-89755000D02*
X70694900Y-89755000D01*
X70694900Y-89755000D02*
X69569600Y-90880300D01*
X47914500Y-93214400D02*
X46605100Y-91905000D01*
X56395400Y-90880300D02*
X54061300Y-93214400D01*
X69569600Y-90880300D02*
X56395400Y-90880300D01*
X45430000Y-91905000D02*
X46605100Y-91905000D01*
%TO.N,GND*%
X44065100Y-91537800D02*
X44887800Y-90715100D01*
X44887800Y-90715100D02*
X48775000Y-90715100D01*
X48775000Y-90715100D02*
X50134900Y-92075000D01*
X51660000Y-92075000D02*
X50134900Y-92075000D01*
X44065100Y-91905000D02*
X44065100Y-91537800D01*
X42890000Y-91905000D02*
X44065100Y-91905000D01*
%TO.N,Net-(U1-Pad2)*%
X57330000Y-63231300D02*
X57330000Y-64718400D01*
X64600000Y-71975000D02*
X63074900Y-71975000D01*
X63074900Y-71975000D02*
X62156200Y-72893700D01*
X57330000Y-64718400D02*
X56563300Y-65485100D01*
X54518400Y-72893700D02*
X53379700Y-71755000D01*
X56563300Y-65485100D02*
X53520000Y-65485100D01*
X51660000Y-71755000D02*
X53185100Y-71755000D01*
X83470000Y-56190000D02*
X79198300Y-60461700D01*
X60099600Y-60461700D02*
X57330000Y-63231300D01*
X79198300Y-60461700D02*
X60099600Y-60461700D01*
X62156200Y-72893700D02*
X54518400Y-72893700D01*
X53379700Y-71755000D02*
X53185100Y-71755000D01*
X53520000Y-63960000D02*
X53520000Y-65485100D01*
%TO.N,Net-(U1-Pad5)*%
X61140000Y-63960000D02*
X61140000Y-62434900D01*
X61140000Y-62434900D02*
X62474900Y-61100000D01*
X62474900Y-61100000D02*
X83470000Y-61100000D01*
X54323800Y-75433700D02*
X62156200Y-75433700D01*
X64600000Y-74515000D02*
X63074900Y-74515000D01*
X51660000Y-74295000D02*
X53185100Y-74295000D01*
X62156200Y-75433700D02*
X63074900Y-74515000D01*
X53185100Y-74295000D02*
X54323800Y-75433700D01*
%TO.N,Net-(U1-Pad6)*%
X53185100Y-76835000D02*
X54323800Y-77973700D01*
X62156200Y-77973700D02*
X63074900Y-77055000D01*
X64130100Y-61984800D02*
X63680000Y-62434900D01*
X63680000Y-63960000D02*
X63680000Y-62434900D01*
X51660000Y-76835000D02*
X53185100Y-76835000D01*
X83470000Y-66015000D02*
X79439800Y-61984800D01*
X79439800Y-61984800D02*
X64130100Y-61984800D01*
X64600000Y-77055000D02*
X63074900Y-77055000D01*
X54323800Y-77973700D02*
X62156200Y-77973700D01*
%TO.N,Net-(U1-Pad9)*%
X84695200Y-69699800D02*
X83470000Y-70925000D01*
X84556100Y-67329800D02*
X84695200Y-67468900D01*
X64600000Y-79595000D02*
X61739300Y-79595000D01*
X84695200Y-67468900D02*
X84695200Y-69699800D01*
X71300000Y-63960000D02*
X71300000Y-65485100D01*
X71300000Y-65485100D02*
X73144700Y-67329800D01*
X73144700Y-67329800D02*
X84556100Y-67329800D01*
%TO.N,Net-(U1-Pad12)*%
X65362600Y-82135000D02*
X64600000Y-82135000D01*
X79029800Y-80275200D02*
X75537500Y-80275200D01*
X67539900Y-80720200D02*
X66125100Y-82135000D01*
X83470000Y-75835000D02*
X79029800Y-80275200D01*
X64600000Y-82135000D02*
X61553100Y-82135000D01*
X75092500Y-80720200D02*
X67539900Y-80720200D01*
X75537500Y-80275200D02*
X75092500Y-80720200D01*
X65362600Y-82135000D02*
X66125100Y-82135000D01*
%TO.N,Net-(U1-Pad15)*%
X54342300Y-85612200D02*
X53185100Y-84455000D01*
X51660000Y-84455000D02*
X53185100Y-84455000D01*
X64600000Y-84675000D02*
X63074900Y-84675000D01*
X75092500Y-83260200D02*
X71473000Y-83260200D01*
X71473000Y-83260200D02*
X70058200Y-84675000D01*
X83470000Y-80735000D02*
X81389800Y-82815200D01*
X81389800Y-82815200D02*
X75537500Y-82815200D01*
X70058200Y-84675000D02*
X64600000Y-84675000D01*
X75537500Y-82815200D02*
X75092500Y-83260200D01*
X62137700Y-85612200D02*
X54342300Y-85612200D01*
X63074900Y-84675000D02*
X62137700Y-85612200D01*
%TO.N,Net-(U1-Pad16)*%
X74352500Y-86089800D02*
X74869800Y-85572500D01*
X74869800Y-85572500D02*
X83397500Y-85572500D01*
X66125100Y-87215000D02*
X67250300Y-86089800D01*
X64600000Y-87215000D02*
X66125100Y-87215000D01*
X67250300Y-86089800D02*
X74352500Y-86089800D01*
X83397500Y-85572500D02*
X83470000Y-85645000D01*
%TO.N,Net-(U1-Pad19)*%
X83470000Y-90555000D02*
X81050100Y-90555000D01*
X75092500Y-88340200D02*
X71473000Y-88340200D01*
X75247900Y-88184800D02*
X75092500Y-88340200D01*
X53520000Y-56340000D02*
X53520000Y-54814900D01*
X81050100Y-90555000D02*
X78679900Y-88184800D01*
X53520000Y-54814900D02*
X53839200Y-54495700D01*
X70058200Y-89755000D02*
X64600000Y-89755000D01*
X53839200Y-54495700D02*
X83526800Y-54495700D01*
X78679900Y-88184800D02*
X75247900Y-88184800D01*
X71473000Y-88340200D02*
X70058200Y-89755000D01*
%TO.N,Net-(U2-Pad1)*%
X70023200Y-70106700D02*
X68544600Y-70106700D01*
X59280000Y-69215000D02*
X62854900Y-69215000D01*
X62854900Y-69215000D02*
X63074900Y-69435000D01*
X67872900Y-69435000D02*
X66125100Y-69435000D01*
X72220000Y-69435000D02*
X70694900Y-69435000D01*
X64600000Y-69435000D02*
X66125100Y-69435000D01*
X68544600Y-70106700D02*
X67872900Y-69435000D01*
X51660000Y-69215000D02*
X59280000Y-69215000D01*
X64600000Y-69435000D02*
X63074900Y-69435000D01*
X70694900Y-69435000D02*
X70023200Y-70106700D01*
%TO.N,Net-(D3-Pad1)*%
X78395100Y-74641200D02*
X78395100Y-73629900D01*
X78395100Y-73629900D02*
X83470000Y-68555000D01*
X77270000Y-75484900D02*
X77551400Y-75484900D01*
X77551400Y-75484900D02*
X78395100Y-74641200D01*
X77270000Y-76610000D02*
X77270000Y-75484900D01*
%TO.N,Net-(D5-Pad1)*%
X83470000Y-78375000D02*
X82244900Y-78375000D01*
X82244900Y-78375000D02*
X78929900Y-81690000D01*
X78929900Y-81690000D02*
X77270000Y-81690000D01*
%TO.N,Net-(D6-Pad1)*%
X79350100Y-83275000D02*
X78395100Y-84230000D01*
X83470000Y-83275000D02*
X79350100Y-83275000D01*
X77270000Y-84230000D02*
X78395100Y-84230000D01*
%TO.N,Net-(D7-Pad1)*%
X79810100Y-88185000D02*
X83470000Y-88185000D01*
X78395100Y-86770000D02*
X79810100Y-88185000D01*
X77270000Y-86770000D02*
X78395100Y-86770000D01*
%TO.N,Net-(D8-Pad1)*%
X82180100Y-93095000D02*
X83470000Y-93095000D01*
X77270000Y-89310000D02*
X78395100Y-89310000D01*
X78395100Y-89310000D02*
X82180100Y-93095000D01*
%TD*%
M02*
