M48
; DRILL file {KiCad 6.0.2+dfsg-1} date Tue 28 Mar 2023 11:03:38 AM EDT
; FORMAT={-:-/ absolute / inch / decimal}
; #@! TF.CreationDate,2023-03-28T11:03:38-04:00
; #@! TF.GenerationSoftware,Kicad,Pcbnew,6.0.2+dfsg-1
; #@! TF.FileFunction,Plated,1,2,PTH
FMAT,2
INCH
; #@! TA.AperFunction,Plated,PTH,ViaDrill
T1C0.0157
; #@! TA.AperFunction,Plated,PTH,ComponentDrill
T2C0.0315
; #@! TA.AperFunction,Plated,PTH,ComponentDrill
T3C0.0354
; #@! TA.AperFunction,Plated,PTH,ComponentDrill
T4C0.0394
%
G90
G05
T1
X1.6534Y-3.4646
X1.8442Y-2.2681
X1.8988Y-2.8579
X2.0733Y-2.3698
X2.0974Y-2.8612
X2.1243Y-2.3894
X2.1512Y-2.4182
X2.2399Y-2.37
X2.4234Y-3.2337
X2.4284Y-3.6423
X2.4307Y-3.1337
X2.4385Y-3.4255
X2.499Y-3.384
X2.5475Y-2.3003
X2.6389Y-2.7839
X2.6768Y-2.9803
X2.7294Y-2.7138
X2.763Y-2.6806
X2.7828Y-3.7095
X3.2885Y-2.1455
T2
X2.0071Y-2.2181
X2.0071Y-2.5181
X2.0339Y-2.725
X2.0339Y-2.825
X2.0339Y-2.925
X2.0339Y-3.025
X2.0339Y-3.125
X2.0339Y-3.225
X2.0339Y-3.325
X2.0339Y-3.425
X2.0339Y-3.525
X2.0339Y-3.625
X2.1071Y-2.2181
X2.1071Y-2.5181
X2.2071Y-2.2181
X2.2071Y-2.5181
X2.3071Y-2.2181
X2.3071Y-2.5181
X2.3339Y-2.725
X2.3339Y-2.825
X2.3339Y-2.925
X2.3339Y-3.025
X2.3339Y-3.125
X2.3339Y-3.225
X2.3339Y-3.325
X2.3339Y-3.425
X2.3339Y-3.525
X2.3339Y-3.625
X2.4071Y-2.2181
X2.4071Y-2.5181
X2.5071Y-2.2181
X2.5071Y-2.5181
X2.5433Y-2.7337
X2.5433Y-2.8337
X2.5433Y-2.9337
X2.5433Y-3.0337
X2.5433Y-3.1337
X2.5433Y-3.2337
X2.5433Y-3.3337
X2.5433Y-3.4337
X2.5433Y-3.5337
X2.5433Y-3.6337
X2.6071Y-2.2181
X2.6071Y-2.5181
X2.7071Y-2.2181
X2.7071Y-2.5181
X2.8071Y-2.2181
X2.8071Y-2.5181
X2.8433Y-2.7337
X2.8433Y-2.8337
X2.8433Y-2.9337
X2.8433Y-3.0337
X2.8433Y-3.1337
X2.8433Y-3.2337
X2.8433Y-3.3337
X2.8433Y-3.4337
X2.8433Y-3.5337
X2.8433Y-3.6337
X2.9071Y-2.2181
X2.9071Y-2.5181
X3.0421Y-2.7161
X3.0421Y-2.8161
X3.0421Y-2.9161
X3.0421Y-3.0161
X3.0421Y-3.1161
X3.0421Y-3.2161
X3.0421Y-3.3161
X3.0421Y-3.4161
X3.0421Y-3.5161
T3
X3.2862Y-2.2122
X3.2862Y-2.3122
X3.2862Y-2.4055
X3.2862Y-2.5055
X3.2862Y-2.599
X3.2862Y-2.699
X3.2862Y-2.7923
X3.2862Y-2.8923
X3.2862Y-2.9856
X3.2862Y-3.0856
X3.2862Y-3.1785
X3.2862Y-3.2785
X3.2862Y-3.3719
X3.2862Y-3.4719
X3.2862Y-3.5652
X3.2862Y-3.6652
T4
X1.6886Y-2.2183
X1.6886Y-2.3183
X1.6886Y-2.4183
X1.6886Y-2.5183
X1.6886Y-2.6183
X1.6886Y-2.7183
X1.6886Y-2.8183
X1.6886Y-2.9183
X1.6886Y-3.0183
X1.6886Y-3.1183
X1.6886Y-3.2183
X1.6886Y-3.3183
X1.6886Y-3.4183
X1.6886Y-3.5183
X1.6886Y-3.6183
X1.7886Y-2.2183
X1.7886Y-2.3183
X1.7886Y-2.4183
X1.7886Y-2.5183
X1.7886Y-2.6183
X1.7886Y-2.7183
X1.7886Y-2.8183
X1.7886Y-2.9183
X1.7886Y-3.0183
X1.7886Y-3.1183
X1.7886Y-3.2183
X1.7886Y-3.3183
X1.7886Y-3.4183
X1.7886Y-3.5183
X1.7886Y-3.6183
T0
M30
