%TF.GenerationSoftware,KiCad,Pcbnew,6.0.2+dfsg-1*%
%TF.CreationDate,2023-03-28T11:03:39-04:00*%
%TF.ProjectId,Register,52656769-7374-4657-922e-6b696361645f,rev?*%
%TF.SameCoordinates,Original*%
%TF.FileFunction,Legend,Bot*%
%TF.FilePolarity,Positive*%
%FSLAX46Y46*%
G04 Gerber Fmt 4.6, Leading zero omitted, Abs format (unit mm)*
G04 Created by KiCad (PCBNEW 6.0.2+dfsg-1) date 2023-03-28 11:03:39*
%MOMM*%
%LPD*%
G01*
G04 APERTURE LIST*
%ADD10C,0.150000*%
%ADD11C,0.120000*%
G04 APERTURE END LIST*
D10*
%TO.C,J1*%
X40108333Y-53527380D02*
X40108333Y-54241666D01*
X40155952Y-54384523D01*
X40251190Y-54479761D01*
X40394047Y-54527380D01*
X40489285Y-54527380D01*
X39108333Y-54527380D02*
X39679761Y-54527380D01*
X39394047Y-54527380D02*
X39394047Y-53527380D01*
X39489285Y-53670238D01*
X39584523Y-53765476D01*
X39679761Y-53813095D01*
D11*
X41847071Y-66125000D02*
X41450000Y-66125000D01*
X32790000Y-77045000D02*
X38790000Y-77045000D01*
X41847071Y-63585000D02*
X41450000Y-63585000D01*
X41847071Y-73745000D02*
X41450000Y-73745000D01*
X44387071Y-84665000D02*
X43932929Y-84665000D01*
X41450000Y-83015000D02*
X38790000Y-83015000D01*
X32790000Y-91525000D02*
X32790000Y-92285000D01*
X41450000Y-77935000D02*
X38790000Y-77935000D01*
X41847071Y-74505000D02*
X41450000Y-74505000D01*
X44387071Y-69425000D02*
X43932929Y-69425000D01*
X41450000Y-55015000D02*
X41450000Y-93235000D01*
X44387071Y-79585000D02*
X43932929Y-79585000D01*
X38790000Y-91525000D02*
X32790000Y-91525000D01*
X41847071Y-78825000D02*
X41450000Y-78825000D01*
X46700000Y-55075000D02*
X45430000Y-55075000D01*
X44387071Y-61045000D02*
X43932929Y-61045000D01*
X32790000Y-61805000D02*
X38790000Y-61805000D01*
X32790000Y-56725000D02*
X38790000Y-56725000D01*
X41847071Y-79585000D02*
X41450000Y-79585000D01*
X44387071Y-63585000D02*
X43932929Y-63585000D01*
X41847071Y-64345000D02*
X41450000Y-64345000D01*
X44387071Y-74505000D02*
X43932929Y-74505000D01*
X32790000Y-92285000D02*
X38790000Y-92285000D01*
X44387071Y-89745000D02*
X43932929Y-89745000D01*
X38790000Y-93235000D02*
X38790000Y-55015000D01*
X38790000Y-71205000D02*
X32790000Y-71205000D01*
X44387071Y-78825000D02*
X43932929Y-78825000D01*
X38790000Y-55965000D02*
X32790000Y-55965000D01*
X44320000Y-55965000D02*
X43932929Y-55965000D01*
X41847071Y-71965000D02*
X41450000Y-71965000D01*
X38790000Y-66125000D02*
X32790000Y-66125000D01*
X44387071Y-58505000D02*
X43932929Y-58505000D01*
X46700000Y-56345000D02*
X46700000Y-55075000D01*
X38790000Y-58505000D02*
X32790000Y-58505000D01*
X38790000Y-86445000D02*
X32790000Y-86445000D01*
X41847071Y-71205000D02*
X41450000Y-71205000D01*
X41847071Y-59265000D02*
X41450000Y-59265000D01*
X32790000Y-58505000D02*
X32790000Y-59265000D01*
X41450000Y-85555000D02*
X38790000Y-85555000D01*
X32790000Y-76285000D02*
X32790000Y-77045000D01*
X41847071Y-55965000D02*
X41450000Y-55965000D01*
X44387071Y-71205000D02*
X43932929Y-71205000D01*
X41847071Y-87205000D02*
X41450000Y-87205000D01*
X32790000Y-73745000D02*
X32790000Y-74505000D01*
X44387071Y-64345000D02*
X43932929Y-64345000D01*
X41847071Y-58505000D02*
X41450000Y-58505000D01*
X32790000Y-71205000D02*
X32790000Y-71965000D01*
X38790000Y-63585000D02*
X32790000Y-63585000D01*
X44387071Y-73745000D02*
X43932929Y-73745000D01*
X44387071Y-87205000D02*
X43932929Y-87205000D01*
X32790000Y-64345000D02*
X38790000Y-64345000D01*
X44387071Y-71965000D02*
X43932929Y-71965000D01*
X32790000Y-84665000D02*
X38790000Y-84665000D01*
X41847071Y-69425000D02*
X41450000Y-69425000D01*
X44387071Y-83905000D02*
X43932929Y-83905000D01*
X41847071Y-82125000D02*
X41450000Y-82125000D01*
X41450000Y-88095000D02*
X38790000Y-88095000D01*
X44387071Y-61805000D02*
X43932929Y-61805000D01*
X41847071Y-66885000D02*
X41450000Y-66885000D01*
X38790000Y-56025000D02*
X32790000Y-56025000D01*
X41847071Y-84665000D02*
X41450000Y-84665000D01*
X38790000Y-73745000D02*
X32790000Y-73745000D01*
X32790000Y-68665000D02*
X32790000Y-69425000D01*
X44387071Y-81365000D02*
X43932929Y-81365000D01*
X38790000Y-56385000D02*
X32790000Y-56385000D01*
X32790000Y-86445000D02*
X32790000Y-87205000D01*
X41450000Y-80475000D02*
X38790000Y-80475000D01*
X44387071Y-59265000D02*
X43932929Y-59265000D01*
X32790000Y-81365000D02*
X32790000Y-82125000D01*
X41450000Y-93235000D02*
X38790000Y-93235000D01*
X44387071Y-76285000D02*
X43932929Y-76285000D01*
X38790000Y-61045000D02*
X32790000Y-61045000D01*
X32790000Y-78825000D02*
X32790000Y-79585000D01*
X32790000Y-61045000D02*
X32790000Y-61805000D01*
X41847071Y-76285000D02*
X41450000Y-76285000D01*
X38790000Y-68665000D02*
X32790000Y-68665000D01*
X41847071Y-61045000D02*
X41450000Y-61045000D01*
X41450000Y-57615000D02*
X38790000Y-57615000D01*
X44387071Y-66125000D02*
X43932929Y-66125000D01*
X41450000Y-62695000D02*
X38790000Y-62695000D01*
X41450000Y-75395000D02*
X38790000Y-75395000D01*
X41847071Y-83905000D02*
X41450000Y-83905000D01*
X38790000Y-76285000D02*
X32790000Y-76285000D01*
X38790000Y-81365000D02*
X32790000Y-81365000D01*
X38790000Y-55015000D02*
X41450000Y-55015000D01*
X44387071Y-82125000D02*
X43932929Y-82125000D01*
X32790000Y-87205000D02*
X38790000Y-87205000D01*
X32790000Y-74505000D02*
X38790000Y-74505000D01*
X32790000Y-66885000D02*
X38790000Y-66885000D01*
X41847071Y-89745000D02*
X41450000Y-89745000D01*
X32790000Y-66125000D02*
X32790000Y-66885000D01*
X41847071Y-61805000D02*
X41450000Y-61805000D01*
X38790000Y-78825000D02*
X32790000Y-78825000D01*
X32790000Y-55965000D02*
X32790000Y-56725000D01*
X38790000Y-88985000D02*
X32790000Y-88985000D01*
X41847071Y-68665000D02*
X41450000Y-68665000D01*
X41847071Y-86445000D02*
X41450000Y-86445000D01*
X41450000Y-65235000D02*
X38790000Y-65235000D01*
X44387071Y-88985000D02*
X43932929Y-88985000D01*
X44387071Y-86445000D02*
X43932929Y-86445000D01*
X41847071Y-88985000D02*
X41450000Y-88985000D01*
X41450000Y-72855000D02*
X38790000Y-72855000D01*
X38790000Y-56145000D02*
X32790000Y-56145000D01*
X32790000Y-89745000D02*
X38790000Y-89745000D01*
X32790000Y-79585000D02*
X38790000Y-79585000D01*
X41450000Y-67775000D02*
X38790000Y-67775000D01*
X41450000Y-70315000D02*
X38790000Y-70315000D01*
X38790000Y-56625000D02*
X32790000Y-56625000D01*
X44387071Y-77045000D02*
X43932929Y-77045000D01*
X41847071Y-77045000D02*
X41450000Y-77045000D01*
X44387071Y-91525000D02*
X43932929Y-91525000D01*
X44387071Y-66885000D02*
X43932929Y-66885000D01*
X32790000Y-59265000D02*
X38790000Y-59265000D01*
X41847071Y-81365000D02*
X41450000Y-81365000D01*
X32790000Y-88985000D02*
X32790000Y-89745000D01*
X38790000Y-56505000D02*
X32790000Y-56505000D01*
X44320000Y-56725000D02*
X43932929Y-56725000D01*
X38790000Y-83905000D02*
X32790000Y-83905000D01*
X32790000Y-83905000D02*
X32790000Y-84665000D01*
X32790000Y-82125000D02*
X38790000Y-82125000D01*
X44387071Y-92285000D02*
X43932929Y-92285000D01*
X32790000Y-63585000D02*
X32790000Y-64345000D01*
X41847071Y-56725000D02*
X41450000Y-56725000D01*
X41450000Y-60155000D02*
X38790000Y-60155000D01*
X32790000Y-71965000D02*
X38790000Y-71965000D01*
X41450000Y-90635000D02*
X38790000Y-90635000D01*
X38790000Y-56265000D02*
X32790000Y-56265000D01*
X41847071Y-91525000D02*
X41450000Y-91525000D01*
X32790000Y-69425000D02*
X38790000Y-69425000D01*
X44387071Y-68665000D02*
X43932929Y-68665000D01*
X41847071Y-92285000D02*
X41450000Y-92285000D01*
%TD*%
M02*
