%TF.GenerationSoftware,KiCad,Pcbnew,6.0.2+dfsg-1*%
%TF.CreationDate,2023-03-28T11:03:39-04:00*%
%TF.ProjectId,Register,52656769-7374-4657-922e-6b696361645f,rev?*%
%TF.SameCoordinates,Original*%
%TF.FileFunction,Copper,L2,Bot*%
%TF.FilePolarity,Positive*%
%FSLAX46Y46*%
G04 Gerber Fmt 4.6, Leading zero omitted, Abs format (unit mm)*
G04 Created by KiCad (PCBNEW 6.0.2+dfsg-1) date 2023-03-28 11:03:39*
%MOMM*%
%LPD*%
G01*
G04 APERTURE LIST*
%TA.AperFunction,ComponentPad*%
%ADD10R,1.800000X1.800000*%
%TD*%
%TA.AperFunction,ComponentPad*%
%ADD11C,1.800000*%
%TD*%
%TA.AperFunction,ComponentPad*%
%ADD12R,2.400000X1.600000*%
%TD*%
%TA.AperFunction,ComponentPad*%
%ADD13O,2.400000X1.600000*%
%TD*%
%TA.AperFunction,ComponentPad*%
%ADD14R,1.600000X2.400000*%
%TD*%
%TA.AperFunction,ComponentPad*%
%ADD15O,1.600000X2.400000*%
%TD*%
%TA.AperFunction,ComponentPad*%
%ADD16R,1.600000X1.600000*%
%TD*%
%TA.AperFunction,ComponentPad*%
%ADD17O,1.600000X1.600000*%
%TD*%
%TA.AperFunction,ComponentPad*%
%ADD18R,1.700000X1.700000*%
%TD*%
%TA.AperFunction,ComponentPad*%
%ADD19O,1.700000X1.700000*%
%TD*%
%TA.AperFunction,ViaPad*%
%ADD20C,0.800000*%
%TD*%
%TA.AperFunction,Conductor*%
%ADD21C,0.250000*%
%TD*%
G04 APERTURE END LIST*
D10*
%TO.P,D3,1,K*%
%TO.N,Net-(D3-Pad1)*%
X83470000Y-68555000D03*
D11*
%TO.P,D3,2,A*%
%TO.N,Net-(U1-Pad6)*%
X83470000Y-66015000D03*
%TD*%
D12*
%TO.P,U3,1,A->B*%
%TO.N,Net-(U2-Pad1)*%
X64600000Y-69435000D03*
D13*
%TO.P,U3,2,A0*%
%TO.N,Net-(U1-Pad2)*%
X64600000Y-71975000D03*
%TO.P,U3,3,A1*%
%TO.N,Net-(U1-Pad5)*%
X64600000Y-74515000D03*
%TO.P,U3,4,A2*%
%TO.N,Net-(U1-Pad6)*%
X64600000Y-77055000D03*
%TO.P,U3,5,A3*%
%TO.N,Net-(U1-Pad9)*%
X64600000Y-79595000D03*
%TO.P,U3,6,A4*%
%TO.N,Net-(U1-Pad12)*%
X64600000Y-82135000D03*
%TO.P,U3,7,A5*%
%TO.N,Net-(U1-Pad15)*%
X64600000Y-84675000D03*
%TO.P,U3,8,A6*%
%TO.N,Net-(U1-Pad16)*%
X64600000Y-87215000D03*
%TO.P,U3,9,A7*%
%TO.N,Net-(U1-Pad19)*%
X64600000Y-89755000D03*
%TO.P,U3,10,GND*%
%TO.N,GND*%
X64600000Y-92295000D03*
%TO.P,U3,11,B7*%
%TO.N,/RS_{7}*%
X72220000Y-92295000D03*
%TO.P,U3,12,B6*%
%TO.N,/RS_{6}*%
X72220000Y-89755000D03*
%TO.P,U3,13,B5*%
%TO.N,/RS_{5}*%
X72220000Y-87215000D03*
%TO.P,U3,14,B4*%
%TO.N,/RS_{4}*%
X72220000Y-84675000D03*
%TO.P,U3,15,B3*%
%TO.N,/RS_{3}*%
X72220000Y-82135000D03*
%TO.P,U3,16,B2*%
%TO.N,/RS_{2}*%
X72220000Y-79595000D03*
%TO.P,U3,17,B1*%
%TO.N,/RS_{1}*%
X72220000Y-77055000D03*
%TO.P,U3,18,B0*%
%TO.N,/RS_{0}*%
X72220000Y-74515000D03*
%TO.P,U3,19,CE*%
%TO.N,/RS_{E}*%
X72220000Y-71975000D03*
%TO.P,U3,20,VCC*%
%TO.N,Net-(U2-Pad1)*%
X72220000Y-69435000D03*
%TD*%
D10*
%TO.P,D7,1,K*%
%TO.N,Net-(D7-Pad1)*%
X83470000Y-88185000D03*
D11*
%TO.P,D7,2,A*%
%TO.N,Net-(U1-Pad16)*%
X83470000Y-85645000D03*
%TD*%
D12*
%TO.P,U2,1,A->B*%
%TO.N,Net-(U2-Pad1)*%
X51660000Y-69215000D03*
D13*
%TO.P,U2,2,A0*%
%TO.N,Net-(U1-Pad2)*%
X51660000Y-71755000D03*
%TO.P,U2,3,A1*%
%TO.N,Net-(U1-Pad5)*%
X51660000Y-74295000D03*
%TO.P,U2,4,A2*%
%TO.N,Net-(U1-Pad6)*%
X51660000Y-76835000D03*
%TO.P,U2,5,A3*%
%TO.N,Net-(U1-Pad9)*%
X51660000Y-79375000D03*
%TO.P,U2,6,A4*%
%TO.N,Net-(U1-Pad12)*%
X51660000Y-81915000D03*
%TO.P,U2,7,A5*%
%TO.N,Net-(U1-Pad15)*%
X51660000Y-84455000D03*
%TO.P,U2,8,A6*%
%TO.N,Net-(U1-Pad16)*%
X51660000Y-86995000D03*
%TO.P,U2,9,A7*%
%TO.N,Net-(U1-Pad19)*%
X51660000Y-89535000D03*
%TO.P,U2,10,GND*%
%TO.N,GND*%
X51660000Y-92075000D03*
%TO.P,U2,11,B7*%
%TO.N,/RD_{7}*%
X59280000Y-92075000D03*
%TO.P,U2,12,B6*%
%TO.N,/RD_{6}*%
X59280000Y-89535000D03*
%TO.P,U2,13,B5*%
%TO.N,/RD_{5}*%
X59280000Y-86995000D03*
%TO.P,U2,14,B4*%
%TO.N,/RD_{4}*%
X59280000Y-84455000D03*
%TO.P,U2,15,B3*%
%TO.N,/RD_{3}*%
X59280000Y-81915000D03*
%TO.P,U2,16,B2*%
%TO.N,/RD_{2}*%
X59280000Y-79375000D03*
%TO.P,U2,17,B1*%
%TO.N,/RD_{1}*%
X59280000Y-76835000D03*
%TO.P,U2,18,B0*%
%TO.N,/RD_{0}*%
X59280000Y-74295000D03*
%TO.P,U2,19,CE*%
%TO.N,/RD_{E}*%
X59280000Y-71755000D03*
%TO.P,U2,20,VCC*%
%TO.N,Net-(U2-Pad1)*%
X59280000Y-69215000D03*
%TD*%
D10*
%TO.P,D4,1,K*%
%TO.N,Net-(D4-Pad1)*%
X83470000Y-73465000D03*
D11*
%TO.P,D4,2,A*%
%TO.N,Net-(U1-Pad9)*%
X83470000Y-70925000D03*
%TD*%
D10*
%TO.P,D1,1,K*%
%TO.N,Net-(D1-Pad1)*%
X83470000Y-58730000D03*
D11*
%TO.P,D1,2,A*%
%TO.N,Net-(U1-Pad2)*%
X83470000Y-56190000D03*
%TD*%
D14*
%TO.P,U1,1,~{E}*%
%TO.N,/RB_{E}*%
X50980000Y-63960000D03*
D15*
%TO.P,U1,2,Q0*%
%TO.N,Net-(U1-Pad2)*%
X53520000Y-63960000D03*
%TO.P,U1,3,D0*%
%TO.N,/D_{0}*%
X56060000Y-63960000D03*
%TO.P,U1,4,D1*%
%TO.N,/D_{1}*%
X58600000Y-63960000D03*
%TO.P,U1,5,Q1*%
%TO.N,Net-(U1-Pad5)*%
X61140000Y-63960000D03*
%TO.P,U1,6,Q2*%
%TO.N,Net-(U1-Pad6)*%
X63680000Y-63960000D03*
%TO.P,U1,7,D2*%
%TO.N,/D_{2}*%
X66220000Y-63960000D03*
%TO.P,U1,8,D3*%
%TO.N,/D_{3}*%
X68760000Y-63960000D03*
%TO.P,U1,9,Q3*%
%TO.N,Net-(U1-Pad9)*%
X71300000Y-63960000D03*
%TO.P,U1,10,GND*%
%TO.N,GND*%
X73840000Y-63960000D03*
%TO.P,U1,11,CP*%
%TO.N,/CLK*%
X73840000Y-56340000D03*
%TO.P,U1,12,Q4*%
%TO.N,Net-(U1-Pad12)*%
X71300000Y-56340000D03*
%TO.P,U1,13,D4*%
%TO.N,/D_{4}*%
X68760000Y-56340000D03*
%TO.P,U1,14,D5*%
%TO.N,/D_{5}*%
X66220000Y-56340000D03*
%TO.P,U1,15,Q5*%
%TO.N,Net-(U1-Pad15)*%
X63680000Y-56340000D03*
%TO.P,U1,16,Q6*%
%TO.N,Net-(U1-Pad16)*%
X61140000Y-56340000D03*
%TO.P,U1,17,D6*%
%TO.N,/D_{6}*%
X58600000Y-56340000D03*
%TO.P,U1,18,D7*%
%TO.N,/D_{7}*%
X56060000Y-56340000D03*
%TO.P,U1,19,Q7*%
%TO.N,Net-(U1-Pad19)*%
X53520000Y-56340000D03*
%TO.P,U1,20,VCC*%
%TO.N,VCC*%
X50980000Y-56340000D03*
%TD*%
D10*
%TO.P,D8,1,K*%
%TO.N,Net-(D8-Pad1)*%
X83470000Y-93095000D03*
D11*
%TO.P,D8,2,A*%
%TO.N,Net-(U1-Pad19)*%
X83470000Y-90555000D03*
%TD*%
D16*
%TO.P,RN1,1,R1.1*%
%TO.N,GND*%
X77270000Y-68990000D03*
D17*
%TO.P,RN1,2,R1.2*%
%TO.N,Net-(D1-Pad1)*%
X77270000Y-71530000D03*
%TO.P,RN1,3,R2.2*%
%TO.N,Net-(D2-Pad1)*%
X77270000Y-74070000D03*
%TO.P,RN1,4,R3.2*%
%TO.N,Net-(D3-Pad1)*%
X77270000Y-76610000D03*
%TO.P,RN1,5,R4.2*%
%TO.N,Net-(D4-Pad1)*%
X77270000Y-79150000D03*
%TO.P,RN1,6,R5.2*%
%TO.N,Net-(D5-Pad1)*%
X77270000Y-81690000D03*
%TO.P,RN1,7,R6.2*%
%TO.N,Net-(D6-Pad1)*%
X77270000Y-84230000D03*
%TO.P,RN1,8,R7.2*%
%TO.N,Net-(D7-Pad1)*%
X77270000Y-86770000D03*
%TO.P,RN1,9,R8.2*%
%TO.N,Net-(D8-Pad1)*%
X77270000Y-89310000D03*
%TD*%
D10*
%TO.P,D6,1,K*%
%TO.N,Net-(D6-Pad1)*%
X83470000Y-83275000D03*
D11*
%TO.P,D6,2,A*%
%TO.N,Net-(U1-Pad15)*%
X83470000Y-80735000D03*
%TD*%
D10*
%TO.P,D5,1,K*%
%TO.N,Net-(D5-Pad1)*%
X83470000Y-78375000D03*
D11*
%TO.P,D5,2,A*%
%TO.N,Net-(U1-Pad12)*%
X83470000Y-75835000D03*
%TD*%
D10*
%TO.P,D2,1,K*%
%TO.N,Net-(D2-Pad1)*%
X83470000Y-63640000D03*
D11*
%TO.P,D2,2,A*%
%TO.N,Net-(U1-Pad5)*%
X83470000Y-61100000D03*
%TD*%
D18*
%TO.P,J1,1,Pin_1*%
%TO.N,VCC*%
X45430000Y-56345000D03*
D19*
%TO.P,J1,2,Pin_2*%
%TO.N,/RD_{0}*%
X42890000Y-56345000D03*
%TO.P,J1,3,Pin_3*%
%TO.N,/D_{0}*%
X45430000Y-58885000D03*
%TO.P,J1,4,Pin_4*%
%TO.N,/RD_{1}*%
X42890000Y-58885000D03*
%TO.P,J1,5,Pin_5*%
%TO.N,/D_{1}*%
X45430000Y-61425000D03*
%TO.P,J1,6,Pin_6*%
%TO.N,/RD_{2}*%
X42890000Y-61425000D03*
%TO.P,J1,7,Pin_7*%
%TO.N,/D_{2}*%
X45430000Y-63965000D03*
%TO.P,J1,8,Pin_8*%
%TO.N,/RD_{3}*%
X42890000Y-63965000D03*
%TO.P,J1,9,Pin_9*%
%TO.N,/D_{3}*%
X45430000Y-66505000D03*
%TO.P,J1,10,Pin_10*%
%TO.N,/RD_{4}*%
X42890000Y-66505000D03*
%TO.P,J1,11,Pin_11*%
%TO.N,/D_{4}*%
X45430000Y-69045000D03*
%TO.P,J1,12,Pin_12*%
%TO.N,/RD_{5}*%
X42890000Y-69045000D03*
%TO.P,J1,13,Pin_13*%
%TO.N,/D_{5}*%
X45430000Y-71585000D03*
%TO.P,J1,14,Pin_14*%
%TO.N,/RD_{6}*%
X42890000Y-71585000D03*
%TO.P,J1,15,Pin_15*%
%TO.N,/D_{6}*%
X45430000Y-74125000D03*
%TO.P,J1,16,Pin_16*%
%TO.N,/RD_{7}*%
X42890000Y-74125000D03*
%TO.P,J1,17,Pin_17*%
%TO.N,/D_{7}*%
X45430000Y-76665000D03*
%TO.P,J1,18,Pin_18*%
%TO.N,/RS_{0}*%
X42890000Y-76665000D03*
%TO.P,J1,19,Pin_19*%
%TO.N,/CLK*%
X45430000Y-79205000D03*
%TO.P,J1,20,Pin_20*%
%TO.N,/RS_{1}*%
X42890000Y-79205000D03*
%TO.P,J1,21,Pin_21*%
%TO.N,/RB_{E}*%
X45430000Y-81745000D03*
%TO.P,J1,22,Pin_22*%
%TO.N,/RS_{2}*%
X42890000Y-81745000D03*
%TO.P,J1,23,Pin_23*%
%TO.N,/RD_{E}*%
X45430000Y-84285000D03*
%TO.P,J1,24,Pin_24*%
%TO.N,/RS_{3}*%
X42890000Y-84285000D03*
%TO.P,J1,25,Pin_25*%
%TO.N,/RS_{E}*%
X45430000Y-86825000D03*
%TO.P,J1,26,Pin_26*%
%TO.N,/RS_{4}*%
X42890000Y-86825000D03*
%TO.P,J1,27,Pin_27*%
%TO.N,/RS_{7}*%
X45430000Y-89365000D03*
%TO.P,J1,28,Pin_28*%
%TO.N,/RS_{5}*%
X42890000Y-89365000D03*
%TO.P,J1,29,Pin_29*%
%TO.N,/RS_{6}*%
X45430000Y-91905000D03*
%TO.P,J1,30,Pin_30*%
%TO.N,GND*%
X42890000Y-91905000D03*
%TD*%
D20*
%TO.N,/RD_{0}*%
X53956000Y-60691900D03*
X53273500Y-72674400D03*
%TO.N,/RD_{1}*%
X54641100Y-61421800D03*
%TO.N,/RD_{4}*%
X67990300Y-75700700D03*
X67027700Y-70710400D03*
X63475300Y-85954300D03*
X56894700Y-60198600D03*
X52661800Y-60193200D03*
X61937500Y-87007200D03*
X64705600Y-58428200D03*
X46841700Y-57608500D03*
%TO.N,/RD_{5}*%
X41995500Y-88000200D03*
%TO.N,/RD_{6}*%
X69326800Y-68931500D03*
%TO.N,/D_{6}*%
X48229500Y-72590700D03*
%TO.N,/RD_{7}*%
X61680100Y-92514000D03*
X70180500Y-68087800D03*
%TO.N,/RS_{1}*%
X70684200Y-94221600D03*
%TO.N,Net-(U1-Pad9)*%
X61739300Y-79595000D03*
%TO.N,Net-(U1-Pad12)*%
X61553100Y-82135000D03*
%TO.N,Net-(U1-Pad19)*%
X83526800Y-54495700D03*
%TD*%
D21*
%TO.N,/RD_{0}*%
X57219500Y-62913000D02*
X54998400Y-60691900D01*
X53273500Y-72674400D02*
X53273500Y-72303300D01*
X53273500Y-72303300D02*
X57219500Y-68357300D01*
X57219500Y-68357300D02*
X57219500Y-62913000D01*
X54998400Y-60691900D02*
X53956000Y-60691900D01*
%TO.N,/RD_{1}*%
X60106800Y-72981600D02*
X60805100Y-72283300D01*
X52105200Y-63367900D02*
X54051300Y-61421800D01*
X50842300Y-75468600D02*
X50133600Y-74759900D01*
X60118500Y-70569800D02*
X58265200Y-70569800D01*
X57754900Y-73807700D02*
X58581000Y-72981600D01*
X50133600Y-74759900D02*
X50133600Y-67315300D01*
X60805100Y-72283300D02*
X60805100Y-71256400D01*
X52105200Y-65343700D02*
X52105200Y-63367900D01*
X57754900Y-76835000D02*
X57754900Y-73807700D01*
X54051300Y-61421800D02*
X54641100Y-61421800D01*
X58581000Y-72981600D02*
X60106800Y-72981600D01*
X59280000Y-76835000D02*
X57754900Y-76835000D01*
X53366400Y-75468600D02*
X50842300Y-75468600D01*
X58265200Y-70569800D02*
X53366400Y-75468600D01*
X60805100Y-71256400D02*
X60118500Y-70569800D01*
X50133600Y-67315300D02*
X52105200Y-65343700D01*
%TO.N,/RD_{3}*%
X47018400Y-85509000D02*
X49197600Y-83329800D01*
X42440900Y-72855000D02*
X41668500Y-73627400D01*
X42461000Y-77935000D02*
X43363400Y-77935000D01*
X49197600Y-83329800D02*
X56340100Y-83329800D01*
X43257300Y-65140100D02*
X44065100Y-65947900D01*
X44065100Y-84639200D02*
X44934900Y-85509000D01*
X59280000Y-81915000D02*
X57754900Y-81915000D01*
X42890000Y-65140100D02*
X43257300Y-65140100D01*
X42890000Y-63965000D02*
X42890000Y-65140100D01*
X41668500Y-77142500D02*
X42461000Y-77935000D01*
X43363400Y-77935000D02*
X44065100Y-78636700D01*
X44065100Y-65947900D02*
X44065100Y-72074000D01*
X43284100Y-72855000D02*
X42440900Y-72855000D01*
X44065100Y-72074000D02*
X43284100Y-72855000D01*
X44934900Y-85509000D02*
X47018400Y-85509000D01*
X44065100Y-78636700D02*
X44065100Y-84639200D01*
X56340100Y-83329800D02*
X57754900Y-81915000D01*
X41668500Y-73627400D02*
X41668500Y-77142500D01*
%TO.N,/RD_{4}*%
X41655600Y-65270600D02*
X41655600Y-63454800D01*
X43281800Y-62695000D02*
X44065100Y-61911700D01*
X56618100Y-59922000D02*
X56894700Y-60198600D01*
X67364100Y-61086700D02*
X67364100Y-70374000D01*
X41655600Y-63454800D02*
X42415400Y-62695000D01*
X45888400Y-60155000D02*
X46841700Y-59201700D01*
X50827500Y-88156500D02*
X50099200Y-87428200D01*
X44065100Y-61911700D02*
X44065100Y-61017600D01*
X63475300Y-85954300D02*
X65350300Y-85954300D01*
X67364100Y-70374000D02*
X67027700Y-70710400D01*
X53980500Y-84455000D02*
X59280000Y-84455000D01*
X52933000Y-59922000D02*
X56618100Y-59922000D01*
X42890000Y-66505000D02*
X41655600Y-65270600D01*
X50735100Y-85869800D02*
X52565700Y-85869800D01*
X60788200Y-88156500D02*
X50827500Y-88156500D01*
X44927700Y-60155000D02*
X45888400Y-60155000D01*
X44065100Y-61017600D02*
X44927700Y-60155000D01*
X50099200Y-86505700D02*
X50735100Y-85869800D01*
X50099200Y-87428200D02*
X50099200Y-86505700D01*
X67990300Y-83314300D02*
X67990300Y-75700700D01*
X42415400Y-62695000D02*
X43281800Y-62695000D01*
X65350300Y-85954300D02*
X67990300Y-83314300D01*
X52565700Y-85869800D02*
X53980500Y-84455000D01*
X61937500Y-87007200D02*
X60788200Y-88156500D01*
X64705600Y-58428200D02*
X67364100Y-61086700D01*
X46841700Y-59201700D02*
X46841700Y-57608500D01*
X52661800Y-60193200D02*
X52933000Y-59922000D01*
%TO.N,/D_{4}*%
X45430000Y-67869900D02*
X45797300Y-67869900D01*
X45430000Y-69045000D02*
X45430000Y-67869900D01*
X46605100Y-60791600D02*
X47566900Y-59829800D01*
X67859800Y-53914700D02*
X68760000Y-54814900D01*
X68760000Y-56340000D02*
X68760000Y-54814900D01*
X47566900Y-59829800D02*
X47566900Y-57759600D01*
X47566900Y-57759600D02*
X51411800Y-53914700D01*
X45797300Y-67869900D02*
X46605100Y-67062100D01*
X51411800Y-53914700D02*
X67859800Y-53914700D01*
X46605100Y-67062100D02*
X46605100Y-60791600D01*
%TO.N,/RD_{5}*%
X41218400Y-87223100D02*
X41995500Y-88000200D01*
X42890000Y-70220100D02*
X42522800Y-70220100D01*
X42890000Y-69045000D02*
X42890000Y-70220100D01*
X41218400Y-71524500D02*
X41218400Y-87223100D01*
X42522800Y-70220100D02*
X41218400Y-71524500D01*
%TO.N,/D_{5}*%
X52250000Y-55575300D02*
X52250000Y-57642500D01*
X45795200Y-70409900D02*
X45430000Y-70409900D01*
X65769900Y-54364800D02*
X53460500Y-54364800D01*
X47055200Y-69149900D02*
X45795200Y-70409900D01*
X66220000Y-54814900D02*
X65769900Y-54364800D01*
X45430000Y-71585000D02*
X45430000Y-70409900D01*
X47055200Y-62837300D02*
X47055200Y-69149900D01*
X52250000Y-57642500D02*
X47055200Y-62837300D01*
X53460500Y-54364800D02*
X52250000Y-55575300D01*
X66220000Y-56340000D02*
X66220000Y-54814900D01*
%TO.N,/RD_{6}*%
X60805100Y-89535000D02*
X61781200Y-88558900D01*
X65279600Y-88558900D02*
X68716200Y-85122300D01*
X69126500Y-71816100D02*
X69126500Y-69131800D01*
X68716200Y-72226400D02*
X69126500Y-71816100D01*
X61781200Y-88558900D02*
X65279600Y-88558900D01*
X68716200Y-85122300D02*
X68716200Y-72226400D01*
X69126500Y-69131800D02*
X69326800Y-68931500D01*
X59280000Y-89535000D02*
X60805100Y-89535000D01*
%TO.N,/D_{6}*%
X58600000Y-56340000D02*
X55922000Y-59018000D01*
X55922000Y-59018000D02*
X52175000Y-59018000D01*
X52175000Y-59018000D02*
X48229500Y-62963500D01*
X48229500Y-62963500D02*
X48229500Y-72590700D01*
%TO.N,/RD_{7}*%
X69166300Y-72412900D02*
X69576600Y-72002600D01*
X69576600Y-72002600D02*
X69576600Y-71551200D01*
X61680100Y-92514000D02*
X63169100Y-91025000D01*
X65353900Y-91025000D02*
X69166300Y-87212600D01*
X69166300Y-87212600D02*
X69166300Y-72412900D01*
X69576600Y-71551200D02*
X70180500Y-70947300D01*
X63169100Y-91025000D02*
X65353900Y-91025000D01*
X70180500Y-70947300D02*
X70180500Y-68087800D01*
%TO.N,/D_{7}*%
X45797300Y-75489900D02*
X45430000Y-75489900D01*
X52691300Y-57865100D02*
X47670900Y-62885500D01*
X47504400Y-72290400D02*
X47504400Y-73782800D01*
X47670900Y-62885500D02*
X47670900Y-72123900D01*
X47504400Y-73782800D02*
X45797300Y-75489900D01*
X56060000Y-57865100D02*
X52691300Y-57865100D01*
X47670900Y-72123900D02*
X47504400Y-72290400D01*
X56060000Y-56340000D02*
X56060000Y-57865100D01*
X45430000Y-76665000D02*
X45430000Y-75489900D01*
%TO.N,/CLK*%
X45430000Y-79205000D02*
X45430000Y-78029900D01*
X60671100Y-54814900D02*
X59870000Y-55616000D01*
X64805200Y-56925500D02*
X64805200Y-55431700D01*
X48954600Y-74872500D02*
X45797200Y-78029900D01*
X59870000Y-55616000D02*
X59870000Y-57061500D01*
X69233500Y-57865200D02*
X65744900Y-57865200D01*
X70833400Y-54814900D02*
X70030000Y-55618300D01*
X64188400Y-54814900D02*
X60671100Y-54814900D01*
X70030000Y-57068700D02*
X69233500Y-57865200D01*
X45797200Y-78029900D02*
X45430000Y-78029900D01*
X48954600Y-62875000D02*
X48954600Y-74872500D01*
X73840000Y-54814900D02*
X70833400Y-54814900D01*
X59870000Y-57061500D02*
X57463400Y-59468100D01*
X70030000Y-55618300D02*
X70030000Y-57068700D01*
X65744900Y-57865200D02*
X64805200Y-56925500D01*
X73840000Y-56340000D02*
X73840000Y-54814900D01*
X52361500Y-59468100D02*
X48954600Y-62875000D01*
X64805200Y-55431700D02*
X64188400Y-54814900D01*
X57463400Y-59468100D02*
X52361500Y-59468100D01*
%TO.N,/RS_{1}*%
X73745100Y-77055000D02*
X73745100Y-90224000D01*
X72220000Y-77055000D02*
X73745100Y-77055000D01*
X72944100Y-91025000D02*
X71491300Y-91025000D01*
X73745100Y-90224000D02*
X72944100Y-91025000D01*
X70684200Y-91832100D02*
X70684200Y-94221600D01*
X71491300Y-91025000D02*
X70684200Y-91832100D01*
%TO.N,/RB_{E}*%
X49404800Y-76960300D02*
X45795200Y-80569900D01*
X49404800Y-67060300D02*
X49404800Y-76960300D01*
X45795200Y-80569900D02*
X45430000Y-80569900D01*
X45430000Y-81745000D02*
X45430000Y-80569900D01*
X50980000Y-65485100D02*
X49404800Y-67060300D01*
X50980000Y-63960000D02*
X50980000Y-65485100D01*
%TO.N,/RD_{E}*%
X59280000Y-71755000D02*
X57754900Y-71755000D01*
X57754900Y-71755000D02*
X57754900Y-72750700D01*
X45430000Y-84285000D02*
X45430000Y-83109900D01*
X50784700Y-78105000D02*
X45779800Y-83109900D01*
X52400600Y-78105000D02*
X50784700Y-78105000D01*
X45779800Y-83109900D02*
X45430000Y-83109900D01*
X57754900Y-72750700D02*
X52400600Y-78105000D01*
%TO.N,/RS_{E}*%
X45745500Y-88000100D02*
X46794800Y-89049400D01*
X46794800Y-89049400D02*
X46794800Y-89269800D01*
X70066500Y-89037200D02*
X70066500Y-72785900D01*
X70066500Y-72785900D02*
X70694900Y-72157500D01*
X45430000Y-88000100D02*
X45745500Y-88000100D01*
X45430000Y-86825000D02*
X45430000Y-88000100D01*
X70694900Y-72157500D02*
X70694900Y-71975000D01*
X51687700Y-94162700D02*
X64941000Y-94162700D01*
X46794800Y-89269800D02*
X51687700Y-94162700D01*
X72220000Y-71975000D02*
X70694900Y-71975000D01*
X64941000Y-94162700D02*
X70066500Y-89037200D01*
%TO.N,/RS_{4}*%
X70694900Y-84675000D02*
X70694900Y-89045500D01*
X42890000Y-86825000D02*
X42890000Y-88000100D01*
X72220000Y-84675000D02*
X70694900Y-84675000D01*
X70694900Y-89045500D02*
X65085600Y-94654800D01*
X43255200Y-88000100D02*
X42890000Y-88000100D01*
X46431100Y-94654800D02*
X44160000Y-92383700D01*
X44160000Y-88904900D02*
X43255200Y-88000100D01*
X65085600Y-94654800D02*
X46431100Y-94654800D01*
X44160000Y-92383700D02*
X44160000Y-88904900D01*
%TO.N,GND*%
X73840000Y-63960000D02*
X73840000Y-64722500D01*
X69616400Y-88803700D02*
X69616400Y-72599400D01*
X70640500Y-71161000D02*
X70640500Y-68653200D01*
X61683700Y-93686200D02*
X54796300Y-93686200D01*
X73840000Y-65453700D02*
X73840000Y-65485100D01*
X69616400Y-72599400D02*
X70026700Y-72189100D01*
X77270000Y-67864900D02*
X76219800Y-67864900D01*
X66125100Y-92295000D02*
X69616400Y-88803700D01*
X70026700Y-72189100D02*
X70026700Y-71774800D01*
X73840000Y-65453700D02*
X73840000Y-64722500D01*
X64600000Y-92295000D02*
X63074900Y-92295000D01*
X76219800Y-67864900D02*
X73840000Y-65485100D01*
X70026700Y-71774800D02*
X70640500Y-71161000D01*
X51660000Y-92075000D02*
X53185100Y-92075000D01*
X64600000Y-92295000D02*
X66125100Y-92295000D01*
X54796300Y-93686200D02*
X53185100Y-92075000D01*
X77270000Y-68990000D02*
X77270000Y-67864900D01*
X70640500Y-68653200D02*
X73840000Y-65453700D01*
X63074900Y-92295000D02*
X61683700Y-93686200D01*
%TO.N,Net-(U1-Pad2)*%
X53520000Y-71420100D02*
X53185100Y-71755000D01*
X51660000Y-71755000D02*
X53185100Y-71755000D01*
X53520000Y-63960000D02*
X53520000Y-71420100D01*
%TO.N,Net-(U1-Pad5)*%
X51660000Y-74295000D02*
X53185100Y-74295000D01*
X61140000Y-63960000D02*
X61140000Y-65485100D01*
X53185100Y-74295000D02*
X53998600Y-73481500D01*
X53998600Y-73481500D02*
X53998600Y-72493200D01*
X53998600Y-72493200D02*
X61006700Y-65485100D01*
X61006700Y-65485100D02*
X61140000Y-65485100D01*
%TO.N,Net-(U1-Pad6)*%
X64600000Y-77055000D02*
X63074900Y-77055000D01*
X63074900Y-66090200D02*
X63074900Y-77055000D01*
X63680000Y-65485100D02*
X63074900Y-66090200D01*
X63680000Y-63960000D02*
X63680000Y-65485100D01*
%TO.N,Net-(U1-Pad9)*%
X56245900Y-78217500D02*
X60361800Y-78217500D01*
X51660000Y-79375000D02*
X55088400Y-79375000D01*
X64600000Y-79595000D02*
X66125100Y-79595000D01*
X55088400Y-79375000D02*
X56245900Y-78217500D01*
X68016000Y-68580300D02*
X68016000Y-70747600D01*
X66768000Y-71995600D02*
X66768000Y-78952100D01*
X68016000Y-70747600D02*
X66768000Y-71995600D01*
X71111200Y-65485100D02*
X68016000Y-68580300D01*
X66768000Y-78952100D02*
X66125100Y-79595000D01*
X71300000Y-63960000D02*
X71300000Y-65485100D01*
X60361800Y-78217500D02*
X61739300Y-79595000D01*
X71300000Y-65485100D02*
X71111200Y-65485100D01*
%TO.N,Net-(U1-Pad12)*%
X67218200Y-72182000D02*
X67218200Y-81041900D01*
X51660000Y-81915000D02*
X53185100Y-81915000D01*
X68466200Y-68766700D02*
X68466200Y-70934000D01*
X70555100Y-66956200D02*
X70276700Y-66956200D01*
X70276700Y-66956200D02*
X68466200Y-68766700D01*
X53185100Y-81915000D02*
X54335200Y-80764900D01*
X72473600Y-65037700D02*
X70555100Y-66956200D01*
X72473600Y-59038700D02*
X72473600Y-65037700D01*
X67218200Y-81041900D02*
X66125100Y-82135000D01*
X71300000Y-57865100D02*
X72473600Y-59038700D01*
X71300000Y-56340000D02*
X71300000Y-57865100D01*
X60183000Y-80764900D02*
X61553100Y-82135000D01*
X64600000Y-82135000D02*
X66125100Y-82135000D01*
X54335200Y-80764900D02*
X60183000Y-80764900D01*
X68466200Y-70934000D02*
X67218200Y-72182000D01*
%TO.N,Net-(U1-Pad15)*%
X63876000Y-78325000D02*
X63074900Y-79126100D01*
X66125100Y-68045200D02*
X66125100Y-77528700D01*
X64950000Y-66870100D02*
X66125100Y-68045200D01*
X63680000Y-57865100D02*
X63680000Y-58427900D01*
X64600000Y-84675000D02*
X63074900Y-84675000D01*
X64950000Y-59697900D02*
X64950000Y-66870100D01*
X63680000Y-56340000D02*
X63680000Y-57865100D01*
X63074900Y-79126100D02*
X63074900Y-84675000D01*
X63680000Y-58427900D02*
X64950000Y-59697900D01*
X65328800Y-78325000D02*
X63876000Y-78325000D01*
X66125100Y-77528700D02*
X65328800Y-78325000D01*
%TO.N,Net-(U1-Pad16)*%
X51660000Y-86995000D02*
X53185100Y-86995000D01*
X61140000Y-57865100D02*
X62464400Y-59189500D01*
X64600000Y-87215000D02*
X63074900Y-87215000D01*
X63074900Y-87215000D02*
X63074900Y-87119100D01*
X62464400Y-59189500D02*
X62464400Y-84892400D01*
X54479600Y-85700500D02*
X53185100Y-86995000D01*
X61140000Y-56340000D02*
X61140000Y-57865100D01*
X63074900Y-87119100D02*
X61656300Y-85700500D01*
X62464400Y-84892400D02*
X61656300Y-85700500D01*
X61656300Y-85700500D02*
X54479600Y-85700500D01*
%TO.N,Net-(U1-Pad19)*%
X60117600Y-93236100D02*
X56886200Y-93236100D01*
X84701300Y-55670200D02*
X83526800Y-54495700D01*
X60955000Y-91874900D02*
X60955000Y-92398700D01*
X63074900Y-89755000D02*
X60955000Y-91874900D01*
X64166400Y-89755000D02*
X63074900Y-89755000D01*
X60955000Y-92398700D02*
X60117600Y-93236100D01*
X56886200Y-93236100D02*
X53185100Y-89535000D01*
X83470000Y-90555000D02*
X84701300Y-89323700D01*
X64166400Y-89755000D02*
X64600000Y-89755000D01*
X52093600Y-89535000D02*
X51660000Y-89535000D01*
X84701300Y-89323700D02*
X84701300Y-55670200D01*
X52093600Y-89535000D02*
X53185100Y-89535000D01*
%TO.N,Net-(D1-Pad1)*%
X78395100Y-69983000D02*
X78395100Y-63804900D01*
X78395100Y-63804900D02*
X83470000Y-58730000D01*
X77973200Y-70404900D02*
X78395100Y-69983000D01*
X77270000Y-70404900D02*
X77973200Y-70404900D01*
X77270000Y-71530000D02*
X77270000Y-70404900D01*
%TO.N,Net-(D2-Pad1)*%
X77270000Y-72944900D02*
X77545600Y-72944900D01*
X80278200Y-70212300D02*
X80278200Y-66831800D01*
X77270000Y-74070000D02*
X77270000Y-72944900D01*
X80278200Y-66831800D02*
X83470000Y-63640000D01*
X77545600Y-72944900D02*
X80278200Y-70212300D01*
%TO.N,Net-(D4-Pad1)*%
X77270000Y-79150000D02*
X78395100Y-79150000D01*
X78395100Y-78539900D02*
X83470000Y-73465000D01*
X78395100Y-79150000D02*
X78395100Y-78539900D01*
%TD*%
M02*
