%TF.GenerationSoftware,KiCad,Pcbnew,6.0.2+dfsg-1*%
%TF.CreationDate,2023-02-24T13:33:49-05:00*%
%TF.ProjectId,Register,52656769-7374-4657-922e-6b696361645f,rev?*%
%TF.SameCoordinates,Original*%
%TF.FileFunction,Copper,L1,Top*%
%TF.FilePolarity,Positive*%
%FSLAX46Y46*%
G04 Gerber Fmt 4.6, Leading zero omitted, Abs format (unit mm)*
G04 Created by KiCad (PCBNEW 6.0.2+dfsg-1) date 2023-02-24 13:33:49*
%MOMM*%
%LPD*%
G01*
G04 APERTURE LIST*
%TA.AperFunction,ComponentPad*%
%ADD10R,1.700000X1.700000*%
%TD*%
%TA.AperFunction,ComponentPad*%
%ADD11O,1.700000X1.700000*%
%TD*%
%TA.AperFunction,ComponentPad*%
%ADD12R,1.800000X1.800000*%
%TD*%
%TA.AperFunction,ComponentPad*%
%ADD13C,1.800000*%
%TD*%
%TA.AperFunction,ComponentPad*%
%ADD14R,2.400000X1.600000*%
%TD*%
%TA.AperFunction,ComponentPad*%
%ADD15O,2.400000X1.600000*%
%TD*%
%TA.AperFunction,ComponentPad*%
%ADD16R,1.600000X2.400000*%
%TD*%
%TA.AperFunction,ComponentPad*%
%ADD17O,1.600000X2.400000*%
%TD*%
%TA.AperFunction,ComponentPad*%
%ADD18R,1.600000X1.600000*%
%TD*%
%TA.AperFunction,ComponentPad*%
%ADD19O,1.600000X1.600000*%
%TD*%
%TA.AperFunction,ViaPad*%
%ADD20C,0.800000*%
%TD*%
%TA.AperFunction,Conductor*%
%ADD21C,0.250000*%
%TD*%
G04 APERTURE END LIST*
D10*
%TO.P,J1,1,Pin_1*%
%TO.N,VCC*%
X45430000Y-56345000D03*
D11*
%TO.P,J1,2,Pin_2*%
%TO.N,/RD_{0}*%
X42890000Y-56345000D03*
%TO.P,J1,3,Pin_3*%
%TO.N,/D_{0}*%
X45430000Y-58885000D03*
%TO.P,J1,4,Pin_4*%
%TO.N,/RD_{1}*%
X42890000Y-58885000D03*
%TO.P,J1,5,Pin_5*%
%TO.N,/D_{1}*%
X45430000Y-61425000D03*
%TO.P,J1,6,Pin_6*%
%TO.N,/RD_{2}*%
X42890000Y-61425000D03*
%TO.P,J1,7,Pin_7*%
%TO.N,/D_{2}*%
X45430000Y-63965000D03*
%TO.P,J1,8,Pin_8*%
%TO.N,/RD_{3}*%
X42890000Y-63965000D03*
%TO.P,J1,9,Pin_9*%
%TO.N,/D_{3}*%
X45430000Y-66505000D03*
%TO.P,J1,10,Pin_10*%
%TO.N,/RD_{4}*%
X42890000Y-66505000D03*
%TO.P,J1,11,Pin_11*%
%TO.N,/D_{4}*%
X45430000Y-69045000D03*
%TO.P,J1,12,Pin_12*%
%TO.N,/RD_{5}*%
X42890000Y-69045000D03*
%TO.P,J1,13,Pin_13*%
%TO.N,/D_{5}*%
X45430000Y-71585000D03*
%TO.P,J1,14,Pin_14*%
%TO.N,/RD_{6}*%
X42890000Y-71585000D03*
%TO.P,J1,15,Pin_15*%
%TO.N,/D_{6}*%
X45430000Y-74125000D03*
%TO.P,J1,16,Pin_16*%
%TO.N,/RD_{7}*%
X42890000Y-74125000D03*
%TO.P,J1,17,Pin_17*%
%TO.N,/D_{7}*%
X45430000Y-76665000D03*
%TO.P,J1,18,Pin_18*%
%TO.N,/RS_{0}*%
X42890000Y-76665000D03*
%TO.P,J1,19,Pin_19*%
%TO.N,/CLK*%
X45430000Y-79205000D03*
%TO.P,J1,20,Pin_20*%
%TO.N,/RS_{1}*%
X42890000Y-79205000D03*
%TO.P,J1,21,Pin_21*%
%TO.N,/RB_{E}*%
X45430000Y-81745000D03*
%TO.P,J1,22,Pin_22*%
%TO.N,/RS_{2}*%
X42890000Y-81745000D03*
%TO.P,J1,23,Pin_23*%
%TO.N,/RD_{E}*%
X45430000Y-84285000D03*
%TO.P,J1,24,Pin_24*%
%TO.N,/RS_{3}*%
X42890000Y-84285000D03*
%TO.P,J1,25,Pin_25*%
%TO.N,/RS_{E}*%
X45430000Y-86825000D03*
%TO.P,J1,26,Pin_26*%
%TO.N,/RS_{4}*%
X42890000Y-86825000D03*
%TO.P,J1,27,Pin_27*%
%TO.N,/RS_{7}*%
X45430000Y-89365000D03*
%TO.P,J1,28,Pin_28*%
%TO.N,/RS_{5}*%
X42890000Y-89365000D03*
%TO.P,J1,29,Pin_29*%
%TO.N,/RS_{6}*%
X45430000Y-91905000D03*
%TO.P,J1,30,Pin_30*%
%TO.N,GND*%
X42890000Y-91905000D03*
%TD*%
D12*
%TO.P,D3,1,K*%
%TO.N,Net-(D3-Pad1)*%
X83470000Y-68555000D03*
D13*
%TO.P,D3,2,A*%
%TO.N,Net-(U1-Pad6)*%
X83470000Y-66015000D03*
%TD*%
D14*
%TO.P,U3,1,A->B*%
%TO.N,Net-(U2-Pad1)*%
X64600000Y-69435000D03*
D15*
%TO.P,U3,2,A0*%
%TO.N,Net-(U1-Pad2)*%
X64600000Y-71975000D03*
%TO.P,U3,3,A1*%
%TO.N,Net-(U1-Pad5)*%
X64600000Y-74515000D03*
%TO.P,U3,4,A2*%
%TO.N,Net-(U1-Pad6)*%
X64600000Y-77055000D03*
%TO.P,U3,5,A3*%
%TO.N,Net-(U1-Pad9)*%
X64600000Y-79595000D03*
%TO.P,U3,6,A4*%
%TO.N,Net-(U1-Pad12)*%
X64600000Y-82135000D03*
%TO.P,U3,7,A5*%
%TO.N,Net-(U1-Pad15)*%
X64600000Y-84675000D03*
%TO.P,U3,8,A6*%
%TO.N,Net-(U1-Pad16)*%
X64600000Y-87215000D03*
%TO.P,U3,9,A7*%
%TO.N,Net-(U1-Pad19)*%
X64600000Y-89755000D03*
%TO.P,U3,10,GND*%
%TO.N,GND*%
X64600000Y-92295000D03*
%TO.P,U3,11,B7*%
%TO.N,/RS_{7}*%
X72220000Y-92295000D03*
%TO.P,U3,12,B6*%
%TO.N,/RS_{6}*%
X72220000Y-89755000D03*
%TO.P,U3,13,B5*%
%TO.N,/RS_{5}*%
X72220000Y-87215000D03*
%TO.P,U3,14,B4*%
%TO.N,/RS_{4}*%
X72220000Y-84675000D03*
%TO.P,U3,15,B3*%
%TO.N,/RS_{3}*%
X72220000Y-82135000D03*
%TO.P,U3,16,B2*%
%TO.N,/RS_{2}*%
X72220000Y-79595000D03*
%TO.P,U3,17,B1*%
%TO.N,/RS_{1}*%
X72220000Y-77055000D03*
%TO.P,U3,18,B0*%
%TO.N,/RS_{0}*%
X72220000Y-74515000D03*
%TO.P,U3,19,CE*%
%TO.N,/RS_{E}*%
X72220000Y-71975000D03*
%TO.P,U3,20,VCC*%
%TO.N,Net-(U2-Pad1)*%
X72220000Y-69435000D03*
%TD*%
D12*
%TO.P,D7,1,K*%
%TO.N,Net-(D7-Pad1)*%
X83470000Y-88185000D03*
D13*
%TO.P,D7,2,A*%
%TO.N,Net-(U1-Pad16)*%
X83470000Y-85645000D03*
%TD*%
D14*
%TO.P,U2,1,A->B*%
%TO.N,Net-(U2-Pad1)*%
X51660000Y-69215000D03*
D15*
%TO.P,U2,2,A0*%
%TO.N,Net-(U1-Pad2)*%
X51660000Y-71755000D03*
%TO.P,U2,3,A1*%
%TO.N,Net-(U1-Pad5)*%
X51660000Y-74295000D03*
%TO.P,U2,4,A2*%
%TO.N,Net-(U1-Pad6)*%
X51660000Y-76835000D03*
%TO.P,U2,5,A3*%
%TO.N,Net-(U1-Pad9)*%
X51660000Y-79375000D03*
%TO.P,U2,6,A4*%
%TO.N,Net-(U1-Pad12)*%
X51660000Y-81915000D03*
%TO.P,U2,7,A5*%
%TO.N,Net-(U1-Pad15)*%
X51660000Y-84455000D03*
%TO.P,U2,8,A6*%
%TO.N,Net-(U1-Pad16)*%
X51660000Y-86995000D03*
%TO.P,U2,9,A7*%
%TO.N,Net-(U1-Pad19)*%
X51660000Y-89535000D03*
%TO.P,U2,10,GND*%
%TO.N,GND*%
X51660000Y-92075000D03*
%TO.P,U2,11,B7*%
%TO.N,/RD_{7}*%
X59280000Y-92075000D03*
%TO.P,U2,12,B6*%
%TO.N,/RD_{6}*%
X59280000Y-89535000D03*
%TO.P,U2,13,B5*%
%TO.N,/RD_{5}*%
X59280000Y-86995000D03*
%TO.P,U2,14,B4*%
%TO.N,/RD_{4}*%
X59280000Y-84455000D03*
%TO.P,U2,15,B3*%
%TO.N,/RD_{3}*%
X59280000Y-81915000D03*
%TO.P,U2,16,B2*%
%TO.N,/RD_{2}*%
X59280000Y-79375000D03*
%TO.P,U2,17,B1*%
%TO.N,/RD_{1}*%
X59280000Y-76835000D03*
%TO.P,U2,18,B0*%
%TO.N,/RD_{0}*%
X59280000Y-74295000D03*
%TO.P,U2,19,CE*%
%TO.N,/RD_{E}*%
X59280000Y-71755000D03*
%TO.P,U2,20,VCC*%
%TO.N,Net-(U2-Pad1)*%
X59280000Y-69215000D03*
%TD*%
D12*
%TO.P,D4,1,K*%
%TO.N,Net-(D4-Pad1)*%
X83470000Y-73465000D03*
D13*
%TO.P,D4,2,A*%
%TO.N,Net-(U1-Pad9)*%
X83470000Y-70925000D03*
%TD*%
D12*
%TO.P,D1,1,K*%
%TO.N,Net-(D1-Pad1)*%
X83470000Y-58730000D03*
D13*
%TO.P,D1,2,A*%
%TO.N,Net-(U1-Pad2)*%
X83470000Y-56190000D03*
%TD*%
D16*
%TO.P,U1,1,~{E}*%
%TO.N,/RB_{E}*%
X50980000Y-63960000D03*
D17*
%TO.P,U1,2,Q0*%
%TO.N,Net-(U1-Pad2)*%
X53520000Y-63960000D03*
%TO.P,U1,3,D0*%
%TO.N,/D_{0}*%
X56060000Y-63960000D03*
%TO.P,U1,4,D1*%
%TO.N,/D_{1}*%
X58600000Y-63960000D03*
%TO.P,U1,5,Q1*%
%TO.N,Net-(U1-Pad5)*%
X61140000Y-63960000D03*
%TO.P,U1,6,Q2*%
%TO.N,Net-(U1-Pad6)*%
X63680000Y-63960000D03*
%TO.P,U1,7,D2*%
%TO.N,/D_{2}*%
X66220000Y-63960000D03*
%TO.P,U1,8,D3*%
%TO.N,/D_{3}*%
X68760000Y-63960000D03*
%TO.P,U1,9,Q3*%
%TO.N,Net-(U1-Pad9)*%
X71300000Y-63960000D03*
%TO.P,U1,10,GND*%
%TO.N,GND*%
X73840000Y-63960000D03*
%TO.P,U1,11,CP*%
%TO.N,/CLK*%
X73840000Y-56340000D03*
%TO.P,U1,12,Q4*%
%TO.N,Net-(U1-Pad12)*%
X71300000Y-56340000D03*
%TO.P,U1,13,D4*%
%TO.N,/D_{4}*%
X68760000Y-56340000D03*
%TO.P,U1,14,D5*%
%TO.N,/D_{5}*%
X66220000Y-56340000D03*
%TO.P,U1,15,Q5*%
%TO.N,Net-(U1-Pad15)*%
X63680000Y-56340000D03*
%TO.P,U1,16,Q6*%
%TO.N,Net-(U1-Pad16)*%
X61140000Y-56340000D03*
%TO.P,U1,17,D6*%
%TO.N,/D_{6}*%
X58600000Y-56340000D03*
%TO.P,U1,18,D7*%
%TO.N,/D_{7}*%
X56060000Y-56340000D03*
%TO.P,U1,19,Q7*%
%TO.N,Net-(U1-Pad19)*%
X53520000Y-56340000D03*
%TO.P,U1,20,VCC*%
%TO.N,VCC*%
X50980000Y-56340000D03*
%TD*%
D12*
%TO.P,D8,1,K*%
%TO.N,Net-(D8-Pad1)*%
X83470000Y-93095000D03*
D13*
%TO.P,D8,2,A*%
%TO.N,Net-(U1-Pad19)*%
X83470000Y-90555000D03*
%TD*%
D18*
%TO.P,RN1,1,R1.1*%
%TO.N,GND*%
X77270000Y-68990000D03*
D19*
%TO.P,RN1,2,R1.2*%
%TO.N,Net-(D1-Pad1)*%
X77270000Y-71530000D03*
%TO.P,RN1,3,R2.2*%
%TO.N,Net-(D2-Pad1)*%
X77270000Y-74070000D03*
%TO.P,RN1,4,R3.2*%
%TO.N,Net-(D3-Pad1)*%
X77270000Y-76610000D03*
%TO.P,RN1,5,R4.2*%
%TO.N,Net-(D4-Pad1)*%
X77270000Y-79150000D03*
%TO.P,RN1,6,R5.2*%
%TO.N,Net-(D5-Pad1)*%
X77270000Y-81690000D03*
%TO.P,RN1,7,R6.2*%
%TO.N,Net-(D6-Pad1)*%
X77270000Y-84230000D03*
%TO.P,RN1,8,R7.2*%
%TO.N,Net-(D7-Pad1)*%
X77270000Y-86770000D03*
%TO.P,RN1,9,R8.2*%
%TO.N,Net-(D8-Pad1)*%
X77270000Y-89310000D03*
%TD*%
D12*
%TO.P,D6,1,K*%
%TO.N,Net-(D6-Pad1)*%
X83470000Y-83275000D03*
D13*
%TO.P,D6,2,A*%
%TO.N,Net-(U1-Pad15)*%
X83470000Y-80735000D03*
%TD*%
D12*
%TO.P,D5,1,K*%
%TO.N,Net-(D5-Pad1)*%
X83470000Y-78375000D03*
D13*
%TO.P,D5,2,A*%
%TO.N,Net-(U1-Pad12)*%
X83470000Y-75835000D03*
%TD*%
D12*
%TO.P,D2,1,K*%
%TO.N,Net-(D2-Pad1)*%
X83470000Y-63640000D03*
D13*
%TO.P,D2,2,A*%
%TO.N,Net-(U1-Pad5)*%
X83470000Y-61100000D03*
%TD*%
D20*
%TO.N,/RS_{4}*%
X70454900Y-94361700D03*
%TO.N,/RS_{E}*%
X70000900Y-73234900D03*
%TO.N,/RS_{1}*%
X38122500Y-85612500D03*
%TO.N,/CLK*%
X49511100Y-66032900D03*
%TO.N,/RD_{6}*%
X40416400Y-83633000D03*
%TO.N,/D_{5}*%
X44353200Y-57806900D03*
%TO.N,/RD_{5}*%
X49856500Y-80093800D03*
%TO.N,/RD_{3}*%
X41461200Y-70767000D03*
%TO.N,/RD_{2}*%
X48520900Y-74795600D03*
X48535400Y-64601800D03*
%TO.N,/RD_{1}*%
X55021500Y-75702000D03*
X51797400Y-60245700D03*
%TO.N,/RD_{0}*%
X55507500Y-68048900D03*
%TD*%
D21*
%TO.N,Net-(D7-Pad1)*%
X80829900Y-86770000D02*
X82244900Y-88185000D01*
X77270000Y-86770000D02*
X80829900Y-86770000D01*
X83470000Y-88185000D02*
X82244900Y-88185000D01*
%TO.N,Net-(D6-Pad1)*%
X79350100Y-83275000D02*
X78395100Y-84230000D01*
X83470000Y-83275000D02*
X79350100Y-83275000D01*
X77270000Y-84230000D02*
X78395100Y-84230000D01*
%TO.N,Net-(D5-Pad1)*%
X78929900Y-81690000D02*
X77270000Y-81690000D01*
X82244900Y-78375000D02*
X78929900Y-81690000D01*
X83470000Y-78375000D02*
X82244900Y-78375000D01*
%TO.N,Net-(D3-Pad1)*%
X78395100Y-73629900D02*
X83470000Y-68555000D01*
X78395100Y-74641200D02*
X78395100Y-73629900D01*
X77551400Y-75484900D02*
X78395100Y-74641200D01*
X77270000Y-75484900D02*
X77551400Y-75484900D01*
X77270000Y-76610000D02*
X77270000Y-75484900D01*
%TO.N,Net-(U2-Pad1)*%
X62854900Y-69215000D02*
X63074900Y-69435000D01*
X59280000Y-69215000D02*
X62854900Y-69215000D01*
X64600000Y-69435000D02*
X63074900Y-69435000D01*
X72220000Y-69435000D02*
X64600000Y-69435000D01*
X59280000Y-69215000D02*
X57754900Y-69215000D01*
X51660000Y-69215000D02*
X53185100Y-69215000D01*
X53185100Y-69215000D02*
X57754900Y-69215000D01*
%TO.N,Net-(U1-Pad19)*%
X67395100Y-88485000D02*
X66125100Y-89755000D01*
X74947700Y-88485000D02*
X67395100Y-88485000D01*
X75247900Y-88184800D02*
X74947700Y-88485000D01*
X81099800Y-88184800D02*
X75247900Y-88184800D01*
X83470000Y-90555000D02*
X81099800Y-88184800D01*
X64600000Y-89755000D02*
X66125100Y-89755000D01*
%TO.N,Net-(U1-Pad16)*%
X67539900Y-85800200D02*
X66125100Y-87215000D01*
X75092500Y-85800200D02*
X67539900Y-85800200D01*
X75247900Y-85644800D02*
X75092500Y-85800200D01*
X83469800Y-85644800D02*
X75247900Y-85644800D01*
X83470000Y-85645000D02*
X83469800Y-85644800D01*
X65362600Y-87215000D02*
X66125100Y-87215000D01*
X65362600Y-87215000D02*
X64600000Y-87215000D01*
X56935000Y-86995000D02*
X51660000Y-86995000D01*
X58060200Y-88120200D02*
X56935000Y-86995000D01*
X62169700Y-88120200D02*
X58060200Y-88120200D01*
X63074900Y-87215000D02*
X62169700Y-88120200D01*
X64600000Y-87215000D02*
X63074900Y-87215000D01*
%TO.N,Net-(U1-Pad15)*%
X54315100Y-85585000D02*
X53185100Y-84455000D01*
X62164900Y-85585000D02*
X54315100Y-85585000D01*
X63074900Y-84675000D02*
X62164900Y-85585000D01*
X64600000Y-84675000D02*
X63074900Y-84675000D01*
X51660000Y-84455000D02*
X53185100Y-84455000D01*
X67259500Y-83540600D02*
X66125100Y-84675000D01*
X74812100Y-83540600D02*
X67259500Y-83540600D01*
X75537500Y-82815200D02*
X74812100Y-83540600D01*
X81389800Y-82815200D02*
X75537500Y-82815200D01*
X83470000Y-80735000D02*
X81389800Y-82815200D01*
X64600000Y-84675000D02*
X66125100Y-84675000D01*
%TO.N,Net-(U1-Pad12)*%
X67395100Y-80865000D02*
X66125100Y-82135000D01*
X74947700Y-80865000D02*
X67395100Y-80865000D01*
X75537500Y-80275200D02*
X74947700Y-80865000D01*
X79029800Y-80275200D02*
X75537500Y-80275200D01*
X83470000Y-75835000D02*
X79029800Y-80275200D01*
X65362600Y-82135000D02*
X66125100Y-82135000D01*
X65362600Y-82135000D02*
X64600000Y-82135000D01*
X64600000Y-82135000D02*
X63074900Y-82135000D01*
X51660000Y-81915000D02*
X53185100Y-81915000D01*
X54360500Y-83090400D02*
X53185100Y-81915000D01*
X62119500Y-83090400D02*
X54360500Y-83090400D01*
X63074900Y-82135000D02*
X62119500Y-83090400D01*
%TO.N,Net-(U1-Pad9)*%
X84695200Y-69699800D02*
X83470000Y-70925000D01*
X84695200Y-67468900D02*
X84695200Y-69699800D01*
X84556100Y-67329800D02*
X84695200Y-67468900D01*
X73144700Y-67329800D02*
X84556100Y-67329800D01*
X71300000Y-65485100D02*
X73144700Y-67329800D01*
X71300000Y-63960000D02*
X71300000Y-65485100D01*
X62156200Y-80513700D02*
X63074900Y-79595000D01*
X54323800Y-80513700D02*
X62156200Y-80513700D01*
X53185100Y-79375000D02*
X54323800Y-80513700D01*
X51660000Y-79375000D02*
X53185100Y-79375000D01*
X64600000Y-79595000D02*
X63074900Y-79595000D01*
%TO.N,Net-(U1-Pad6)*%
X51660000Y-76835000D02*
X53185100Y-76835000D01*
X64600000Y-77055000D02*
X63074900Y-77055000D01*
X63680000Y-63960000D02*
X63680000Y-62434900D01*
X79889900Y-62434900D02*
X63680000Y-62434900D01*
X83470000Y-66015000D02*
X79889900Y-62434900D01*
X62141200Y-77988700D02*
X63074900Y-77055000D01*
X54338800Y-77988700D02*
X62141200Y-77988700D01*
X53185100Y-76835000D02*
X54338800Y-77988700D01*
%TO.N,Net-(U1-Pad5)*%
X51660000Y-74295000D02*
X53185100Y-74295000D01*
X64600000Y-74515000D02*
X63074900Y-74515000D01*
X54640000Y-74295000D02*
X53185100Y-74295000D01*
X55773600Y-75428600D02*
X54640000Y-74295000D01*
X62161300Y-75428600D02*
X55773600Y-75428600D01*
X63074900Y-74515000D02*
X62161300Y-75428600D01*
X62474900Y-61100000D02*
X61140000Y-62434900D01*
X83470000Y-61100000D02*
X62474900Y-61100000D01*
X61140000Y-63960000D02*
X61140000Y-62434900D01*
%TO.N,Net-(U1-Pad2)*%
X61715300Y-70615400D02*
X63074900Y-71975000D01*
X54324700Y-70615400D02*
X61715300Y-70615400D01*
X53185100Y-71755000D02*
X54324700Y-70615400D01*
X51660000Y-71755000D02*
X53185100Y-71755000D01*
X64600000Y-71975000D02*
X63074900Y-71975000D01*
%TO.N,GND*%
X54326700Y-93216600D02*
X53185100Y-92075000D01*
X62153300Y-93216600D02*
X54326700Y-93216600D01*
X63074900Y-92295000D02*
X62153300Y-93216600D01*
X64600000Y-92295000D02*
X63074900Y-92295000D01*
X51660000Y-92075000D02*
X53185100Y-92075000D01*
%TO.N,/RS_{6}*%
X72220000Y-89755000D02*
X70694900Y-89755000D01*
X45430000Y-91905000D02*
X46605100Y-91905000D01*
X48394200Y-93694100D02*
X46605100Y-91905000D01*
X66755800Y-93694100D02*
X48394200Y-93694100D01*
X70694900Y-89755000D02*
X66755800Y-93694100D01*
%TO.N,/RS_{5}*%
X42890000Y-89365000D02*
X44065100Y-89365000D01*
X66761800Y-87215000D02*
X72220000Y-87215000D01*
X65347000Y-88629800D02*
X66761800Y-87215000D01*
X62296800Y-88629800D02*
X65347000Y-88629800D01*
X60214800Y-90711800D02*
X62296800Y-88629800D01*
X49825000Y-90711800D02*
X60214800Y-90711800D01*
X47301200Y-88188000D02*
X49825000Y-90711800D01*
X44874900Y-88188000D02*
X47301200Y-88188000D01*
X44065100Y-88997800D02*
X44874900Y-88188000D01*
X44065100Y-89365000D02*
X44065100Y-88997800D01*
%TO.N,/RS_{7}*%
X45064700Y-90540100D02*
X45430000Y-90540100D01*
X44234000Y-91370800D02*
X45064700Y-90540100D01*
X44234000Y-92374300D02*
X44234000Y-91370800D01*
X46013900Y-94154200D02*
X44234000Y-92374300D01*
X68835700Y-94154200D02*
X46013900Y-94154200D01*
X70694900Y-92295000D02*
X68835700Y-94154200D01*
X72220000Y-92295000D02*
X70694900Y-92295000D01*
X45430000Y-89365000D02*
X45430000Y-90540100D01*
%TO.N,/RS_{4}*%
X42890000Y-86825000D02*
X42890000Y-88000100D01*
X42524700Y-88000100D02*
X42890000Y-88000100D01*
X41695800Y-88829000D02*
X42524700Y-88000100D01*
X41695800Y-92381200D02*
X41695800Y-88829000D01*
X43969400Y-94654800D02*
X41695800Y-92381200D01*
X70161800Y-94654800D02*
X43969400Y-94654800D01*
X70454900Y-94361700D02*
X70161800Y-94654800D01*
%TO.N,/RS_{E}*%
X72220000Y-71975000D02*
X70694900Y-71975000D01*
X70694900Y-72540900D02*
X70000900Y-73234900D01*
X70694900Y-71975000D02*
X70694900Y-72540900D01*
%TO.N,/RS_{1}*%
X38122500Y-59449500D02*
X38122500Y-85612500D01*
X42796300Y-54775700D02*
X38122500Y-59449500D01*
X77883800Y-54775700D02*
X42796300Y-54775700D01*
X80612900Y-57504800D02*
X77883800Y-54775700D01*
X84538700Y-57504800D02*
X80612900Y-57504800D01*
X85175200Y-58141300D02*
X84538700Y-57504800D01*
X85175200Y-70995400D02*
X85175200Y-58141300D01*
X83930800Y-72239800D02*
X85175200Y-70995400D01*
X82331400Y-72239800D02*
X83930800Y-72239800D01*
X81218900Y-73352300D02*
X82331400Y-72239800D01*
X81218900Y-74252600D02*
X81218900Y-73352300D01*
X77694600Y-77776900D02*
X81218900Y-74252600D01*
X74467000Y-77776900D02*
X77694600Y-77776900D01*
X73745100Y-77055000D02*
X74467000Y-77776900D01*
X72220000Y-77055000D02*
X73745100Y-77055000D01*
%TO.N,/CLK*%
X58775500Y-66032900D02*
X49511100Y-66032900D01*
X60014800Y-64793600D02*
X58775500Y-66032900D01*
X60014800Y-62890500D02*
X60014800Y-64793600D01*
X62464400Y-60440900D02*
X60014800Y-62890500D01*
X71264200Y-60440900D02*
X62464400Y-60440900D01*
X73840000Y-57865100D02*
X71264200Y-60440900D01*
X73840000Y-56340000D02*
X73840000Y-57865100D01*
%TO.N,/RS_{0}*%
X42890000Y-76665000D02*
X44065100Y-76665000D01*
X44065100Y-76299700D02*
X44065100Y-76665000D01*
X44969800Y-75395000D02*
X44065100Y-76299700D01*
X45842900Y-75395000D02*
X44969800Y-75395000D01*
X48068100Y-73169800D02*
X45842900Y-75395000D01*
X67241900Y-73169800D02*
X48068100Y-73169800D01*
X68587100Y-74515000D02*
X67241900Y-73169800D01*
X72220000Y-74515000D02*
X68587100Y-74515000D01*
%TO.N,/RD_{6}*%
X59280000Y-89535000D02*
X57754900Y-89535000D01*
X42338400Y-85555000D02*
X40416400Y-83633000D01*
X48184500Y-85555000D02*
X42338400Y-85555000D01*
X50894500Y-88265000D02*
X48184500Y-85555000D01*
X56484900Y-88265000D02*
X50894500Y-88265000D01*
X57754900Y-89535000D02*
X56484900Y-88265000D01*
%TO.N,/D_{5}*%
X44467500Y-57692600D02*
X44353200Y-57806900D01*
X47634500Y-57692600D02*
X44467500Y-57692600D01*
X48257100Y-58315200D02*
X47634500Y-57692600D01*
X65769900Y-58315200D02*
X48257100Y-58315200D01*
X66220000Y-57865100D02*
X65769900Y-58315200D01*
X66220000Y-56340000D02*
X66220000Y-57865100D01*
%TO.N,/RD_{5}*%
X42890000Y-69045000D02*
X42890000Y-70220100D01*
X43255200Y-70220100D02*
X42890000Y-70220100D01*
X44067000Y-71031900D02*
X43255200Y-70220100D01*
X44067000Y-72108900D02*
X44067000Y-71031900D01*
X43415700Y-72760200D02*
X44067000Y-72108900D01*
X42559000Y-72760200D02*
X43415700Y-72760200D01*
X41681000Y-73638200D02*
X42559000Y-72760200D01*
X41681000Y-77171200D02*
X41681000Y-73638200D01*
X42444800Y-77935000D02*
X41681000Y-77171200D01*
X47697700Y-77935000D02*
X42444800Y-77935000D01*
X49856500Y-80093800D02*
X47697700Y-77935000D01*
%TO.N,/RD_{4}*%
X42890000Y-66505000D02*
X42890000Y-67680100D01*
X42522800Y-67680100D02*
X42890000Y-67680100D01*
X40729800Y-69473100D02*
X42522800Y-67680100D01*
X40729800Y-81320400D02*
X40729800Y-69473100D01*
X42499800Y-83090400D02*
X40729800Y-81320400D01*
X53693300Y-83090400D02*
X42499800Y-83090400D01*
X55057900Y-84455000D02*
X53693300Y-83090400D01*
X59280000Y-84455000D02*
X55057900Y-84455000D01*
%TO.N,/D_{3}*%
X68760000Y-63960000D02*
X68760000Y-65485100D01*
X45430000Y-66505000D02*
X46605100Y-66505000D01*
X67037000Y-67208100D02*
X68760000Y-65485100D01*
X47308200Y-67208100D02*
X67037000Y-67208100D01*
X46605100Y-66505000D02*
X47308200Y-67208100D01*
%TO.N,/RD_{3}*%
X41179900Y-71048300D02*
X41461200Y-70767000D01*
X41179900Y-79221400D02*
X41179900Y-71048300D01*
X42433500Y-80475000D02*
X41179900Y-79221400D01*
X49212300Y-80475000D02*
X42433500Y-80475000D01*
X49579100Y-80841800D02*
X49212300Y-80475000D01*
X50595200Y-80841800D02*
X49579100Y-80841800D01*
X50664400Y-80772600D02*
X50595200Y-80841800D01*
X53316000Y-80772600D02*
X50664400Y-80772600D01*
X54458400Y-81915000D02*
X53316000Y-80772600D01*
X59280000Y-81915000D02*
X54458400Y-81915000D01*
%TO.N,/D_{2}*%
X66220000Y-63960000D02*
X66220000Y-65485100D01*
X45430000Y-63965000D02*
X46605100Y-63965000D01*
X64947100Y-66758000D02*
X66220000Y-65485100D01*
X49124100Y-66758000D02*
X64947100Y-66758000D01*
X46605100Y-64239000D02*
X49124100Y-66758000D01*
X46605100Y-63965000D02*
X46605100Y-64239000D01*
%TO.N,/RD_{2}*%
X48520900Y-75724500D02*
X48520900Y-74795600D01*
X51046200Y-78249800D02*
X48520900Y-75724500D01*
X52734800Y-78249800D02*
X51046200Y-78249800D01*
X53860000Y-79375000D02*
X52734800Y-78249800D01*
X59280000Y-79375000D02*
X53860000Y-79375000D01*
X42890000Y-61425000D02*
X44065100Y-61425000D01*
X44065100Y-61790300D02*
X44065100Y-61425000D01*
X44969800Y-62695000D02*
X44065100Y-61790300D01*
X46628600Y-62695000D02*
X44969800Y-62695000D01*
X48535400Y-64601800D02*
X46628600Y-62695000D01*
%TO.N,/D_{1}*%
X45430000Y-61425000D02*
X46605100Y-61425000D01*
X58600000Y-63960000D02*
X58600000Y-65485100D01*
X49380800Y-64200700D02*
X46605100Y-61425000D01*
X49380800Y-64861700D02*
X49380800Y-64200700D01*
X50004200Y-65485100D02*
X49380800Y-64861700D01*
X58600000Y-65485100D02*
X50004200Y-65485100D01*
%TO.N,/RD_{1}*%
X42890000Y-58885000D02*
X44065100Y-58885000D01*
X45060500Y-60245700D02*
X51797400Y-60245700D01*
X44065100Y-59250300D02*
X45060500Y-60245700D01*
X44065100Y-58885000D02*
X44065100Y-59250300D01*
X56154500Y-76835000D02*
X55021500Y-75702000D01*
X59280000Y-76835000D02*
X56154500Y-76835000D01*
%TO.N,/D_{0}*%
X56060000Y-63960000D02*
X56060000Y-62434900D01*
X45430000Y-58885000D02*
X46605100Y-58885000D01*
X52510100Y-58885000D02*
X56060000Y-62434900D01*
X46605100Y-58885000D02*
X52510100Y-58885000D01*
%TO.N,/RD_{0}*%
X42890000Y-56345000D02*
X42890000Y-57520100D01*
X55138800Y-67680200D02*
X55507500Y-68048900D01*
X44904300Y-67680200D02*
X55138800Y-67680200D01*
X44065200Y-66841100D02*
X44904300Y-67680200D01*
X44065200Y-65979300D02*
X44065200Y-66841100D01*
X43320900Y-65235000D02*
X44065200Y-65979300D01*
X42417400Y-65235000D02*
X43320900Y-65235000D01*
X41692500Y-64510100D02*
X42417400Y-65235000D01*
X41692500Y-58352300D02*
X41692500Y-64510100D01*
X42524700Y-57520100D02*
X41692500Y-58352300D01*
X42890000Y-57520100D02*
X42524700Y-57520100D01*
%TO.N,VCC*%
X50980000Y-56340000D02*
X50980000Y-57865100D01*
X45430000Y-56345000D02*
X46605100Y-56345000D01*
X47241700Y-56345000D02*
X46605100Y-56345000D01*
X48761800Y-57865100D02*
X47241700Y-56345000D01*
X50980000Y-57865100D02*
X48761800Y-57865100D01*
%TD*%
M02*
