M48
; DRILL file {KiCad 6.0.2+dfsg-1} date Fri 24 Feb 2023 01:33:46 PM EST
; FORMAT={-:-/ absolute / inch / decimal}
; #@! TF.CreationDate,2023-02-24T13:33:46-05:00
; #@! TF.GenerationSoftware,Kicad,Pcbnew,6.0.2+dfsg-1
; #@! TF.FileFunction,Plated,1,2,PTH
FMAT,2
INCH
; #@! TA.AperFunction,Plated,PTH,ViaDrill
T1C0.0157
; #@! TA.AperFunction,Plated,PTH,ComponentDrill
T2C0.0315
; #@! TA.AperFunction,Plated,PTH,ComponentDrill
T3C0.0354
; #@! TA.AperFunction,Plated,PTH,ComponentDrill
T4C0.0394
%
G90
G05
T1
X1.5009Y-3.3706
X1.5912Y-3.2926
X1.6323Y-2.7861
X1.7462Y-2.2759
X1.9103Y-2.9447
X1.9108Y-2.5434
X1.9493Y-2.5997
X1.9629Y-3.1533
X2.0393Y-2.3719
X2.1662Y-2.9804
X2.1853Y-2.6791
X2.7559Y-2.8833
X2.7738Y-3.715
T2
X2.0071Y-2.2181
X2.0071Y-2.5181
X2.0339Y-2.725
X2.0339Y-2.825
X2.0339Y-2.925
X2.0339Y-3.025
X2.0339Y-3.125
X2.0339Y-3.225
X2.0339Y-3.325
X2.0339Y-3.425
X2.0339Y-3.525
X2.0339Y-3.625
X2.1071Y-2.2181
X2.1071Y-2.5181
X2.2071Y-2.2181
X2.2071Y-2.5181
X2.3071Y-2.2181
X2.3071Y-2.5181
X2.3339Y-2.725
X2.3339Y-2.825
X2.3339Y-2.925
X2.3339Y-3.025
X2.3339Y-3.125
X2.3339Y-3.225
X2.3339Y-3.325
X2.3339Y-3.425
X2.3339Y-3.525
X2.3339Y-3.625
X2.4071Y-2.2181
X2.4071Y-2.5181
X2.5071Y-2.2181
X2.5071Y-2.5181
X2.5433Y-2.7337
X2.5433Y-2.8337
X2.5433Y-2.9337
X2.5433Y-3.0337
X2.5433Y-3.1337
X2.5433Y-3.2337
X2.5433Y-3.3337
X2.5433Y-3.4337
X2.5433Y-3.5337
X2.5433Y-3.6337
X2.6071Y-2.2181
X2.6071Y-2.5181
X2.7071Y-2.2181
X2.7071Y-2.5181
X2.8071Y-2.2181
X2.8071Y-2.5181
X2.8433Y-2.7337
X2.8433Y-2.8337
X2.8433Y-2.9337
X2.8433Y-3.0337
X2.8433Y-3.1337
X2.8433Y-3.2337
X2.8433Y-3.3337
X2.8433Y-3.4337
X2.8433Y-3.5337
X2.8433Y-3.6337
X2.9071Y-2.2181
X2.9071Y-2.5181
X3.0421Y-2.7161
X3.0421Y-2.8161
X3.0421Y-2.9161
X3.0421Y-3.0161
X3.0421Y-3.1161
X3.0421Y-3.2161
X3.0421Y-3.3161
X3.0421Y-3.4161
X3.0421Y-3.5161
T3
X3.2862Y-2.2122
X3.2862Y-2.3122
X3.2862Y-2.4055
X3.2862Y-2.5055
X3.2862Y-2.599
X3.2862Y-2.699
X3.2862Y-2.7923
X3.2862Y-2.8923
X3.2862Y-2.9856
X3.2862Y-3.0856
X3.2862Y-3.1785
X3.2862Y-3.2785
X3.2862Y-3.3719
X3.2862Y-3.4719
X3.2862Y-3.5652
X3.2862Y-3.6652
T4
X1.6886Y-2.2183
X1.6886Y-2.3183
X1.6886Y-2.4183
X1.6886Y-2.5183
X1.6886Y-2.6183
X1.6886Y-2.7183
X1.6886Y-2.8183
X1.6886Y-2.9183
X1.6886Y-3.0183
X1.6886Y-3.1183
X1.6886Y-3.2183
X1.6886Y-3.3183
X1.6886Y-3.4183
X1.6886Y-3.5183
X1.6886Y-3.6183
X1.7886Y-2.2183
X1.7886Y-2.3183
X1.7886Y-2.4183
X1.7886Y-2.5183
X1.7886Y-2.6183
X1.7886Y-2.7183
X1.7886Y-2.8183
X1.7886Y-2.9183
X1.7886Y-3.0183
X1.7886Y-3.1183
X1.7886Y-3.2183
X1.7886Y-3.3183
X1.7886Y-3.4183
X1.7886Y-3.5183
X1.7886Y-3.6183
T0
M30
